<svg xmlns="http://www.w3.org/2000/svg" width="768" height="1024" viewBox="0 0 768 1024"><rect width="768" height="1024" fill="#2b2548"/><rect width="768" height="740" fill="#091827"/><circle cx="200.37120000000002" cy="82.23" r="1" fill="#57bce8" opacity=".35"/><circle cx="200.2944" cy="82.2" r="2" fill="#57bce8" opacity=".35"/><circle cx="200.5248" cy="82.28999999999999" r="1" fill="#57bce8" opacity=".35"/><circle cx="200.448" cy="82.26" r="2" fill="#57bce8" opacity=".35"/><circle cx="200.67839999999998" cy="82.11" r="1" fill="#57bce8" opacity=".35"/><circle cx="200.6016" cy="82.08" r="2" fill="#57bce8" opacity=".35"/><circle cx="200.832" cy="82.16999999999999" r="1" fill="#57bce8" opacity=".35"/><circle cx="200.7552" cy="82.14" r="2" fill="#57bce8" opacity=".35"/><circle cx="200.98559999999998" cy="82.47" r="1" fill="#57bce8" opacity=".35"/><circle cx="200.90879999999999" cy="82.44" r="2" fill="#57bce8" opacity=".35"/><circle cx="192.92159999999998" cy="79.32000000000001" r="1" fill="#57bce8" opacity=".35"/><circle cx="192.9984" cy="79.35000000000001" r="2" fill="#57bce8" opacity=".35"/><circle cx="193.0752" cy="79.38" r="1" fill="#57bce8" opacity=".35"/><circle cx="193.152" cy="79.41" r="2" fill="#57bce8" opacity=".35"/><circle cx="193.22879999999998" cy="79.2" r="1" fill="#57bce8" opacity=".35"/><circle cx="193.30559999999997" cy="79.23" r="2" fill="#57bce8" opacity=".35"/><circle cx="193.38240000000002" cy="79.25999999999999" r="1" fill="#57bce8" opacity=".35"/><circle cx="193.4592" cy="79.28999999999999" r="2" fill="#57bce8" opacity=".35"/><circle cx="193.536" cy="79.56" r="1" fill="#57bce8" opacity=".35"/><circle cx="193.6128" cy="79.58999999999999" r="2" fill="#57bce8" opacity=".35"/><circle cx="205.44" cy="84.21000000000001" r="1" fill="#57bce8" opacity=".35"/><circle cx="205.3632" cy="84.18" r="2" fill="#57bce8" opacity=".35"/><circle cx="205.2864" cy="84.15" r="1" fill="#57bce8" opacity=".35"/><circle cx="205.2096" cy="84.11999999999999" r="2" fill="#57bce8" opacity=".35"/><circle cx="205.74720000000002" cy="84.09" r="1" fill="#57bce8" opacity=".35"/><circle cx="205.67039999999997" cy="84.06" r="2" fill="#57bce8" opacity=".35"/><circle cx="205.59359999999998" cy="84.03" r="1" fill="#57bce8" opacity=".35"/><circle cx="205.5168" cy="84.00000000000001" r="2" fill="#57bce8" opacity=".35"/><circle cx="206.0544" cy="84.44999999999999" r="1" fill="#57bce8" opacity=".35"/><circle cx="205.9776" cy="84.42" r="2" fill="#57bce8" opacity=".35"/><path d="M-30 650V411.75L-30,411.75 45.599999999999994,411.75V650Z" fill="#13263a" stroke="#07111d" stroke-width="4"/><path d="M36 650V411.725L36,411.725 111.6055,411.725V650Z" fill="#101f30" stroke="#07111d" stroke-width="4"/><path d="M102 650V411.8L102,411.8 177.611,411.8V650Z" fill="#13263a" stroke="#07111d" stroke-width="4"/><path d="M168 650V411.775L168,411.775 243.6165,411.775V650Z" fill="#101f30" stroke="#07111d" stroke-width="4"/><path d="M234 650V411.65L234,411.65 309.622,411.65V650Z" fill="#13263a" stroke="#07111d" stroke-width="4"/><path d="M300 650V411.625L300,411.625 375.6275,411.625V650Z" fill="#101f30" stroke="#07111d" stroke-width="4"/><path d="M366 650V411.7L366,411.7 441.63300000000004,411.7V650Z" fill="#13263a" stroke="#07111d" stroke-width="4"/><path d="M432 650V411.67499999999995L432,411.67499999999995 507.6385,411.67499999999995V650Z" fill="#101f30" stroke="#07111d" stroke-width="4"/><path d="M498 650V411.55L498,411.55 573.644,411.55V650Z" fill="#13263a" stroke="#07111d" stroke-width="4"/><path d="M564 650V411.525L564,411.525 639.6495,411.525V650Z" fill="#101f30" stroke="#07111d" stroke-width="4"/><path d="M630 650V409.325L630,409.325 697.6855,409.325V650Z" fill="#13263a" stroke="#07111d" stroke-width="4"/><path d="M696 650V409.35L696,409.35 763.68,409.35V650Z" fill="#101f30" stroke="#07111d" stroke-width="4"/><path d="M762 650V409.375L762,409.375 829.6965,409.375V650Z" fill="#13263a" stroke="#07111d" stroke-width="4"/><rect x="444.29600000000005" y="463.408" width="4" height="8" rx="2" fill="#e64858" opacity=".55"/><rect x="444.22399999999993" y="463.44399999999996" width="4" height="8" rx="2" fill="#57bce8" opacity=".55"/><rect x="444.44" y="463.48" width="4" height="8" rx="2" fill="#57bce8" opacity=".55"/><rect x="444.36800000000005" y="463.51599999999996" width="4" height="8" rx="2" fill="#e64858" opacity=".55"/><rect x="444.008" y="463.552" width="4" height="8" rx="2" fill="#57bce8" opacity=".55"/><rect x="443.936" y="463.588" width="4" height="8" rx="2" fill="#57bce8" opacity=".55"/><rect x="444.152" y="463.624" width="4" height="8" rx="2" fill="#e64858" opacity=".55"/><rect x="444.08" y="463.65999999999997" width="4" height="8" rx="2" fill="#57bce8" opacity=".55"/><rect x="444.87199999999996" y="463.12" width="4" height="8" rx="2" fill="#57bce8" opacity=".55"/><rect x="444.79999999999995" y="463.15599999999995" width="4" height="8" rx="2" fill="#e64858" opacity=".55"/><rect x="442.064" y="466.9" width="4" height="8" rx="2" fill="#57bce8" opacity=".55"/><rect x="442.136" y="466.86400000000003" width="4" height="8" rx="2" fill="#57bce8" opacity=".55"/><rect x="441.91999999999996" y="466.972" width="4" height="8" rx="2" fill="#e64858" opacity=".55"/><rect x="441.99199999999996" y="466.93600000000004" width="4" height="8" rx="2" fill="#57bce8" opacity=".55"/><rect x="441.776" y="467.044" width="4" height="8" rx="2" fill="#57bce8" opacity=".55"/><rect x="441.84799999999996" y="467.00800000000004" width="4" height="8" rx="2" fill="#e64858" opacity=".55"/><rect x="441.632" y="467.116" width="4" height="8" rx="2" fill="#57bce8" opacity=".55"/><rect x="441.704" y="467.08" width="4" height="8" rx="2" fill="#57bce8" opacity=".55"/><path d="M80 620l120-320 70 190 120-300 90 280 110-220 110 370z" fill="#222b48" stroke="#07111d" stroke-width="7"/><path d="M90 200l110 45-70 70zM540 170l140 65-90 80z" fill="none" stroke="#57bce8" stroke-width="8"/><path d="M0 705H768V1024H0Z" fill="#0b1825"/><path d="M0 730H768" stroke="#57bce8" stroke-width="4" opacity=".5"/><path d="M0 855H768M80 730V1024M250 730V1024M518 730V1024M688 730V1024" stroke="#1d3548" stroke-width="3"/><ellipse cx="590" cy="775" rx="110" ry="28" fill="#03070d" opacity=".6"/><path d="M0 712H768" stroke="#e64858" stroke-width="3" opacity=".35"/></svg>
