<svg xmlns="http://www.w3.org/2000/svg" width="512" height="128" viewBox="0 0 512 128"><g transform="translate(0)" fill="none" stroke="#57bce8" stroke-width="3" stroke-linecap="round" stroke-linejoin="round" opacity="0.5"><path d="M79.84 18l1.2736 24 -1.7240000000000002 20 1.4848 27 3.8255999999999997 24"/><path d="M79.8472 18l1.2752 24 -1.7260000000000009 20 1.4863999999999997 27 3.8272000000000004 24"/></g><g transform="translate(128)" fill="none" stroke="#57bce8" stroke-width="4" stroke-linecap="round" stroke-linejoin="round" opacity="0.62"><path d="M69.47919999999999 18l1.2736 24 -1.7240000000000002 20 1.4848 27 3.8255999999999997 24"/><path d="M69.472 18l1.2752 24 -1.7260000000000009 20 1.4863999999999997 27 3.8272000000000004 24"/><path d="M69.4936 18l1.2767999999999997 24 -1.7199999999999989 20 1.4879999999999995 27 3.8224 24"/></g><g transform="translate(256)" fill="none" stroke="#e64858" stroke-width="5" stroke-linecap="round" stroke-linejoin="round" opacity="0.74"><path d="M69.256 18l1.2736 24 -1.7240000000000002 20 1.4848 27 3.8255999999999997 24"/><path d="M69.26320000000001 18l1.2752 24 -1.7260000000000009 20 1.4863999999999997 27 3.8272000000000004 24"/><path d="M69.2416 18l1.2767999999999997 24 -1.7199999999999989 20 1.4879999999999995 27 3.8224 24"/><path d="M69.24879999999999 18l1.2783999999999995 24 -1.7219999999999995 20 1.4895999999999994 27 3.824 24"/></g><g transform="translate(384)" fill="none" stroke="#e64858" stroke-width="6" stroke-linecap="round" stroke-linejoin="round" opacity="0.86"><path d="M69.95439999999999 18l1.2736 24 -1.7240000000000002 20 1.4848 27 3.8255999999999997 24"/><path d="M69.94720000000001 18l1.2752 24 -1.7260000000000009 20 1.4863999999999997 27 3.8272000000000004 24"/><path d="M69.94 18l1.2767999999999997 24 -1.7199999999999989 20 1.4879999999999995 27 3.8224 24"/><path d="M69.9328 18l1.2783999999999995 24 -1.7219999999999995 20 1.4895999999999994 27 3.824 24"/><path d="M69.9832 18l1.2672000000000008 24 -1.7159999999999993 20 1.4911999999999992 27 3.8192000000000004 24"/></g></svg>
