<svg xmlns="http://www.w3.org/2000/svg" width="768" height="1024" viewBox="0 0 768 1024"><rect width="768" height="1024" fill="#2c2020"/><rect width="768" height="740" fill="#091827"/><circle cx="468.55679999999995" cy="179.07" r="1" fill="#8c5b42" opacity=".35"/><circle cx="468.48" cy="179.04" r="2" fill="#8c5b42" opacity=".35"/><circle cx="468.71039999999994" cy="179.13" r="1" fill="#8c5b42" opacity=".35"/><circle cx="468.6336" cy="179.1" r="2" fill="#8c5b42" opacity=".35"/><circle cx="468.2496" cy="179.19000000000003" r="1" fill="#8c5b42" opacity=".35"/><circle cx="468.17280000000005" cy="179.16" r="2" fill="#8c5b42" opacity=".35"/><circle cx="468.40319999999997" cy="179.25" r="1" fill="#8c5b42" opacity=".35"/><circle cx="468.32640000000004" cy="179.22" r="2" fill="#8c5b42" opacity=".35"/><circle cx="469.1712" cy="179.31" r="1" fill="#8c5b42" opacity=".35"/><circle cx="469.0944" cy="179.28" r="2" fill="#8c5b42" opacity=".35"/><circle cx="461.10720000000003" cy="176.16000000000003" r="1" fill="#8c5b42" opacity=".35"/><circle cx="461.184" cy="176.19000000000003" r="2" fill="#8c5b42" opacity=".35"/><circle cx="461.2608" cy="176.22" r="1" fill="#8c5b42" opacity=".35"/><circle cx="461.3376" cy="176.25" r="2" fill="#8c5b42" opacity=".35"/><circle cx="460.79999999999995" cy="176.28" r="1" fill="#8c5b42" opacity=".35"/><circle cx="460.8768" cy="176.31" r="2" fill="#8c5b42" opacity=".35"/><circle cx="460.95359999999994" cy="176.34" r="1" fill="#8c5b42" opacity=".35"/><circle cx="461.0304" cy="176.37" r="2" fill="#8c5b42" opacity=".35"/><circle cx="461.72159999999997" cy="176.39999999999998" r="1" fill="#8c5b42" opacity=".35"/><circle cx="461.79839999999996" cy="176.42999999999998" r="2" fill="#8c5b42" opacity=".35"/><circle cx="473.6256" cy="181.05" r="1" fill="#8c5b42" opacity=".35"/><circle cx="473.5488" cy="181.02" r="2" fill="#8c5b42" opacity=".35"/><circle cx="473.47200000000004" cy="180.98999999999998" r="1" fill="#8c5b42" opacity=".35"/><circle cx="473.39519999999993" cy="180.95999999999998" r="2" fill="#8c5b42" opacity=".35"/><circle cx="473.3184" cy="181.17" r="1" fill="#8c5b42" opacity=".35"/><circle cx="473.24159999999995" cy="181.14000000000001" r="2" fill="#8c5b42" opacity=".35"/><circle cx="473.1648" cy="181.11" r="1" fill="#8c5b42" opacity=".35"/><circle cx="473.08799999999997" cy="181.08" r="2" fill="#8c5b42" opacity=".35"/><circle cx="474.24" cy="181.29" r="1" fill="#8c5b42" opacity=".35"/><circle cx="474.16319999999996" cy="181.26" r="2" fill="#8c5b42" opacity=".35"/><path d="M-30 650V406.05L-30,406.05 27.933999999999997,406.05V650Z" fill="#13263a" stroke="#07111d" stroke-width="4"/><path d="M36 650V406.025L36,406.025 93.9395,406.025V650Z" fill="#101f30" stroke="#07111d" stroke-width="4"/><path d="M102 650V406.1L102,406.1 159.945,406.1V650Z" fill="#13263a" stroke="#07111d" stroke-width="4"/><path d="M168 650V406.075L168,406.075 225.9505,406.075V650Z" fill="#101f30" stroke="#07111d" stroke-width="4"/><path d="M234 650V406.15L234,406.15 291.912,406.15V650Z" fill="#13263a" stroke="#07111d" stroke-width="4"/><path d="M300 650V406.125L300,406.125 357.9175,406.125V650Z" fill="#101f30" stroke="#07111d" stroke-width="4"/><path d="M366 650V406.20000000000005L366,406.20000000000005 423.923,406.20000000000005V650Z" fill="#13263a" stroke="#07111d" stroke-width="4"/><path d="M432 650V406.17499999999995L432,406.17499999999995 489.9285,406.17499999999995V650Z" fill="#101f30" stroke="#07111d" stroke-width="4"/><path d="M498 650V405.85L498,405.85 555.978,405.85V650Z" fill="#13263a" stroke="#07111d" stroke-width="4"/><path d="M564 650V405.825L564,405.825 621.9835,405.825V650Z" fill="#101f30" stroke="#07111d" stroke-width="4"/><path d="M630 650V403.625L630,403.625 698.9395,403.625V650Z" fill="#13263a" stroke="#07111d" stroke-width="4"/><path d="M696 650V403.65L696,403.65 764.934,403.65V650Z" fill="#101f30" stroke="#07111d" stroke-width="4"/><path d="M762 650V403.675L762,403.675 830.9505,403.675V650Z" fill="#13263a" stroke="#07111d" stroke-width="4"/><rect x="441.704" y="471.616" width="4" height="8" rx="2" fill="#e27832" opacity=".55"/><rect x="441.632" y="471.65200000000004" width="4" height="8" rx="2" fill="#8c5b42" opacity=".55"/><rect x="441.84799999999996" y="471.688" width="4" height="8" rx="2" fill="#8c5b42" opacity=".55"/><rect x="441.776" y="471.724" width="4" height="8" rx="2" fill="#e27832" opacity=".55"/><rect x="441.99199999999996" y="471.472" width="4" height="8" rx="2" fill="#8c5b42" opacity=".55"/><rect x="441.91999999999996" y="471.508" width="4" height="8" rx="2" fill="#8c5b42" opacity=".55"/><rect x="442.136" y="471.544" width="4" height="8" rx="2" fill="#e27832" opacity=".55"/><rect x="442.064" y="471.58000000000004" width="4" height="8" rx="2" fill="#8c5b42" opacity=".55"/><rect x="442.28000000000003" y="471.328" width="4" height="8" rx="2" fill="#8c5b42" opacity=".55"/><rect x="442.208" y="471.36400000000003" width="4" height="8" rx="2" fill="#e27832" opacity=".55"/><rect x="439.472" y="475.10799999999995" width="4" height="8" rx="2" fill="#8c5b42" opacity=".55"/><rect x="439.544" y="475.072" width="4" height="8" rx="2" fill="#8c5b42" opacity=".55"/><rect x="439.32800000000003" y="475.17999999999995" width="4" height="8" rx="2" fill="#e27832" opacity=".55"/><rect x="439.40000000000003" y="475.144" width="4" height="8" rx="2" fill="#8c5b42" opacity=".55"/><rect x="439.76" y="474.964" width="4" height="8" rx="2" fill="#8c5b42" opacity=".55"/><rect x="439.832" y="474.928" width="4" height="8" rx="2" fill="#e27832" opacity=".55"/><rect x="439.616" y="475.036" width="4" height="8" rx="2" fill="#8c5b42" opacity=".55"/><rect x="439.688" y="475" width="4" height="8" rx="2" fill="#8c5b42" opacity=".55"/><path d="M0 600l120-180 90 130 120-260 110 260 120-190 130 240 78-90v240H0Z" fill="#241d26" stroke="#07111d" stroke-width="7"/><path d="M20 680l120-35 80 25 150-45 120 50 160-60 118 30" fill="none" stroke="#e27832" stroke-width="12"/><g id="apn-editorial-motifs">
    <g id="billboard" fill="#102033" stroke="#07111d" stroke-width="5">
      <path d="M42 300h132v86H42zM594 344h124v78H594z"/>
      <path d="M59 320h66M59 340h92M611 365h78M611 385h52" fill="none" stroke="#8c5b42" stroke-width="5" opacity=".7"/>
      <path d="M145 316h13v13h-13zM688 397h13v13h-13z" fill="#e27832" stroke="none"/>
    </g>
    <g id="signal-rail" fill="none" stroke-linecap="round">
      <path d="M0 528H768" stroke="#07111d" stroke-width="12"/>
      <path d="M0 528H768" stroke="#8c5b42" stroke-width="4" opacity=".65"/>
      <path d="M92 512v32M270 512v32M498 512v32M680 512v32" stroke="#e27832" stroke-width="4"/>
    </g>
    <path id="patchline" d="M0 606h178l28-24h176l30 24h356" fill="none" stroke="#e27832" stroke-width="5" opacity=".72"/>
    <g id="archive-lights" fill="#8c5b42">
      <circle cx="84" cy="606" r="5"/><circle cx="218" cy="582" r="5"/><circle cx="396" cy="594" r="5"/><circle cx="554" cy="606" r="5"/><circle cx="704" cy="606" r="5"/>
    </g>
  </g><path d="M0 705H768V1024H0Z" fill="#0b1825"/><path d="M0 730H768" stroke="#8c5b42" stroke-width="4" opacity=".5"/><path d="M0 855H768M80 730V1024M250 730V1024M518 730V1024M688 730V1024" stroke="#1d3548" stroke-width="3"/><ellipse cx="590" cy="775" rx="110" ry="28" fill="#03070d" opacity=".6"/><path d="M0 712H768" stroke="#e27832" stroke-width="3" opacity=".35"/></svg>
