<svg xmlns="http://www.w3.org/2000/svg" width="512" height="128" viewBox="0 0 512 128"><g transform="translate(0)" fill="none" stroke="#8c5b42" stroke-width="3" stroke-linecap="round" stroke-linejoin="round" opacity="0.5"><path d="M56.7136 18l1.2159999999999993 24 -1.652000000000001 20 1.8496000000000006 27 -1.7615999999999996 24"/><path d="M56.7208 18l1.2175999999999991 24 -1.654 20 1.8512000000000004 27 -1.7599999999999998 24"/></g><g transform="translate(128)" fill="none" stroke="#8c5b42" stroke-width="4" stroke-linecap="round" stroke-linejoin="round" opacity="0.62"><path d="M71.1208 18l1.2159999999999993 24 -1.652000000000001 20 1.8496000000000006 27 -1.7615999999999996 24"/><path d="M71.11359999999999 18l1.2175999999999991 24 -1.654 20 1.8512000000000004 27 -1.7599999999999998 24"/><path d="M71.1352 18l1.2192000000000007 24 -1.6479999999999997 20 1.8528000000000002 27 -1.7647999999999993 24"/></g><g transform="translate(256)" fill="none" stroke="#e27832" stroke-width="5" stroke-linecap="round" stroke-linejoin="round" opacity="0.74"><path d="M70.8976 18l1.2159999999999993 24 -1.652000000000001 20 1.8496000000000006 27 -1.7615999999999996 24"/><path d="M70.9048 18l1.2175999999999991 24 -1.654 20 1.8512000000000004 27 -1.7599999999999998 24"/><path d="M70.8832 18l1.2192000000000007 24 -1.6479999999999997 20 1.8528000000000002 27 -1.7647999999999993 24"/><path d="M70.8904 18l1.2208000000000006 24 -1.6500000000000004 20 1.8544 27 -1.7631999999999994 24"/></g><g transform="translate(384)" fill="none" stroke="#e27832" stroke-width="6" stroke-linecap="round" stroke-linejoin="round" opacity="0.86"><path d="M71.596 18l1.2159999999999993 24 -1.652000000000001 20 1.8496000000000006 27 -1.7615999999999996 24"/><path d="M71.5888 18l1.2175999999999991 24 -1.654 20 1.8512000000000004 27 -1.7599999999999998 24"/><path d="M71.5816 18l1.2192000000000007 24 -1.6479999999999997 20 1.8528000000000002 27 -1.7647999999999993 24"/><path d="M71.5744 18l1.2208000000000006 24 -1.6500000000000004 20 1.8544 27 -1.7631999999999994 24"/><path d="M71.5672 18l1.2224000000000004 24 -1.6600000000000001 20 1.8431999999999995 27 -1.7552000000000003 24"/></g></svg>
