<svg xmlns="http://www.w3.org/2000/svg" width="768" height="1024" viewBox="0 0 768 1024"><rect width="768" height="1024" fill="#293922"/><rect width="768" height="740" fill="#091827"/><circle cx="510.18240000000003" cy="203.25" r="1" fill="#9a79c7" opacity=".35"/><circle cx="510.1056" cy="203.22" r="2" fill="#9a79c7" opacity=".35"/><circle cx="510.02880000000005" cy="203.19" r="1" fill="#9a79c7" opacity=".35"/><circle cx="509.952" cy="203.16" r="2" fill="#9a79c7" opacity=".35"/><circle cx="510.4896" cy="203.13000000000002" r="1" fill="#9a79c7" opacity=".35"/><circle cx="510.41279999999995" cy="203.10000000000002" r="2" fill="#9a79c7" opacity=".35"/><circle cx="510.336" cy="203.07" r="1" fill="#9a79c7" opacity=".35"/><circle cx="510.25919999999996" cy="203.04" r="2" fill="#9a79c7" opacity=".35"/><circle cx="510.7968" cy="203.49" r="1" fill="#9a79c7" opacity=".35"/><circle cx="510.72" cy="203.46" r="2" fill="#9a79c7" opacity=".35"/><circle cx="512.5632" cy="204.18" r="1" fill="#9a79c7" opacity=".35"/><circle cx="512.64" cy="204.20999999999998" r="2" fill="#9a79c7" opacity=".35"/><circle cx="512.4096" cy="204.12" r="1" fill="#9a79c7" opacity=".35"/><circle cx="512.4864" cy="204.15" r="2" fill="#9a79c7" opacity=".35"/><circle cx="512.8704" cy="204.06" r="1" fill="#9a79c7" opacity=".35"/><circle cx="512.9472000000001" cy="204.09" r="2" fill="#9a79c7" opacity=".35"/><circle cx="512.7167999999999" cy="204.00000000000003" r="1" fill="#9a79c7" opacity=".35"/><circle cx="512.7936" cy="204.03" r="2" fill="#9a79c7" opacity=".35"/><circle cx="513.1776" cy="204.42000000000002" r="1" fill="#9a79c7" opacity=".35"/><circle cx="513.2544" cy="204.45" r="2" fill="#9a79c7" opacity=".35"/><circle cx="505.11359999999996" cy="201.27" r="1" fill="#9a79c7" opacity=".35"/><circle cx="505.03679999999997" cy="201.23999999999998" r="2" fill="#9a79c7" opacity=".35"/><circle cx="505.2672" cy="201.33" r="1" fill="#9a79c7" opacity=".35"/><circle cx="505.19040000000007" cy="201.3" r="2" fill="#9a79c7" opacity=".35"/><circle cx="505.4208" cy="201.15" r="1" fill="#9a79c7" opacity=".35"/><circle cx="505.34400000000005" cy="201.12" r="2" fill="#9a79c7" opacity=".35"/><circle cx="505.57439999999997" cy="201.20999999999998" r="1" fill="#9a79c7" opacity=".35"/><circle cx="505.49760000000003" cy="201.17999999999998" r="2" fill="#9a79c7" opacity=".35"/><circle cx="505.72799999999995" cy="201.51" r="1" fill="#9a79c7" opacity=".35"/><circle cx="505.6512" cy="201.48" r="2" fill="#9a79c7" opacity=".35"/><path d="M-30 650V385.8L-30,385.8 8.210999999999999,385.8V650Z" fill="#13263a" stroke="#07111d" stroke-width="4"/><path d="M36 650V385.775L36,385.775 74.2165,385.775V650Z" fill="#101f30" stroke="#07111d" stroke-width="4"/><path d="M102 650V385.75L102,385.75 140.2,385.75V650Z" fill="#13263a" stroke="#07111d" stroke-width="4"/><path d="M168 650V385.725L168,385.725 206.2055,385.725V650Z" fill="#101f30" stroke="#07111d" stroke-width="4"/><path d="M234 650V385.7L234,385.7 272.233,385.7V650Z" fill="#13263a" stroke="#07111d" stroke-width="4"/><path d="M300 650V385.67499999999995L300,385.67499999999995 338.2385,385.67499999999995V650Z" fill="#101f30" stroke="#07111d" stroke-width="4"/><path d="M366 650V385.65L366,385.65 404.222,385.65V650Z" fill="#13263a" stroke="#07111d" stroke-width="4"/><path d="M432 650V385.625L432,385.625 470.2275,385.625V650Z" fill="#101f30" stroke="#07111d" stroke-width="4"/><path d="M498 650V385.6L498,385.6 536.255,385.6V650Z" fill="#13263a" stroke="#07111d" stroke-width="4"/><path d="M564 650V385.57500000000005L564,385.57500000000005 602.2605,385.57500000000005V650Z" fill="#101f30" stroke="#07111d" stroke-width="4"/><path d="M630 650V386.57500000000005L630,386.57500000000005 703.4165,386.57500000000005V650Z" fill="#13263a" stroke="#07111d" stroke-width="4"/><path d="M696 650V386.6L696,386.6 769.4110000000001,386.6V650Z" fill="#101f30" stroke="#07111d" stroke-width="4"/><path d="M762 650V386.525L762,386.525 835.4055,386.525V650Z" fill="#13263a" stroke="#07111d" stroke-width="4"/><rect x="519.3199999999999" y="505.528" width="4" height="8" rx="2" fill="#74b94f" opacity=".55"/><rect x="519.248" y="505.56399999999996" width="4" height="8" rx="2" fill="#9a79c7" opacity=".55"/><rect x="519.176" y="505.456" width="4" height="8" rx="2" fill="#9a79c7" opacity=".55"/><rect x="519.104" y="505.49199999999996" width="4" height="8" rx="2" fill="#74b94f" opacity=".55"/><rect x="519.032" y="505.672" width="4" height="8" rx="2" fill="#9a79c7" opacity=".55"/><rect x="518.96" y="505.708" width="4" height="8" rx="2" fill="#9a79c7" opacity=".55"/><rect x="518.8879999999999" y="505.6" width="4" height="8" rx="2" fill="#74b94f" opacity=".55"/><rect x="518.816" y="505.63599999999997" width="4" height="8" rx="2" fill="#9a79c7" opacity=".55"/><rect x="519.896" y="505.24" width="4" height="8" rx="2" fill="#9a79c7" opacity=".55"/><rect x="519.8240000000001" y="505.27599999999995" width="4" height="8" rx="2" fill="#74b94f" opacity=".55"/><rect x="516.8" y="504.41200000000003" width="4" height="8" rx="2" fill="#9a79c7" opacity=".55"/><rect x="516.8720000000001" y="504.376" width="4" height="8" rx="2" fill="#9a79c7" opacity=".55"/><rect x="516.944" y="504.34000000000003" width="4" height="8" rx="2" fill="#74b94f" opacity=".55"/><rect x="517.0160000000001" y="504.304" width="4" height="8" rx="2" fill="#9a79c7" opacity=".55"/><rect x="516.512" y="504.556" width="4" height="8" rx="2" fill="#9a79c7" opacity=".55"/><rect x="516.5840000000001" y="504.52" width="4" height="8" rx="2" fill="#74b94f" opacity=".55"/><rect x="516.656" y="504.484" width="4" height="8" rx="2" fill="#9a79c7" opacity=".55"/><rect x="516.728" y="504.448" width="4" height="8" rx="2" fill="#9a79c7" opacity=".55"/><path d="M0 590h120v-90h100v90h110V430h130v160h110V500h120v90h98v120H0Z" fill="#19364a" stroke="#07111d" stroke-width="6"/><rect x="550" y="190" width="65" height="65" fill="#9a79c7" opacity=".55"/><g id="apn-editorial-motifs">
    <g id="billboard" fill="#102033" stroke="#07111d" stroke-width="5">
      <path d="M42 300h132v86H42zM594 344h124v78H594z"/>
      <path d="M59 320h66M59 340h92M611 365h78M611 385h52" fill="none" stroke="#9a79c7" stroke-width="5" opacity=".7"/>
      <path d="M145 316h13v13h-13zM688 397h13v13h-13z" fill="#74b94f" stroke="none"/>
    </g>
    <g id="signal-rail" fill="none" stroke-linecap="round">
      <path d="M0 528H768" stroke="#07111d" stroke-width="12"/>
      <path d="M0 528H768" stroke="#9a79c7" stroke-width="4" opacity=".65"/>
      <path d="M92 512v32M270 512v32M498 512v32M680 512v32" stroke="#74b94f" stroke-width="4"/>
    </g>
    <path id="patchline" d="M0 606h178l28-24h176l30 24h356" fill="none" stroke="#74b94f" stroke-width="5" opacity=".72"/>
    <g id="archive-lights" fill="#9a79c7">
      <circle cx="84" cy="606" r="5"/><circle cx="218" cy="582" r="5"/><circle cx="396" cy="594" r="5"/><circle cx="554" cy="606" r="5"/><circle cx="704" cy="606" r="5"/>
    </g>
  </g><path d="M0 705H768V1024H0Z" fill="#0b1825"/><path d="M0 730H768" stroke="#9a79c7" stroke-width="4" opacity=".5"/><path d="M0 855H768M80 730V1024M250 730V1024M518 730V1024M688 730V1024" stroke="#1d3548" stroke-width="3"/><ellipse cx="590" cy="775" rx="110" ry="28" fill="#03070d" opacity=".6"/><path d="M0 712H768" stroke="#74b94f" stroke-width="3" opacity=".35"/></svg>
