<svg xmlns="http://www.w3.org/2000/svg" width="512" height="128" viewBox="0 0 512 128"><g transform="translate(0)" fill="none" stroke="#9a79c7" stroke-width="3" stroke-linecap="round" stroke-linejoin="round" opacity="0.5"><path d="M30.8944 18l3.1456 24 -3.799999999999999 20 3.3568 27 -2.6288 24"/><path d="M30.901600000000002 18l3.1471999999999998 24 -3.8020000000000014 20 3.3583999999999996 27 -2.6272 24"/></g><g transform="translate(128)" fill="none" stroke="#9a79c7" stroke-width="4" stroke-linecap="round" stroke-linejoin="round" opacity="0.62"><path d="M76.9816 18l3.1456 24 -3.799999999999999 20 3.3568 27 -2.6288 24"/><path d="M76.9744 18l3.1471999999999998 24 -3.8020000000000014 20 3.3583999999999996 27 -2.6272 24"/><path d="M76.9672 18l3.1424000000000003 24 -3.8040000000000003 20 3.3536 27 -2.6256000000000004 24"/></g><g transform="translate(256)" fill="none" stroke="#74b94f" stroke-width="5" stroke-linecap="round" stroke-linejoin="round" opacity="0.74"><path d="M76.7296 18l3.1456 24 -3.799999999999999 20 3.3568 27 -2.6288 24"/><path d="M76.73679999999999 18l3.1471999999999998 24 -3.8020000000000014 20 3.3583999999999996 27 -2.6272 24"/><path d="M76.744 18l3.1424000000000003 24 -3.8040000000000003 20 3.3536 27 -2.6256000000000004 24"/><path d="M76.75120000000001 18l3.144 24 -3.806000000000001 20 3.3552 27 -2.6240000000000006 24"/></g><g transform="translate(384)" fill="none" stroke="#74b94f" stroke-width="6" stroke-linecap="round" stroke-linejoin="round" opacity="0.86"><path d="M76.5064 18l3.1456 24 -3.799999999999999 20 3.3568 27 -2.6288 24"/><path d="M76.4992 18l3.1471999999999998 24 -3.8020000000000014 20 3.3583999999999996 27 -2.6272 24"/><path d="M76.52080000000001 18l3.1424000000000003 24 -3.8040000000000003 20 3.3536 27 -2.6256000000000004 24"/><path d="M76.5136 18l3.144 24 -3.806000000000001 20 3.3552 27 -2.6240000000000006 24"/><path d="M76.5352 18l3.1392000000000007 24 -3.792 20 3.363200000000001 27 -2.6351999999999993 24"/></g></svg>
