<svg xmlns="http://www.w3.org/2000/svg" width="768" height="1024" viewBox="0 0 768 1024"><rect width="768" height="1024" fill="#2d2b2c"/><rect width="768" height="740" fill="#091827"/><circle cx="521.7792" cy="207.78" r="1" fill="#5c9ad4" opacity=".35"/><circle cx="521.856" cy="207.81" r="2" fill="#5c9ad4" opacity=".35"/><circle cx="521.6256000000001" cy="207.72" r="1" fill="#5c9ad4" opacity=".35"/><circle cx="521.7024" cy="207.75" r="2" fill="#5c9ad4" opacity=".35"/><circle cx="522.0863999999999" cy="207.66000000000003" r="1" fill="#5c9ad4" opacity=".35"/><circle cx="522.1632" cy="207.69" r="2" fill="#5c9ad4" opacity=".35"/><circle cx="521.9328" cy="207.6" r="1" fill="#5c9ad4" opacity=".35"/><circle cx="522.0096" cy="207.63000000000002" r="2" fill="#5c9ad4" opacity=".35"/><circle cx="521.1648" cy="207.54" r="1" fill="#5c9ad4" opacity=".35"/><circle cx="521.2416" cy="207.57" r="2" fill="#5c9ad4" opacity=".35"/><circle cx="519.3984" cy="206.85" r="1" fill="#5c9ad4" opacity=".35"/><circle cx="519.3216" cy="206.82" r="2" fill="#5c9ad4" opacity=".35"/><circle cx="519.2448" cy="206.79000000000002" r="1" fill="#5c9ad4" opacity=".35"/><circle cx="519.168" cy="206.76000000000002" r="2" fill="#5c9ad4" opacity=".35"/><circle cx="519.7056" cy="206.73000000000002" r="1" fill="#5c9ad4" opacity=".35"/><circle cx="519.6288" cy="206.7" r="2" fill="#5c9ad4" opacity=".35"/><circle cx="519.552" cy="206.67" r="1" fill="#5c9ad4" opacity=".35"/><circle cx="519.4752" cy="206.64" r="2" fill="#5c9ad4" opacity=".35"/><circle cx="518.784" cy="206.60999999999999" r="1" fill="#5c9ad4" opacity=".35"/><circle cx="518.7072000000001" cy="206.57999999999998" r="2" fill="#5c9ad4" opacity=".35"/><circle cx="516.7103999999999" cy="205.8" r="1" fill="#5c9ad4" opacity=".35"/><circle cx="516.7872" cy="205.83" r="2" fill="#5c9ad4" opacity=".35"/><circle cx="516.864" cy="205.86" r="1" fill="#5c9ad4" opacity=".35"/><circle cx="516.9408000000001" cy="205.89000000000001" r="2" fill="#5c9ad4" opacity=".35"/><circle cx="517.0176" cy="205.68" r="1" fill="#5c9ad4" opacity=".35"/><circle cx="517.0944" cy="205.70999999999998" r="2" fill="#5c9ad4" opacity=".35"/><circle cx="517.1712" cy="205.73999999999998" r="1" fill="#5c9ad4" opacity=".35"/><circle cx="517.248" cy="205.76999999999998" r="2" fill="#5c9ad4" opacity=".35"/><circle cx="516.096" cy="205.56" r="1" fill="#5c9ad4" opacity=".35"/><circle cx="516.1728" cy="205.59" r="2" fill="#5c9ad4" opacity=".35"/><path d="M-30 650V447.575L-30,447.575 17.9405,447.575V650Z" fill="#13263a" stroke="#07111d" stroke-width="4"/><path d="M36 650V447.6L36,447.6 83.935,447.6V650Z" fill="#101f30" stroke="#07111d" stroke-width="4"/><path d="M102 650V447.525L102,447.525 149.92950000000002,447.525V650Z" fill="#13263a" stroke="#07111d" stroke-width="4"/><path d="M168 650V447.55L168,447.55 215.924,447.55V650Z" fill="#101f30" stroke="#07111d" stroke-width="4"/><path d="M234 650V447.475L234,447.475 281.9625,447.475V650Z" fill="#13263a" stroke="#07111d" stroke-width="4"/><path d="M300 650V447.5L300,447.5 347.957,447.5V650Z" fill="#101f30" stroke="#07111d" stroke-width="4"/><path d="M366 650V447.425L366,447.425 413.9515,447.425V650Z" fill="#13263a" stroke="#07111d" stroke-width="4"/><path d="M432 650V447.45L432,447.45 479.946,447.45V650Z" fill="#101f30" stroke="#07111d" stroke-width="4"/><path d="M498 650V447.775L498,447.775 545.8965000000001,447.775V650Z" fill="#13263a" stroke="#07111d" stroke-width="4"/><path d="M564 650V447.8L564,447.8 611.891,447.8V650Z" fill="#101f30" stroke="#07111d" stroke-width="4"/><path d="M630 650V450L630,450 689.463,450V650Z" fill="#13263a" stroke="#07111d" stroke-width="4"/><path d="M696 650V449.975L696,449.975 755.4685,449.975V650Z" fill="#101f30" stroke="#07111d" stroke-width="4"/><path d="M762 650V449.95L762,449.95 821.452,449.95V650Z" fill="#13263a" stroke="#07111d" stroke-width="4"/><rect x="336.656" y="397.56399999999996" width="4" height="8" rx="2" fill="#d7a15f" opacity=".55"/><rect x="336.728" y="397.528" width="4" height="8" rx="2" fill="#5c9ad4" opacity=".55"/><rect x="336.512" y="397.49199999999996" width="4" height="8" rx="2" fill="#5c9ad4" opacity=".55"/><rect x="336.584" y="397.456" width="4" height="8" rx="2" fill="#d7a15f" opacity=".55"/><rect x="336.368" y="397.70799999999997" width="4" height="8" rx="2" fill="#5c9ad4" opacity=".55"/><rect x="336.44" y="397.672" width="4" height="8" rx="2" fill="#5c9ad4" opacity=".55"/><rect x="336.224" y="397.63599999999997" width="4" height="8" rx="2" fill="#d7a15f" opacity=".55"/><rect x="336.296" y="397.6" width="4" height="8" rx="2" fill="#5c9ad4" opacity=".55"/><rect x="336.08" y="397.852" width="4" height="8" rx="2" fill="#5c9ad4" opacity=".55"/><rect x="336.152" y="397.81600000000003" width="4" height="8" rx="2" fill="#d7a15f" opacity=".55"/><rect x="338.88800000000003" y="394.072" width="4" height="8" rx="2" fill="#5c9ad4" opacity=".55"/><rect x="338.81600000000003" y="394.108" width="4" height="8" rx="2" fill="#5c9ad4" opacity=".55"/><rect x="339.032" y="394" width="4" height="8" rx="2" fill="#d7a15f" opacity=".55"/><rect x="338.96" y="394.036" width="4" height="8" rx="2" fill="#5c9ad4" opacity=".55"/><rect x="338.6" y="394.216" width="4" height="8" rx="2" fill="#5c9ad4" opacity=".55"/><rect x="338.528" y="394.252" width="4" height="8" rx="2" fill="#d7a15f" opacity=".55"/><rect x="338.74399999999997" y="394.144" width="4" height="8" rx="2" fill="#5c9ad4" opacity=".55"/><rect x="338.67199999999997" y="394.18" width="4" height="8" rx="2" fill="#5c9ad4" opacity=".55"/><path d="M40 620H728M190 550h390M310 480h150" stroke="#5c9ad4" stroke-width="4" opacity=".55"/><path d="M620 310l55 30-55 30z" fill="none" stroke="#d7a15f" stroke-width="6"/><g id="apn-editorial-motifs">
    <g id="billboard" fill="#102033" stroke="#07111d" stroke-width="5">
      <path d="M42 300h132v86H42zM594 344h124v78H594z"/>
      <path d="M59 320h66M59 340h92M611 365h78M611 385h52" fill="none" stroke="#5c9ad4" stroke-width="5" opacity=".7"/>
      <path d="M145 316h13v13h-13zM688 397h13v13h-13z" fill="#d7a15f" stroke="none"/>
    </g>
    <g id="signal-rail" fill="none" stroke-linecap="round">
      <path d="M0 528H768" stroke="#07111d" stroke-width="12"/>
      <path d="M0 528H768" stroke="#5c9ad4" stroke-width="4" opacity=".65"/>
      <path d="M92 512v32M270 512v32M498 512v32M680 512v32" stroke="#d7a15f" stroke-width="4"/>
    </g>
    <path id="patchline" d="M0 606h178l28-24h176l30 24h356" fill="none" stroke="#d7a15f" stroke-width="5" opacity=".72"/>
    <g id="archive-lights" fill="#5c9ad4">
      <circle cx="84" cy="606" r="5"/><circle cx="218" cy="582" r="5"/><circle cx="396" cy="594" r="5"/><circle cx="554" cy="606" r="5"/><circle cx="704" cy="606" r="5"/>
    </g>
  </g><path d="M0 705H768V1024H0Z" fill="#0b1825"/><path d="M0 730H768" stroke="#5c9ad4" stroke-width="4" opacity=".5"/><path d="M0 855H768M80 730V1024M250 730V1024M518 730V1024M688 730V1024" stroke="#1d3548" stroke-width="3"/><ellipse cx="590" cy="775" rx="110" ry="28" fill="#03070d" opacity=".6"/><path d="M0 712H768" stroke="#d7a15f" stroke-width="3" opacity=".35"/></svg>
