<svg xmlns="http://www.w3.org/2000/svg" width="512" height="128" viewBox="0 0 512 128"><g transform="translate(0)" fill="none" stroke="#5c9ad4" stroke-width="3" stroke-linecap="round" stroke-linejoin="round" opacity="0.5"><path d="M43.6312 18l-0.8079999999999998 24 1.1419999999999995 20 -1.4416000000000002 27 -2.8704 24"/><path d="M43.624 18l-0.8095999999999997 24 1.1440000000000001 20 -1.4432 27 -2.872 24"/></g><g transform="translate(128)" fill="none" stroke="#5c9ad4" stroke-width="4" stroke-linecap="round" stroke-linejoin="round" opacity="0.62"><path d="M58.715199999999996 18l-0.8079999999999998 24 1.1419999999999995 20 -1.4416000000000002 27 -2.8704 24"/><path d="M58.7224 18l-0.8095999999999997 24 1.1440000000000001 20 -1.4432 27 -2.872 24"/><path d="M58.7008 18l-0.8112000000000004 24 1.138 20 -1.4447999999999999 27 -2.8672000000000004 24"/></g><g transform="translate(256)" fill="none" stroke="#d7a15f" stroke-width="5" stroke-linecap="round" stroke-linejoin="round" opacity="0.74"><path d="M58.9384 18l-0.8079999999999998 24 1.1419999999999995 20 -1.4416000000000002 27 -2.8704 24"/><path d="M58.9312 18l-0.8095999999999997 24 1.1440000000000001 20 -1.4432 27 -2.872 24"/><path d="M58.952799999999996 18l-0.8112000000000004 24 1.138 20 -1.4447999999999999 27 -2.8672000000000004 24"/><path d="M58.9456 18l-0.8128000000000002 24 1.1400000000000006 20 -1.4463999999999997 27 -2.8688000000000002 24"/></g><g transform="translate(384)" fill="none" stroke="#d7a15f" stroke-width="6" stroke-linecap="round" stroke-linejoin="round" opacity="0.86"><path d="M58.239999999999995 18l-0.8079999999999998 24 1.1419999999999995 20 -1.4416000000000002 27 -2.8704 24"/><path d="M58.2472 18l-0.8095999999999997 24 1.1440000000000001 20 -1.4432 27 -2.872 24"/><path d="M58.254400000000004 18l-0.8112000000000004 24 1.138 20 -1.4447999999999999 27 -2.8672000000000004 24"/><path d="M58.2616 18l-0.8128000000000002 24 1.1400000000000006 20 -1.4463999999999997 27 -2.8688000000000002 24"/><path d="M58.2688 18l-0.8144 24 1.1500000000000004 20 -1.4352 27 -2.8767999999999994 24"/></g></svg>
