<svg xmlns="http://www.w3.org/2000/svg" width="896" height="128" viewBox="0 0 896 128"><g transform="translate(0 7) scale(0.86) translate(8 0)"><ellipse cx="64" cy="118" rx="42" ry="8" fill="#03070d" opacity=".75"/><g fill="#d7a15f" stroke="#07111d" stroke-width="6" stroke-linecap="round" stroke-linejoin="round"><circle cx="64" cy="29" r="17"/><path d="M47 48Q64 38 81 48L78 91H50Z"/><path d="M51 86L39 116M77 86l13 30M51 58L28 78M77 58l23 20" fill="none"/></g><path d="M83 59l23 22" fill="none" stroke="#5c9ad4" stroke-width="7"/><path d="M50 48h28" stroke="#5c9ad4" stroke-width="5"/></g><g transform="translate(128 7) scale(0.86) translate(8 0)"><ellipse cx="64" cy="118" rx="42" ry="8" fill="#03070d" opacity=".75"/><g fill="#d7a15f" stroke="#07111d" stroke-width="6" stroke-linecap="round" stroke-linejoin="round"><circle cx="64" cy="29" r="17"/><path d="M47 48Q64 38 81 48L78 91H50Z"/><path d="M51 86L39 116M77 86l13 30M51 58L28 78M77 58l23 20" fill="none"/></g><path d="M88 52l21 10-5 32-23 8z" fill="#5c9ad4"/><path d="M50 48h28" stroke="#5c9ad4" stroke-width="5"/></g><g transform="translate(256 7) scale(0.86) translate(8 0)"><ellipse cx="64" cy="118" rx="42" ry="8" fill="#03070d" opacity=".75"/><g fill="#d7a15f" stroke="#07111d" stroke-width="6" stroke-linecap="round" stroke-linejoin="round"><circle cx="64" cy="29" r="17"/><path d="M47 48Q64 38 81 48L78 91H50Z"/><path d="M51 86L39 116M77 86l13 30M51 58L28 78M77 58l23 20" fill="none"/></g><path d="M72 58l37-18M88 49l10 12" fill="none" stroke="#5c9ad4" stroke-width="7"/><path d="M50 48h28" stroke="#5c9ad4" stroke-width="5"/></g><g transform="translate(384 7) scale(0.86) translate(8 0)"><ellipse cx="64" cy="118" rx="42" ry="8" fill="#03070d" opacity=".75"/><g fill="#d7a15f" stroke="#07111d" stroke-width="6" stroke-linecap="round" stroke-linejoin="round"><circle cx="64" cy="29" r="17"/><path d="M47 48Q64 38 81 48L78 91H50Z"/><path d="M51 86L39 116M77 86l13 30M51 58L28 78M77 58l23 20" fill="none"/></g><path d="M83 59l23 22" fill="none" stroke="#5c9ad4" stroke-width="7"/><path d="M50 48h28" stroke="#5c9ad4" stroke-width="5"/></g><g transform="translate(512 8) scale(0.82) translate(14 14)"><ellipse cx="64" cy="116" rx="52" ry="8" fill="#03070d" opacity=".75"/><g fill="#d7a15f" stroke="#07111d" stroke-width="6" stroke-linecap="round" stroke-linejoin="round"><path d="M20 75l14-27h50l25 23v25H17Z"/><path d="M42 50l11-18h30l17 39"/><circle cx="39" cy="98" r="14"/><circle cx="91" cy="98" r="14"/></g><circle cx="64" cy="67" r="8" fill="#5c9ad4" stroke="#07111d" stroke-width="4"/></g><g transform="translate(640 7) scale(1.12) translate(-7 0)"><ellipse cx="64" cy="118" rx="42" ry="8" fill="#03070d" opacity=".75"/><g fill="#d7a15f" stroke="#07111d" stroke-width="7" stroke-linecap="round" stroke-linejoin="round"><circle cx="64" cy="29" r="17"/><path d="M41 48Q64 38 87 48L86 91H42Z"/><path d="M51 86L39 116M77 86l13 30M51 58L28 78M77 58l23 20" fill="none"/></g><path d="M83 59l23 22" fill="none" stroke="#5c9ad4" stroke-width="7"/><path d="M50 48h28" stroke="#5c9ad4" stroke-width="5"/></g><g transform="translate(768 7) scale(1.12) translate(-7 0)"><ellipse cx="64" cy="118" rx="42" ry="8" fill="#03070d" opacity=".75"/><g fill="#5c9ad4" stroke="#07111d" stroke-width="7" stroke-linecap="round" stroke-linejoin="round"><circle cx="64" cy="29" r="17"/><path d="M41 48Q64 38 87 48L86 91H42Z"/><path d="M51 86L39 116M77 86l13 30M51 58L28 78M77 58l23 20" fill="none"/></g><path d="M83 59l23 22" fill="none" stroke="#5c9ad4" stroke-width="7"/><path d="M50 48h28" stroke="#5c9ad4" stroke-width="5"/><path d="M54 54l13 13-9 14 12 15M78 48l-9 18 14 12" fill="none" stroke="#07111d" stroke-width="4"/></g></svg>
