<svg xmlns="http://www.w3.org/2000/svg" width="768" height="1024" viewBox="0 0 768 1024"><rect width="768" height="1024" fill="#152d27"/><rect width="768" height="740" fill="#091827"/><circle cx="524.8512000000001" cy="208.98" r="1" fill="#58c78f" opacity=".35"/><circle cx="524.928" cy="209.01" r="2" fill="#58c78f" opacity=".35"/><circle cx="524.6976" cy="208.92000000000002" r="1" fill="#58c78f" opacity=".35"/><circle cx="524.7744" cy="208.95" r="2" fill="#58c78f" opacity=".35"/><circle cx="525.1584" cy="208.86" r="1" fill="#58c78f" opacity=".35"/><circle cx="525.2352" cy="208.89000000000001" r="2" fill="#58c78f" opacity=".35"/><circle cx="525.0047999999999" cy="208.79999999999998" r="1" fill="#58c78f" opacity=".35"/><circle cx="525.0816" cy="208.83" r="2" fill="#58c78f" opacity=".35"/><circle cx="525.4656" cy="209.22" r="1" fill="#58c78f" opacity=".35"/><circle cx="525.5424" cy="209.25" r="2" fill="#58c78f" opacity=".35"/><circle cx="522.4704" cy="208.05" r="1" fill="#58c78f" opacity=".35"/><circle cx="522.3936" cy="208.02" r="2" fill="#58c78f" opacity=".35"/><circle cx="522.3168000000001" cy="207.99" r="1" fill="#58c78f" opacity=".35"/><circle cx="522.24" cy="207.96" r="2" fill="#58c78f" opacity=".35"/><circle cx="522.7776" cy="207.93" r="1" fill="#58c78f" opacity=".35"/><circle cx="522.7008" cy="207.89999999999998" r="2" fill="#58c78f" opacity=".35"/><circle cx="522.624" cy="207.86999999999998" r="1" fill="#58c78f" opacity=".35"/><circle cx="522.5472" cy="207.84" r="2" fill="#58c78f" opacity=".35"/><circle cx="523.0848000000001" cy="208.29000000000002" r="1" fill="#58c78f" opacity=".35"/><circle cx="523.008" cy="208.26000000000002" r="2" fill="#58c78f" opacity=".35"/><circle cx="519.7823999999999" cy="206.99999999999997" r="1" fill="#58c78f" opacity=".35"/><circle cx="519.8592" cy="207.03" r="2" fill="#58c78f" opacity=".35"/><circle cx="519.936" cy="207.06" r="1" fill="#58c78f" opacity=".35"/><circle cx="520.0128" cy="207.09" r="2" fill="#58c78f" opacity=".35"/><circle cx="520.0896" cy="206.88" r="1" fill="#58c78f" opacity=".35"/><circle cx="520.1664000000001" cy="206.91" r="2" fill="#58c78f" opacity=".35"/><circle cx="520.2432" cy="206.94" r="1" fill="#58c78f" opacity=".35"/><circle cx="520.3199999999999" cy="206.97" r="2" fill="#58c78f" opacity=".35"/><circle cx="520.3968" cy="207.23999999999998" r="1" fill="#58c78f" opacity=".35"/><circle cx="520.4736" cy="207.26999999999998" r="2" fill="#58c78f" opacity=".35"/><path d="M-30 650V467.775L-30,467.775 41.04050000000001,467.775V650Z" fill="#13263a" stroke="#07111d" stroke-width="4"/><path d="M36 650V467.8L36,467.8 107.035,467.8V650Z" fill="#101f30" stroke="#07111d" stroke-width="4"/><path d="M102 650V467.725L102,467.725 173.02949999999998,467.725V650Z" fill="#13263a" stroke="#07111d" stroke-width="4"/><path d="M168 650V467.75L168,467.75 239.024,467.75V650Z" fill="#101f30" stroke="#07111d" stroke-width="4"/><path d="M234 650V467.675L234,467.675 305.0625,467.675V650Z" fill="#13263a" stroke="#07111d" stroke-width="4"/><path d="M300 650V467.7L300,467.7 371.057,467.7V650Z" fill="#101f30" stroke="#07111d" stroke-width="4"/><path d="M366 650V467.625L366,467.625 437.05150000000003,467.625V650Z" fill="#13263a" stroke="#07111d" stroke-width="4"/><path d="M432 650V467.65L432,467.65 503.046,467.65V650Z" fill="#101f30" stroke="#07111d" stroke-width="4"/><path d="M498 650V467.575L498,467.575 569.0844999999999,467.575V650Z" fill="#13263a" stroke="#07111d" stroke-width="4"/><path d="M564 650V467.6L564,467.6 635.079,467.6V650Z" fill="#101f30" stroke="#07111d" stroke-width="4"/><path d="M630 650V470.2L630,470.2 685.019,470.2V650Z" fill="#13263a" stroke="#07111d" stroke-width="4"/><path d="M696 650V470.175L696,470.175 751.0245,470.175V650Z" fill="#101f30" stroke="#07111d" stroke-width="4"/><path d="M762 650V470.15L762,470.15 817.008,470.15V650Z" fill="#13263a" stroke="#07111d" stroke-width="4"/><rect x="278.48" y="387.48400000000004" width="4" height="8" rx="2" fill="#d8b656" opacity=".55"/><rect x="278.55199999999996" y="387.448" width="4" height="8" rx="2" fill="#58c78f" opacity=".55"/><rect x="278.336" y="387.41200000000003" width="4" height="8" rx="2" fill="#58c78f" opacity=".55"/><rect x="278.408" y="387.376" width="4" height="8" rx="2" fill="#d8b656" opacity=".55"/><rect x="278.192" y="387.628" width="4" height="8" rx="2" fill="#58c78f" opacity=".55"/><rect x="278.264" y="387.592" width="4" height="8" rx="2" fill="#58c78f" opacity=".55"/><rect x="278.048" y="387.55600000000004" width="4" height="8" rx="2" fill="#d8b656" opacity=".55"/><rect x="278.12" y="387.52" width="4" height="8" rx="2" fill="#58c78f" opacity=".55"/><rect x="279.056" y="387.196" width="4" height="8" rx="2" fill="#58c78f" opacity=".55"/><rect x="279.128" y="387.15999999999997" width="4" height="8" rx="2" fill="#d8b656" opacity=".55"/><rect x="280.712" y="383.99199999999996" width="4" height="8" rx="2" fill="#58c78f" opacity=".55"/><rect x="280.64" y="384.028" width="4" height="8" rx="2" fill="#58c78f" opacity=".55"/><rect x="280.856" y="383.91999999999996" width="4" height="8" rx="2" fill="#d8b656" opacity=".55"/><rect x="280.784" y="383.956" width="4" height="8" rx="2" fill="#58c78f" opacity=".55"/><rect x="280.42400000000004" y="384.13599999999997" width="4" height="8" rx="2" fill="#58c78f" opacity=".55"/><rect x="280.352" y="384.172" width="4" height="8" rx="2" fill="#d8b656" opacity=".55"/><rect x="280.568" y="384.06399999999996" width="4" height="8" rx="2" fill="#58c78f" opacity=".55"/><rect x="280.496" y="384.1" width="4" height="8" rx="2" fill="#58c78f" opacity=".55"/><path d="M40 520Q384 260 728 520V680H40Z" fill="#14283a" stroke="#07111d" stroke-width="8"/><path d="M80 510Q384 310 688 510" fill="none" stroke="#58c78f" stroke-width="14" stroke-dasharray="6 15"/><path d="M80 660h608" stroke="#d8b656" stroke-width="4"/><g id="apn-editorial-motifs">
    <g id="billboard" fill="#102033" stroke="#07111d" stroke-width="5">
      <path d="M42 300h132v86H42zM594 344h124v78H594z"/>
      <path d="M59 320h66M59 340h92M611 365h78M611 385h52" fill="none" stroke="#58c78f" stroke-width="5" opacity=".7"/>
      <path d="M145 316h13v13h-13zM688 397h13v13h-13z" fill="#d8b656" stroke="none"/>
    </g>
    <g id="signal-rail" fill="none" stroke-linecap="round">
      <path d="M0 528H768" stroke="#07111d" stroke-width="12"/>
      <path d="M0 528H768" stroke="#58c78f" stroke-width="4" opacity=".65"/>
      <path d="M92 512v32M270 512v32M498 512v32M680 512v32" stroke="#d8b656" stroke-width="4"/>
    </g>
    <path id="patchline" d="M0 606h178l28-24h176l30 24h356" fill="none" stroke="#d8b656" stroke-width="5" opacity=".72"/>
    <g id="archive-lights" fill="#58c78f">
      <circle cx="84" cy="606" r="5"/><circle cx="218" cy="582" r="5"/><circle cx="396" cy="594" r="5"/><circle cx="554" cy="606" r="5"/><circle cx="704" cy="606" r="5"/>
    </g>
  </g><path d="M0 705H768V1024H0Z" fill="#0b1825"/><path d="M0 730H768" stroke="#58c78f" stroke-width="4" opacity=".5"/><path d="M0 855H768M80 730V1024M250 730V1024M518 730V1024M688 730V1024" stroke="#1d3548" stroke-width="3"/><ellipse cx="590" cy="775" rx="110" ry="28" fill="#03070d" opacity=".6"/><path d="M0 712H768" stroke="#d8b656" stroke-width="3" opacity=".35"/></svg>
