<svg xmlns="http://www.w3.org/2000/svg" width="512" height="128" viewBox="0 0 512 128"><g transform="translate(0)" fill="none" stroke="#58c78f" stroke-width="3" stroke-linecap="round" stroke-linejoin="round" opacity="0.5"><path d="M73.8712 18l-2.1007999999999996 24 2.758000000000001 20 -1.8895999999999997 27 -2.9344 24"/><path d="M73.864 18l-2.1024000000000003 24 2.76 20 -1.8912000000000004 27 -2.936 24"/></g><g transform="translate(128)" fill="none" stroke="#58c78f" stroke-width="4" stroke-linecap="round" stroke-linejoin="round" opacity="0.62"><path d="M52.8976 18l-2.1007999999999996 24 2.758000000000001 20 -1.8895999999999997 27 -2.9344 24"/><path d="M52.904799999999994 18l-2.1024000000000003 24 2.76 20 -1.8912000000000004 27 -2.936 24"/><path d="M52.8832 18l-2.104 24 2.7539999999999996 20 -1.8928000000000003 27 -2.9312000000000005 24"/></g><g transform="translate(256)" fill="none" stroke="#d8b656" stroke-width="5" stroke-linecap="round" stroke-linejoin="round" opacity="0.74"><path d="M53.1208 18l-2.1007999999999996 24 2.758000000000001 20 -1.8895999999999997 27 -2.9344 24"/><path d="M53.1136 18l-2.1024000000000003 24 2.76 20 -1.8912000000000004 27 -2.936 24"/><path d="M53.1352 18l-2.104 24 2.7539999999999996 20 -1.8928000000000003 27 -2.9312000000000005 24"/><path d="M53.128 18l-2.1056 24 2.7559999999999993 20 -1.8944 27 -2.9328000000000003 24"/></g><g transform="translate(384)" fill="none" stroke="#d8b656" stroke-width="6" stroke-linecap="round" stroke-linejoin="round" opacity="0.86"><path d="M52.422399999999996 18l-2.1007999999999996 24 2.758000000000001 20 -1.8895999999999997 27 -2.9344 24"/><path d="M52.4296 18l-2.1024000000000003 24 2.76 20 -1.8912000000000004 27 -2.936 24"/><path d="M52.4368 18l-2.104 24 2.7539999999999996 20 -1.8928000000000003 27 -2.9312000000000005 24"/><path d="M52.444 18l-2.1056 24 2.7559999999999993 20 -1.8944 27 -2.9328000000000003 24"/><path d="M52.4512 18l-2.1071999999999997 24 2.766 20 -1.8832000000000004 27 -2.9407999999999994 24"/></g></svg>
