<svg xmlns="http://www.w3.org/2000/svg" width="768" height="1024" viewBox="0 0 768 1024"><rect width="768" height="1024" fill="#252636"/><rect width="768" height="740" fill="#091827"/><circle cx="484.07039999999995" cy="185.13" r="1" fill="#65b79a" opacity=".35"/><circle cx="483.9936" cy="185.1" r="2" fill="#65b79a" opacity=".35"/><circle cx="483.91679999999997" cy="185.07" r="1" fill="#65b79a" opacity=".35"/><circle cx="483.84000000000003" cy="185.04" r="2" fill="#65b79a" opacity=".35"/><circle cx="483.7632" cy="185.25000000000003" r="1" fill="#65b79a" opacity=".35"/><circle cx="483.68640000000005" cy="185.21999999999997" r="2" fill="#65b79a" opacity=".35"/><circle cx="483.6096" cy="185.19" r="1" fill="#65b79a" opacity=".35"/><circle cx="483.53280000000007" cy="185.16" r="2" fill="#65b79a" opacity=".35"/><circle cx="483.45599999999996" cy="184.89" r="1" fill="#65b79a" opacity=".35"/><circle cx="483.37919999999997" cy="184.85999999999999" r="2" fill="#65b79a" opacity=".35"/><circle cx="476.62080000000003" cy="182.22000000000003" r="1" fill="#65b79a" opacity=".35"/><circle cx="476.6976" cy="182.25" r="2" fill="#65b79a" opacity=".35"/><circle cx="476.46719999999993" cy="182.16" r="1" fill="#65b79a" opacity=".35"/><circle cx="476.54400000000004" cy="182.19" r="2" fill="#65b79a" opacity=".35"/><circle cx="476.31359999999995" cy="182.34" r="1" fill="#65b79a" opacity=".35"/><circle cx="476.3904" cy="182.37" r="2" fill="#65b79a" opacity=".35"/><circle cx="476.15999999999997" cy="182.28" r="1" fill="#65b79a" opacity=".35"/><circle cx="476.2368" cy="182.31" r="2" fill="#65b79a" opacity=".35"/><circle cx="476.0064" cy="181.98000000000002" r="1" fill="#65b79a" opacity=".35"/><circle cx="476.08320000000003" cy="182.01" r="2" fill="#65b79a" opacity=".35"/><circle cx="479.00160000000005" cy="183.15" r="1" fill="#65b79a" opacity=".35"/><circle cx="478.9248" cy="183.12" r="2" fill="#65b79a" opacity=".35"/><circle cx="479.15520000000004" cy="183.21" r="1" fill="#65b79a" opacity=".35"/><circle cx="479.0784" cy="183.18" r="2" fill="#65b79a" opacity=".35"/><circle cx="478.6944" cy="183.27" r="1" fill="#65b79a" opacity=".35"/><circle cx="478.6176" cy="183.24" r="2" fill="#65b79a" opacity=".35"/><circle cx="478.84800000000007" cy="183.32999999999998" r="1" fill="#65b79a" opacity=".35"/><circle cx="478.77119999999996" cy="183.29999999999998" r="2" fill="#65b79a" opacity=".35"/><circle cx="478.3872" cy="182.91" r="1" fill="#65b79a" opacity=".35"/><circle cx="478.3104" cy="182.88" r="2" fill="#65b79a" opacity=".35"/><path d="M-30 650V423.9L-30,423.9 38.461,423.9V650Z" fill="#13263a" stroke="#07111d" stroke-width="4"/><path d="M36 650V423.875L36,423.875 104.4665,423.875V650Z" fill="#101f30" stroke="#07111d" stroke-width="4"/><path d="M102 650V423.85L102,423.85 170.45,423.85V650Z" fill="#13263a" stroke="#07111d" stroke-width="4"/><path d="M168 650V423.825L168,423.825 236.4555,423.825V650Z" fill="#101f30" stroke="#07111d" stroke-width="4"/><path d="M234 650V424L234,424 302.43899999999996,424V650Z" fill="#13263a" stroke="#07111d" stroke-width="4"/><path d="M300 650V423.975L300,423.975 368.4445,423.975V650Z" fill="#101f30" stroke="#07111d" stroke-width="4"/><path d="M366 650V423.95L366,423.95 434.428,423.95V650Z" fill="#13263a" stroke="#07111d" stroke-width="4"/><path d="M432 650V423.925L432,423.925 500.4335,423.925V650Z" fill="#101f30" stroke="#07111d" stroke-width="4"/><path d="M498 650V424.1L498,424.1 566.417,424.1V650Z" fill="#13263a" stroke="#07111d" stroke-width="4"/><path d="M564 650V424.075L564,424.075 632.4225,424.075V650Z" fill="#101f30" stroke="#07111d" stroke-width="4"/><path d="M630 650V421.475L630,421.475 695.7385,421.475V650Z" fill="#13263a" stroke="#07111d" stroke-width="4"/><path d="M696 650V421.5L696,421.5 761.733,421.5V650Z" fill="#101f30" stroke="#07111d" stroke-width="4"/><path d="M762 650V421.425L762,421.425 827.7275,421.425V650Z" fill="#13263a" stroke="#07111d" stroke-width="4"/><rect x="399.79999999999995" y="431.656" width="4" height="8" rx="2" fill="#d35f74" opacity=".55"/><rect x="399.728" y="431.692" width="4" height="8" rx="2" fill="#65b79a" opacity=".55"/><rect x="399.656" y="431.58399999999995" width="4" height="8" rx="2" fill="#65b79a" opacity=".55"/><rect x="399.584" y="431.62" width="4" height="8" rx="2" fill="#d35f74" opacity=".55"/><rect x="400.088" y="431.512" width="4" height="8" rx="2" fill="#65b79a" opacity=".55"/><rect x="400.016" y="431.548" width="4" height="8" rx="2" fill="#65b79a" opacity=".55"/><rect x="399.94399999999996" y="431.44" width="4" height="8" rx="2" fill="#d35f74" opacity=".55"/><rect x="399.87199999999996" y="431.476" width="4" height="8" rx="2" fill="#65b79a" opacity=".55"/><rect x="399.22399999999993" y="431.94399999999996" width="4" height="8" rx="2" fill="#65b79a" opacity=".55"/><rect x="399.152" y="431.98" width="4" height="8" rx="2" fill="#d35f74" opacity=".55"/><rect x="388.06399999999996" y="435.148" width="4" height="8" rx="2" fill="#65b79a" opacity=".55"/><rect x="388.13599999999997" y="435.11199999999997" width="4" height="8" rx="2" fill="#65b79a" opacity=".55"/><rect x="388.20799999999997" y="435.076" width="4" height="8" rx="2" fill="#d35f74" opacity=".55"/><rect x="388.28" y="435.03999999999996" width="4" height="8" rx="2" fill="#65b79a" opacity=".55"/><rect x="388.35200000000003" y="435.004" width="4" height="8" rx="2" fill="#65b79a" opacity=".55"/><rect x="388.42400000000004" y="434.968" width="4" height="8" rx="2" fill="#d35f74" opacity=".55"/><rect x="388.49600000000004" y="434.932" width="4" height="8" rx="2" fill="#65b79a" opacity=".55"/><rect x="388.56800000000004" y="434.89599999999996" width="4" height="8" rx="2" fill="#65b79a" opacity=".55"/><path d="M80 650v-270h250v270M440 650V300h250v350" fill="#18263a" stroke="#07111d" stroke-width="7"/><circle cx="565" cy="500" r="82" fill="none" stroke="#d35f74" stroke-width="10"/><circle cx="565" cy="500" r="22" fill="none" stroke="#65b79a" stroke-width="6"/><g id="apn-editorial-motifs">
    <g id="billboard" fill="#102033" stroke="#07111d" stroke-width="5">
      <path d="M42 300h132v86H42zM594 344h124v78H594z"/>
      <path d="M59 320h66M59 340h92M611 365h78M611 385h52" fill="none" stroke="#65b79a" stroke-width="5" opacity=".7"/>
      <path d="M145 316h13v13h-13zM688 397h13v13h-13z" fill="#d35f74" stroke="none"/>
    </g>
    <g id="signal-rail" fill="none" stroke-linecap="round">
      <path d="M0 528H768" stroke="#07111d" stroke-width="12"/>
      <path d="M0 528H768" stroke="#65b79a" stroke-width="4" opacity=".65"/>
      <path d="M92 512v32M270 512v32M498 512v32M680 512v32" stroke="#d35f74" stroke-width="4"/>
    </g>
    <path id="patchline" d="M0 606h178l28-24h176l30 24h356" fill="none" stroke="#d35f74" stroke-width="5" opacity=".72"/>
    <g id="archive-lights" fill="#65b79a">
      <circle cx="84" cy="606" r="5"/><circle cx="218" cy="582" r="5"/><circle cx="396" cy="594" r="5"/><circle cx="554" cy="606" r="5"/><circle cx="704" cy="606" r="5"/>
    </g>
  </g><path d="M0 705H768V1024H0Z" fill="#0b1825"/><path d="M0 730H768" stroke="#65b79a" stroke-width="4" opacity=".5"/><path d="M0 855H768M80 730V1024M250 730V1024M518 730V1024M688 730V1024" stroke="#1d3548" stroke-width="3"/><ellipse cx="590" cy="775" rx="110" ry="28" fill="#03070d" opacity=".6"/><path d="M0 712H768" stroke="#d35f74" stroke-width="3" opacity=".35"/></svg>
