<svg xmlns="http://www.w3.org/2000/svg" width="512" height="128" viewBox="0 0 512 128"><g transform="translate(0)" fill="none" stroke="#65b79a" stroke-width="3" stroke-linecap="round" stroke-linejoin="round" opacity="0.5"><path d="M70.4944 18l0.2848000000000006 24 -0.2240000000000002 20 0.07360000000000078 27 -2.0847999999999995 24"/><path d="M70.5016 18l0.28640000000000043 24 -0.2259999999999991 20 0.0752000000000006 27 -2.0831999999999997 24"/></g><g transform="translate(128)" fill="none" stroke="#65b79a" stroke-width="4" stroke-linecap="round" stroke-linejoin="round" opacity="0.62"><path d="M66.93039999999999 18l0.2848000000000006 24 -0.2240000000000002 20 0.07360000000000078 27 -2.0847999999999995 24"/><path d="M66.9232 18l0.28640000000000043 24 -0.2259999999999991 20 0.0752000000000006 27 -2.0831999999999997 24"/><path d="M66.916 18l0.2815999999999992 24 -0.22799999999999976 20 0.07039999999999935 27 -2.0816 24"/></g><g transform="translate(256)" fill="none" stroke="#d35f74" stroke-width="5" stroke-linecap="round" stroke-linejoin="round" opacity="0.74"><path d="M65.7568 18l0.2848000000000006 24 -0.2240000000000002 20 0.07360000000000078 27 -2.0847999999999995 24"/><path d="M65.764 18l0.28640000000000043 24 -0.2259999999999991 20 0.0752000000000006 27 -2.0831999999999997 24"/><path d="M65.7712 18l0.2815999999999992 24 -0.22799999999999976 20 0.07039999999999935 27 -2.0816 24"/><path d="M65.7784 18l0.2832000000000008 24 -0.22999999999999865 20 0.07199999999999918 27 -2.08 24"/></g><g transform="translate(384)" fill="none" stroke="#d35f74" stroke-width="6" stroke-linecap="round" stroke-linejoin="round" opacity="0.86"><path d="M66.4552 18l0.2848000000000006 24 -0.2240000000000002 20 0.07360000000000078 27 -2.0847999999999995 24"/><path d="M66.44800000000001 18l0.28640000000000043 24 -0.2259999999999991 20 0.0752000000000006 27 -2.0831999999999997 24"/><path d="M66.4696 18l0.2815999999999992 24 -0.22799999999999976 20 0.07039999999999935 27 -2.0816 24"/><path d="M66.4624 18l0.2832000000000008 24 -0.22999999999999865 20 0.07199999999999918 27 -2.08 24"/><path d="M66.4264 18l0.2911999999999999 24 -0.2320000000000011 20 0.0671999999999997 27 -2.0784000000000002 24"/></g></svg>
