<svg xmlns="http://www.w3.org/2000/svg" width="768" height="1024" viewBox="0 0 768 1024"><rect width="768" height="1024" fill="#1e2d43"/><rect width="768" height="740" fill="#091827"/><circle cx="583.9104" cy="232.04999999999998" r="1" fill="#7b58b8" opacity=".35"/><circle cx="583.8335999999999" cy="232.01999999999998" r="2" fill="#7b58b8" opacity=".35"/><circle cx="583.7568" cy="231.99" r="1" fill="#7b58b8" opacity=".35"/><circle cx="583.6800000000001" cy="231.96" r="2" fill="#7b58b8" opacity=".35"/><circle cx="584.2176000000001" cy="231.93" r="1" fill="#7b58b8" opacity=".35"/><circle cx="584.1408" cy="231.9" r="2" fill="#7b58b8" opacity=".35"/><circle cx="584.064" cy="231.87" r="1" fill="#7b58b8" opacity=".35"/><circle cx="583.9872" cy="231.84" r="2" fill="#7b58b8" opacity=".35"/><circle cx="584.5248" cy="232.29" r="1" fill="#7b58b8" opacity=".35"/><circle cx="584.448" cy="232.26" r="2" fill="#7b58b8" opacity=".35"/><circle cx="576.4608000000001" cy="229.14000000000001" r="1" fill="#7b58b8" opacity=".35"/><circle cx="576.5376" cy="229.17000000000002" r="2" fill="#7b58b8" opacity=".35"/><circle cx="576.3072" cy="229.07999999999998" r="1" fill="#7b58b8" opacity=".35"/><circle cx="576.384" cy="229.11" r="2" fill="#7b58b8" opacity=".35"/><circle cx="576.768" cy="229.01999999999998" r="1" fill="#7b58b8" opacity=".35"/><circle cx="576.8448" cy="229.04999999999998" r="2" fill="#7b58b8" opacity=".35"/><circle cx="576.6144" cy="228.96" r="1" fill="#7b58b8" opacity=".35"/><circle cx="576.6912" cy="228.98999999999998" r="2" fill="#7b58b8" opacity=".35"/><circle cx="577.0752" cy="229.38" r="1" fill="#7b58b8" opacity=".35"/><circle cx="577.1519999999999" cy="229.41000000000003" r="2" fill="#7b58b8" opacity=".35"/><circle cx="578.8416" cy="230.07000000000002" r="1" fill="#7b58b8" opacity=".35"/><circle cx="578.7648" cy="230.04000000000002" r="2" fill="#7b58b8" opacity=".35"/><circle cx="578.9952000000001" cy="230.13" r="1" fill="#7b58b8" opacity=".35"/><circle cx="578.9184" cy="230.1" r="2" fill="#7b58b8" opacity=".35"/><circle cx="579.1487999999999" cy="229.95" r="1" fill="#7b58b8" opacity=".35"/><circle cx="579.072" cy="229.92" r="2" fill="#7b58b8" opacity=".35"/><circle cx="579.3024" cy="230.01000000000002" r="1" fill="#7b58b8" opacity=".35"/><circle cx="579.2256" cy="229.98" r="2" fill="#7b58b8" opacity=".35"/><circle cx="579.4559999999999" cy="230.31" r="1" fill="#7b58b8" opacity=".35"/><circle cx="579.3792" cy="230.27999999999997" r="2" fill="#7b58b8" opacity=".35"/><path d="M-30 650V409L6.397500000000001,364 42.795,409V650Z" fill="#13263a" stroke="#07111d" stroke-width="4"/><path d="M36 650V408.975L72.40025,363.975 108.8005,408.975V650Z" fill="#101f30" stroke="#07111d" stroke-width="4"/><path d="M102 650V408.95L138.392,363.95 174.784,408.95V650Z" fill="#13263a" stroke="#07111d" stroke-width="4"/><path d="M168 650V408.92499999999995L204.39475,363.92499999999995 240.7895,408.92499999999995V650Z" fill="#101f30" stroke="#07111d" stroke-width="4"/><path d="M234 650V408.9L270.4085,363.9 306.817,408.9V650Z" fill="#13263a" stroke="#07111d" stroke-width="4"/><path d="M300 650V408.875L336.41125,363.875 372.8225,408.875V650Z" fill="#101f30" stroke="#07111d" stroke-width="4"/><path d="M366 650V408.85L402.403,363.85 438.806,408.85V650Z" fill="#13263a" stroke="#07111d" stroke-width="4"/><path d="M432 650V408.825L468.40575,363.825 504.8115,408.825V650Z" fill="#101f30" stroke="#07111d" stroke-width="4"/><path d="M498 650V408.8L534.4195,363.8 570.8389999999999,408.8V650Z" fill="#13263a" stroke="#07111d" stroke-width="4"/><path d="M564 650V408.775L600.42225,363.775 636.8445,408.775V650Z" fill="#101f30" stroke="#07111d" stroke-width="4"/><path d="M630 650V406.575L664.50825,361.575 699.0165,406.575V650Z" fill="#13263a" stroke="#07111d" stroke-width="4"/><path d="M696 650V406.6L730.5055,361.6 765.011,406.6V650Z" fill="#101f30" stroke="#07111d" stroke-width="4"/><path d="M762 650V406.525L796.50275,361.525 831.0055,406.525V650Z" fill="#13263a" stroke="#07111d" stroke-width="4"/><rect x="461.72" y="472.12" width="4" height="8" rx="2" fill="#63b8d6" opacity=".55"/><rect x="461.64799999999997" y="472.156" width="4" height="8" rx="2" fill="#7b58b8" opacity=".55"/><rect x="461.57599999999996" y="472.048" width="4" height="8" rx="2" fill="#7b58b8" opacity=".55"/><rect x="461.50399999999996" y="472.084" width="4" height="8" rx="2" fill="#63b8d6" opacity=".55"/><rect x="461.43199999999996" y="472.264" width="4" height="8" rx="2" fill="#7b58b8" opacity=".55"/><rect x="461.36" y="472.3" width="4" height="8" rx="2" fill="#7b58b8" opacity=".55"/><rect x="461.288" y="472.192" width="4" height="8" rx="2" fill="#63b8d6" opacity=".55"/><rect x="461.216" y="472.22799999999995" width="4" height="8" rx="2" fill="#7b58b8" opacity=".55"/><rect x="462.296" y="471.832" width="4" height="8" rx="2" fill="#7b58b8" opacity=".55"/><rect x="462.224" y="471.868" width="4" height="8" rx="2" fill="#63b8d6" opacity=".55"/><rect x="449.984" y="475.612" width="4" height="8" rx="2" fill="#7b58b8" opacity=".55"/><rect x="450.05600000000004" y="475.576" width="4" height="8" rx="2" fill="#7b58b8" opacity=".55"/><rect x="450.12800000000004" y="475.53999999999996" width="4" height="8" rx="2" fill="#63b8d6" opacity=".55"/><rect x="450.20000000000005" y="475.504" width="4" height="8" rx="2" fill="#7b58b8" opacity=".55"/><rect x="449.696" y="475.756" width="4" height="8" rx="2" fill="#7b58b8" opacity=".55"/><rect x="449.768" y="475.72" width="4" height="8" rx="2" fill="#63b8d6" opacity=".55"/><rect x="449.84" y="475.68399999999997" width="4" height="8" rx="2" fill="#7b58b8" opacity=".55"/><rect x="449.912" y="475.648" width="4" height="8" rx="2" fill="#7b58b8" opacity=".55"/><path d="M70 650l80-270 75 270 85-330 90 330 95-250 80 250z" fill="#213955" stroke="#07111d" stroke-width="6"/><path d="M90 610l60-185 22 100M330 570l60-180" fill="none" stroke="#7b58b8" stroke-width="5" opacity=".65"/><g id="apn-editorial-motifs">
    <g id="billboard" fill="#102033" stroke="#07111d" stroke-width="5">
      <path d="M42 300h132v86H42zM594 344h124v78H594z"/>
      <path d="M59 320h66M59 340h92M611 365h78M611 385h52" fill="none" stroke="#7b58b8" stroke-width="5" opacity=".7"/>
      <path d="M145 316h13v13h-13zM688 397h13v13h-13z" fill="#63b8d6" stroke="none"/>
    </g>
    <g id="signal-rail" fill="none" stroke-linecap="round">
      <path d="M0 528H768" stroke="#07111d" stroke-width="12"/>
      <path d="M0 528H768" stroke="#7b58b8" stroke-width="4" opacity=".65"/>
      <path d="M92 512v32M270 512v32M498 512v32M680 512v32" stroke="#63b8d6" stroke-width="4"/>
    </g>
    <path id="patchline" d="M0 606h178l28-24h176l30 24h356" fill="none" stroke="#63b8d6" stroke-width="5" opacity=".72"/>
    <g id="archive-lights" fill="#7b58b8">
      <circle cx="84" cy="606" r="5"/><circle cx="218" cy="582" r="5"/><circle cx="396" cy="594" r="5"/><circle cx="554" cy="606" r="5"/><circle cx="704" cy="606" r="5"/>
    </g>
  </g><path d="M0 705H768V1024H0Z" fill="#0b1825"/><path d="M0 730H768" stroke="#7b58b8" stroke-width="4" opacity=".5"/><path d="M0 855H768M80 730V1024M250 730V1024M518 730V1024M688 730V1024" stroke="#1d3548" stroke-width="3"/><ellipse cx="590" cy="775" rx="110" ry="28" fill="#03070d" opacity=".6"/><path d="M0 712H768" stroke="#63b8d6" stroke-width="3" opacity=".35"/></svg>
