<svg xmlns="http://www.w3.org/2000/svg" width="512" height="128" viewBox="0 0 512 128"><g transform="translate(0)" fill="none" stroke="#7b58b8" stroke-width="3" stroke-linecap="round" stroke-linejoin="round" opacity="0.5"><path d="M76.168 18l1.6608 24 -1.943999999999999 20 1.8719999999999999 27 -4.1648 24"/><path d="M76.1752 18l1.6623999999999999 24 -1.9460000000000015 20 1.8735999999999997 27 -4.1632 24"/></g><g transform="translate(128)" fill="none" stroke="#7b58b8" stroke-width="4" stroke-linecap="round" stroke-linejoin="round" opacity="0.62"><path d="M71.2216 18l1.6608 24 -1.943999999999999 20 1.8719999999999999 27 -4.1648 24"/><path d="M71.2144 18l1.6623999999999999 24 -1.9460000000000015 20 1.8735999999999997 27 -4.1632 24"/><path d="M71.2072 18l1.6576000000000004 24 -1.9480000000000004 20 1.8688000000000002 27 -4.1616 24"/></g><g transform="translate(256)" fill="none" stroke="#63b8d6" stroke-width="5" stroke-linecap="round" stroke-linejoin="round" opacity="0.74"><path d="M70.048 18l1.6608 24 -1.943999999999999 20 1.8719999999999999 27 -4.1648 24"/><path d="M70.0552 18l1.6623999999999999 24 -1.9460000000000015 20 1.8735999999999997 27 -4.1632 24"/><path d="M70.0624 18l1.6576000000000004 24 -1.9480000000000004 20 1.8688000000000002 27 -4.1616 24"/><path d="M70.06960000000001 18l1.6592000000000002 24 -1.950000000000001 20 1.8704 27 -4.16 24"/></g><g transform="translate(384)" fill="none" stroke="#63b8d6" stroke-width="6" stroke-linecap="round" stroke-linejoin="round" opacity="0.86"><path d="M70.7464 18l1.6608 24 -1.943999999999999 20 1.8719999999999999 27 -4.1648 24"/><path d="M70.73920000000001 18l1.6623999999999999 24 -1.9460000000000015 20 1.8735999999999997 27 -4.1632 24"/><path d="M70.76079999999999 18l1.6576000000000004 24 -1.9480000000000004 20 1.8688000000000002 27 -4.1616 24"/><path d="M70.7536 18l1.6592000000000002 24 -1.950000000000001 20 1.8704 27 -4.16 24"/><path d="M70.7752 18l1.6544000000000008 24 -1.936 20 1.8783999999999992 27 -4.171200000000001 24"/></g></svg>
