<svg xmlns="http://www.w3.org/2000/svg" width="896" height="128" viewBox="0 0 896 128"><g transform="translate(0 7) scale(0.78) translate(15 19)"><ellipse cx="64" cy="113" rx="50" ry="8" fill="#03070d" opacity=".75"/><g fill="#63b8d6" stroke="#07111d" stroke-width="6" stroke-linecap="round" stroke-linejoin="round"><path d="M28 78Q5 68 12 47" fill="none"/><path d="M25 73Q30 43 65 43Q101 43 108 76Q101 103 65 105Q33 102 25 73Z"/><path d="M78 48Q102 38 113 58L103 79 82 73Z"/><path d="M42 91l-9 24M60 98l-2 18M84 96l8 20" fill="none"/></g><circle cx="98" cy="56" r="4" fill="#7b58b8"/></g><g transform="translate(128 7) scale(0.78) translate(15 19)"><ellipse cx="64" cy="113" rx="50" ry="8" fill="#03070d" opacity=".75"/><g fill="#63b8d6" stroke="#07111d" stroke-width="6" stroke-linecap="round" stroke-linejoin="round"><path d="M28 78Q5 68 12 47" fill="none"/><path d="M25 73Q30 43 65 43Q101 43 108 76Q101 103 65 105Q33 102 25 73Z"/><path d="M78 48Q102 38 113 58L103 79 82 73Z"/><path d="M42 91l-9 24M60 98l-2 18M84 96l8 20" fill="none"/></g><circle cx="98" cy="56" r="4" fill="#7b58b8"/></g><g transform="translate(256 7) scale(0.86) translate(8 0)"><ellipse cx="64" cy="118" rx="42" ry="8" fill="#03070d" opacity=".75"/><g fill="#63b8d6" stroke="#07111d" stroke-width="6" stroke-linecap="round" stroke-linejoin="round"><circle cx="64" cy="29" r="17"/><path d="M47 48Q64 38 81 48L78 91H50Z"/><path d="M51 86L39 116M77 86l13 30M51 58L28 78M77 58l23 20" fill="none"/></g><path d="M83 59l23 22" fill="none" stroke="#7b58b8" stroke-width="7"/><path d="M50 48h28" stroke="#7b58b8" stroke-width="5"/></g><g transform="translate(384 7) scale(0.86) translate(8 0)"><ellipse cx="64" cy="118" rx="42" ry="8" fill="#03070d" opacity=".75"/><g fill="#63b8d6" stroke="#07111d" stroke-width="7" stroke-linecap="round" stroke-linejoin="round"><circle cx="64" cy="29" r="17"/><path d="M41 48Q64 38 87 48L86 91H42Z"/><path d="M51 86L39 116M77 86l13 30M51 58L28 78M77 58l23 20" fill="none"/></g><path d="M83 59l23 22" fill="none" stroke="#7b58b8" stroke-width="7"/><path d="M50 48h28" stroke="#7b58b8" stroke-width="5"/></g><g transform="translate(512 7) scale(0.86) translate(8 0)"><ellipse cx="64" cy="118" rx="42" ry="8" fill="#03070d" opacity=".75"/><g fill="#63b8d6" stroke="#07111d" stroke-width="6" stroke-linecap="round" stroke-linejoin="round"><circle cx="64" cy="29" r="17"/><path d="M47 48Q64 38 81 48L78 91H50Z"/><path d="M51 86L39 116M77 86l13 30M51 58L28 78M77 58l23 20" fill="none"/></g><path d="M83 59l23 22" fill="none" stroke="#7b58b8" stroke-width="7"/><path d="M50 48h28" stroke="#7b58b8" stroke-width="5"/></g><g transform="translate(640 7) scale(1.12) translate(-7 0)"><ellipse cx="64" cy="118" rx="42" ry="8" fill="#03070d" opacity=".75"/><g fill="#63b8d6" stroke="#07111d" stroke-width="7" stroke-linecap="round" stroke-linejoin="round"><circle cx="64" cy="29" r="17"/><path d="M41 48Q64 38 87 48L86 91H42Z"/><path d="M51 86L39 116M77 86l13 30M51 58L28 78M77 58l23 20" fill="none"/></g><path d="M83 59l23 22" fill="none" stroke="#7b58b8" stroke-width="7"/><path d="M50 48h28" stroke="#7b58b8" stroke-width="5"/></g><g transform="translate(768 7) scale(1.12) translate(-7 0)"><ellipse cx="64" cy="118" rx="42" ry="8" fill="#03070d" opacity=".75"/><g fill="#7b58b8" stroke="#07111d" stroke-width="7" stroke-linecap="round" stroke-linejoin="round"><circle cx="64" cy="29" r="17"/><path d="M41 48Q64 38 87 48L86 91H42Z"/><path d="M51 86L39 116M77 86l13 30M51 58L28 78M77 58l23 20" fill="none"/></g><path d="M83 59l23 22" fill="none" stroke="#7b58b8" stroke-width="7"/><path d="M50 48h28" stroke="#7b58b8" stroke-width="5"/><path d="M54 54l13 13-9 14 12 15M78 48l-9 18 14 12" fill="none" stroke="#07111d" stroke-width="4"/></g></svg>
