<svg xmlns="http://www.w3.org/2000/svg" width="768" height="1024" viewBox="0 0 768 1024"><rect width="768" height="1024" fill="#242924"/><rect width="768" height="740" fill="#091827"/><circle cx="369.5616" cy="140.4" r="1" fill="#6f8069" opacity=".35"/><circle cx="369.6384" cy="140.43" r="2" fill="#6f8069" opacity=".35"/><circle cx="369.7152" cy="140.46" r="1" fill="#6f8069" opacity=".35"/><circle cx="369.792" cy="140.49" r="2" fill="#6f8069" opacity=".35"/><circle cx="369.25440000000003" cy="140.51999999999998" r="1" fill="#6f8069" opacity=".35"/><circle cx="369.33119999999997" cy="140.55" r="2" fill="#6f8069" opacity=".35"/><circle cx="369.408" cy="140.58" r="1" fill="#6f8069" opacity=".35"/><circle cx="369.4848" cy="140.61" r="2" fill="#6f8069" opacity=".35"/><circle cx="368.9472" cy="140.16" r="1" fill="#6f8069" opacity=".35"/><circle cx="369.024" cy="140.19" r="2" fill="#6f8069" opacity=".35"/><circle cx="367.18080000000003" cy="139.47" r="1" fill="#6f8069" opacity=".35"/><circle cx="367.104" cy="139.44" r="2" fill="#6f8069" opacity=".35"/><circle cx="367.3344" cy="139.53" r="1" fill="#6f8069" opacity=".35"/><circle cx="367.2576" cy="139.5" r="2" fill="#6f8069" opacity=".35"/><circle cx="366.8736" cy="139.59" r="1" fill="#6f8069" opacity=".35"/><circle cx="366.7968" cy="139.56" r="2" fill="#6f8069" opacity=".35"/><circle cx="367.0272" cy="139.65" r="1" fill="#6f8069" opacity=".35"/><circle cx="366.9504" cy="139.62" r="2" fill="#6f8069" opacity=".35"/><circle cx="366.5664" cy="139.23" r="1" fill="#6f8069" opacity=".35"/><circle cx="366.4896" cy="139.20000000000002" r="2" fill="#6f8069" opacity=".35"/><circle cx="374.6304" cy="142.38" r="1" fill="#6f8069" opacity=".35"/><circle cx="374.7072" cy="142.41" r="2" fill="#6f8069" opacity=".35"/><circle cx="374.47679999999997" cy="142.32" r="1" fill="#6f8069" opacity=".35"/><circle cx="374.5536" cy="142.35" r="2" fill="#6f8069" opacity=".35"/><circle cx="374.3232" cy="142.5" r="1" fill="#6f8069" opacity=".35"/><circle cx="374.4" cy="142.53" r="2" fill="#6f8069" opacity=".35"/><circle cx="374.1696" cy="142.44" r="1" fill="#6f8069" opacity=".35"/><circle cx="374.2464" cy="142.47" r="2" fill="#6f8069" opacity=".35"/><circle cx="374.01599999999996" cy="142.14" r="1" fill="#6f8069" opacity=".35"/><circle cx="374.0928" cy="142.17" r="2" fill="#6f8069" opacity=".35"/><path d="M-30 650V380.625L-30,380.625 17.951499999999996,380.625V650Z" fill="#13263a" stroke="#07111d" stroke-width="4"/><path d="M36 650V380.65L36,380.65 83.946,380.65V650Z" fill="#101f30" stroke="#07111d" stroke-width="4"/><path d="M102 650V380.67499999999995L102,380.67499999999995 149.9625,380.67499999999995V650Z" fill="#13263a" stroke="#07111d" stroke-width="4"/><path d="M168 650V380.7L168,380.7 215.957,380.7V650Z" fill="#101f30" stroke="#07111d" stroke-width="4"/><path d="M234 650V380.725L234,380.725 281.9295,380.725V650Z" fill="#13263a" stroke="#07111d" stroke-width="4"/><path d="M300 650V380.75L300,380.75 347.924,380.75V650Z" fill="#101f30" stroke="#07111d" stroke-width="4"/><path d="M366 650V380.775L366,380.775 413.9405,380.775V650Z" fill="#13263a" stroke="#07111d" stroke-width="4"/><path d="M432 650V380.8L432,380.8 479.935,380.8V650Z" fill="#101f30" stroke="#07111d" stroke-width="4"/><path d="M498 650V380.82500000000005L498,380.82500000000005 545.9075,380.82500000000005V650Z" fill="#13263a" stroke="#07111d" stroke-width="4"/><path d="M564 650V380.85L564,380.85 611.902,380.85V650Z" fill="#101f30" stroke="#07111d" stroke-width="4"/><path d="M630 650V383.05L630,383.05 703.466,383.05V650Z" fill="#13263a" stroke="#07111d" stroke-width="4"/><path d="M696 650V383.025L696,383.025 769.4715,383.025V650Z" fill="#101f30" stroke="#07111d" stroke-width="4"/><path d="M762 650V383.1L762,383.1 835.477,383.1V650Z" fill="#13263a" stroke="#07111d" stroke-width="4"/><rect x="500.96000000000004" y="489.22" width="4" height="8" rx="2" fill="#a7956e" opacity=".55"/><rect x="501.03200000000004" y="489.18399999999997" width="4" height="8" rx="2" fill="#6f8069" opacity=".55"/><rect x="501.104" y="489.292" width="4" height="8" rx="2" fill="#6f8069" opacity=".55"/><rect x="501.176" y="489.256" width="4" height="8" rx="2" fill="#a7956e" opacity=".55"/><rect x="501.248" y="489.076" width="4" height="8" rx="2" fill="#6f8069" opacity=".55"/><rect x="501.32" y="489.04" width="4" height="8" rx="2" fill="#6f8069" opacity=".55"/><rect x="501.392" y="489.148" width="4" height="8" rx="2" fill="#a7956e" opacity=".55"/><rect x="501.464" y="489.11199999999997" width="4" height="8" rx="2" fill="#6f8069" opacity=".55"/><rect x="500.384" y="489.50800000000004" width="4" height="8" rx="2" fill="#6f8069" opacity=".55"/><rect x="500.456" y="489.472" width="4" height="8" rx="2" fill="#a7956e" opacity=".55"/><rect x="512.696" y="485.728" width="4" height="8" rx="2" fill="#6f8069" opacity=".55"/><rect x="512.624" y="485.764" width="4" height="8" rx="2" fill="#6f8069" opacity=".55"/><rect x="512.552" y="485.8" width="4" height="8" rx="2" fill="#a7956e" opacity=".55"/><rect x="512.48" y="485.836" width="4" height="8" rx="2" fill="#6f8069" opacity=".55"/><rect x="512.9839999999999" y="485.584" width="4" height="8" rx="2" fill="#6f8069" opacity=".55"/><rect x="512.912" y="485.62" width="4" height="8" rx="2" fill="#a7956e" opacity=".55"/><rect x="512.8399999999999" y="485.65599999999995" width="4" height="8" rx="2" fill="#6f8069" opacity=".55"/><rect x="512.768" y="485.692" width="4" height="8" rx="2" fill="#6f8069" opacity=".55"/><path d="M30 650V300h708v350" fill="#1d2830" stroke="#07111d" stroke-width="8"/><path d="M70 350h150v180H70M310 350h150v180H310M550 350h150v180H550" fill="none" stroke="#3b4e53" stroke-width="8"/><path d="M250 280l34-34 34 34M490 280l34-34 34 34" fill="none" stroke="#a7956e" stroke-width="6"/><path d="M0 705H768V1024H0Z" fill="#0b1825"/><path d="M0 730H768" stroke="#6f8069" stroke-width="4" opacity=".5"/><path d="M0 855H768M80 730V1024M250 730V1024M518 730V1024M688 730V1024" stroke="#1d3548" stroke-width="3"/><ellipse cx="590" cy="775" rx="110" ry="28" fill="#03070d" opacity=".6"/><path d="M0 712H768" stroke="#a7956e" stroke-width="3" opacity=".35"/></svg>
