<svg xmlns="http://www.w3.org/2000/svg" width="512" height="128" viewBox="0 0 512 128"><g transform="translate(0)" fill="none" stroke="#6f8069" stroke-width="3" stroke-linecap="round" stroke-linejoin="round" opacity="0.5"><path d="M43.6456 18l2.8431999999999995 24 -3.686 20 2.6319999999999997 27 0.30079999999999973 24"/><path d="M43.638400000000004 18l2.8415999999999997 24 -3.684000000000001 20 2.6304 27 0.2991999999999999 24"/></g><g transform="translate(128)" fill="none" stroke="#6f8069" stroke-width="4" stroke-linecap="round" stroke-linejoin="round" opacity="0.62"><path d="M77.0464 18l2.8431999999999995 24 -3.686 20 2.6319999999999997 27 0.30079999999999973 24"/><path d="M77.0536 18l2.8415999999999997 24 -3.684000000000001 20 2.6304 27 0.2991999999999999 24"/><path d="M77.0608 18l2.846399999999999 24 -3.6820000000000004 20 2.6351999999999993 27 0.2976000000000001 24"/></g><g transform="translate(256)" fill="none" stroke="#a7956e" stroke-width="5" stroke-linecap="round" stroke-linejoin="round" opacity="0.74"><path d="M78.22 18l2.8431999999999995 24 -3.686 20 2.6319999999999997 27 0.30079999999999973 24"/><path d="M78.2128 18l2.8415999999999997 24 -3.684000000000001 20 2.6304 27 0.2991999999999999 24"/><path d="M78.2056 18l2.846399999999999 24 -3.6820000000000004 20 2.6351999999999993 27 0.2976000000000001 24"/><path d="M78.1984 18l2.8447999999999993 24 -3.6800000000000015 20 2.6335999999999995 27 0.29600000000000026 24"/></g><g transform="translate(384)" fill="none" stroke="#a7956e" stroke-width="6" stroke-linecap="round" stroke-linejoin="round" opacity="0.86"><path d="M77.5216 18l2.8431999999999995 24 -3.686 20 2.6319999999999997 27 0.30079999999999973 24"/><path d="M77.52879999999999 18l2.8415999999999997 24 -3.684000000000001 20 2.6304 27 0.2991999999999999 24"/><path d="M77.5072 18l2.846399999999999 24 -3.6820000000000004 20 2.6351999999999993 27 0.2976000000000001 24"/><path d="M77.5144 18l2.8447999999999993 24 -3.6800000000000015 20 2.6335999999999995 27 0.29600000000000026 24"/><path d="M77.4928 18l2.8496000000000006 24 -3.693999999999999 20 2.6256000000000004 27 0.3071999999999999 24"/></g></svg>
