<svg xmlns="http://www.w3.org/2000/svg" viewBox="0 0 300 300" role="img" aria-label="All Patch Notes logo" preserveAspectRatio="xMidYMid meet">
  <title>All Patch Notes</title>
  <desc>APN primary brand mark — crimson rounded square, charcoal gamepad silhouette (pixel-perfect symmetric). Default everywhere. Detailed mark variant with droplets + action-button dots lives at apn-logo-full.svg for use cases that demand it. Path data ported from apn-ios/assets/apn-logo.svg, simplified + symmetrized under ALL-82 / ADR-0007.</desc>
  <rect width="300" height="300" rx="42" ry="42" fill="#FC1243"/>
  <path fill="#0b0c14" d="M 56.0,207.5 C 44.46333,207.5 32.47318,208.39117 22.0,202.5 C 11.20143,196.42581 5.67239,185.37628 2.6000000000000014,173.9 C -4.412159999999998,147.70754 3.9020000000000015,109.31254000000001 27.1,92.60000000000001 C 48.30248,77.32509 67.37462,99.50575 85.5,109.0 C 106.62602,120.06601 133.72334,122.83738 150.0,124.5 C 166.27666,122.83738 193.37398000000002,120.06601 214.5,109.0 C 232.62538,99.50575 251.69752,77.32509 272.9,92.60000000000001 C 296.098,109.31254000000001 304.41216,147.70754 297.4,173.9 C 294.32761,185.37628 288.79857,196.42581 278.0,202.5 C 267.52682,208.39117 255.53667000000002,207.5 244.0,207.5 L 243.99999999999997,207.5 C 231.29519,207.5 196.61728,208.36838 190.2,206.3 C 185.98701999999997,204.9421 181.02333,197.74037 177.49999999999997,195.0 C 168.84358999999998,188.26724 158.97414999999998,184.99126 150.0,185.5 C 141.02585000000002,184.99126 131.15641000000002,188.26724 122.50000000000003,195.0 C 118.97667000000003,197.74037 114.01298000000003,204.9421 109.80000000000003,206.3 C 103.38272000000002,208.36838 68.70481000000002,207.5 56.00000000000003,207.5 L 56.0,207.5"/>
</svg>
