<svg xmlns="http://www.w3.org/2000/svg" width="768" height="1024" viewBox="0 0 768 1024"><rect width="768" height="1024" fill="#30262a"/><rect width="768" height="740" fill="#091827"/><circle cx="641.2031999999999" cy="246.51" r="1" fill="#d9aa63" opacity=".35"/><circle cx="641.1264" cy="246.48" r="2" fill="#d9aa63" opacity=".35"/><circle cx="641.3568" cy="246.57" r="1" fill="#d9aa63" opacity=".35"/><circle cx="641.28" cy="246.54" r="2" fill="#d9aa63" opacity=".35"/><circle cx="640.896" cy="246.63000000000002" r="1" fill="#d9aa63" opacity=".35"/><circle cx="640.8192" cy="246.6" r="2" fill="#d9aa63" opacity=".35"/><circle cx="641.0496" cy="246.69" r="1" fill="#d9aa63" opacity=".35"/><circle cx="640.9728" cy="246.66000000000003" r="2" fill="#d9aa63" opacity=".35"/><circle cx="640.5888" cy="246.26999999999998" r="1" fill="#d9aa63" opacity=".35"/><circle cx="640.512" cy="246.23999999999998" r="2" fill="#d9aa63" opacity=".35"/><circle cx="633.7536" cy="243.60000000000002" r="1" fill="#d9aa63" opacity=".35"/><circle cx="633.8304" cy="243.63000000000002" r="2" fill="#d9aa63" opacity=".35"/><circle cx="633.9072" cy="243.66" r="1" fill="#d9aa63" opacity=".35"/><circle cx="633.984" cy="243.69" r="2" fill="#d9aa63" opacity=".35"/><circle cx="633.4464" cy="243.72" r="1" fill="#d9aa63" opacity=".35"/><circle cx="633.5232" cy="243.75" r="2" fill="#d9aa63" opacity=".35"/><circle cx="633.5999999999999" cy="243.78" r="1" fill="#d9aa63" opacity=".35"/><circle cx="633.6768" cy="243.81" r="2" fill="#d9aa63" opacity=".35"/><circle cx="633.1392000000001" cy="243.36" r="1" fill="#d9aa63" opacity=".35"/><circle cx="633.216" cy="243.39000000000001" r="2" fill="#d9aa63" opacity=".35"/><circle cx="646.272" cy="248.49" r="1" fill="#d9aa63" opacity=".35"/><circle cx="646.1952" cy="248.46" r="2" fill="#d9aa63" opacity=".35"/><circle cx="646.1184000000001" cy="248.42999999999998" r="1" fill="#d9aa63" opacity=".35"/><circle cx="646.0416" cy="248.39999999999998" r="2" fill="#d9aa63" opacity=".35"/><circle cx="645.9648" cy="248.60999999999999" r="1" fill="#d9aa63" opacity=".35"/><circle cx="645.8879999999999" cy="248.58" r="2" fill="#d9aa63" opacity=".35"/><circle cx="645.8112" cy="248.55" r="1" fill="#d9aa63" opacity=".35"/><circle cx="645.7344" cy="248.52" r="2" fill="#d9aa63" opacity=".35"/><circle cx="645.6576" cy="248.25" r="1" fill="#d9aa63" opacity=".35"/><circle cx="645.5808" cy="248.22" r="2" fill="#d9aa63" opacity=".35"/><path d="M-30 650V417.45L-30,417.45 6.506,417.45V650Z" fill="#13263a" stroke="#07111d" stroke-width="4"/><path d="M36 650V417.425L36,417.425 72.5115,417.425V650Z" fill="#101f30" stroke="#07111d" stroke-width="4"/><path d="M102 650V417.5L102,417.5 138.517,417.5V650Z" fill="#13263a" stroke="#07111d" stroke-width="4"/><path d="M168 650V417.475L168,417.475 204.5225,417.475V650Z" fill="#101f30" stroke="#07111d" stroke-width="4"/><path d="M234 650V417.55L234,417.55 270.484,417.55V650Z" fill="#13263a" stroke="#07111d" stroke-width="4"/><path d="M300 650V417.525L300,417.525 336.4895,417.525V650Z" fill="#101f30" stroke="#07111d" stroke-width="4"/><path d="M366 650V417.6L366,417.6 402.495,417.6V650Z" fill="#13263a" stroke="#07111d" stroke-width="4"/><path d="M432 650V417.57500000000005L432,417.57500000000005 468.5005,417.57500000000005V650Z" fill="#101f30" stroke="#07111d" stroke-width="4"/><path d="M498 650V417.65L498,417.65 534.462,417.65V650Z" fill="#13263a" stroke="#07111d" stroke-width="4"/><path d="M564 650V417.625L564,417.625 600.4675,417.625V650Z" fill="#101f30" stroke="#07111d" stroke-width="4"/><path d="M630 650V415.025L630,415.025 696.4315,415.025V650Z" fill="#13263a" stroke="#07111d" stroke-width="4"/><path d="M696 650V415.05L696,415.05 762.426,415.05V650Z" fill="#101f30" stroke="#07111d" stroke-width="4"/><path d="M762 650V415.07500000000005L762,415.07500000000005 828.4425,415.07500000000005V650Z" fill="#13263a" stroke="#07111d" stroke-width="4"/><rect x="408.872" y="436.192" width="4" height="8" rx="2" fill="#da584c" opacity=".55"/><rect x="408.8" y="436.22799999999995" width="4" height="8" rx="2" fill="#d9aa63" opacity=".55"/><rect x="409.016" y="436.264" width="4" height="8" rx="2" fill="#d9aa63" opacity=".55"/><rect x="408.944" y="436.29999999999995" width="4" height="8" rx="2" fill="#da584c" opacity=".55"/><rect x="409.15999999999997" y="436.048" width="4" height="8" rx="2" fill="#d9aa63" opacity=".55"/><rect x="409.08799999999997" y="436.084" width="4" height="8" rx="2" fill="#d9aa63" opacity=".55"/><rect x="409.304" y="436.12" width="4" height="8" rx="2" fill="#da584c" opacity=".55"/><rect x="409.23199999999997" y="436.156" width="4" height="8" rx="2" fill="#d9aa63" opacity=".55"/><rect x="408.296" y="436.48" width="4" height="8" rx="2" fill="#d9aa63" opacity=".55"/><rect x="408.224" y="436.51599999999996" width="4" height="8" rx="2" fill="#da584c" opacity=".55"/><rect x="406.64000000000004" y="439.684" width="4" height="8" rx="2" fill="#d9aa63" opacity=".55"/><rect x="406.712" y="439.648" width="4" height="8" rx="2" fill="#d9aa63" opacity=".55"/><rect x="406.49600000000004" y="439.756" width="4" height="8" rx="2" fill="#da584c" opacity=".55"/><rect x="406.56800000000004" y="439.72" width="4" height="8" rx="2" fill="#d9aa63" opacity=".55"/><rect x="406.928" y="439.53999999999996" width="4" height="8" rx="2" fill="#d9aa63" opacity=".55"/><rect x="407" y="439.504" width="4" height="8" rx="2" fill="#da584c" opacity=".55"/><rect x="406.784" y="439.61199999999997" width="4" height="8" rx="2" fill="#d9aa63" opacity=".55"/><rect x="406.856" y="439.576" width="4" height="8" rx="2" fill="#d9aa63" opacity=".55"/><path d="M60 650V350h120v300M230 650V430h170v220M470 650V300h220v350" fill="#1c2936" stroke="#07111d" stroke-width="7"/><path d="M100 360V220h40v130M530 300V170h45v130" stroke="#da584c" stroke-width="7"/><path d="M0 705H768V1024H0Z" fill="#0b1825"/><path d="M0 730H768" stroke="#d9aa63" stroke-width="4" opacity=".5"/><path d="M0 855H768M80 730V1024M250 730V1024M518 730V1024M688 730V1024" stroke="#1d3548" stroke-width="3"/><ellipse cx="590" cy="775" rx="110" ry="28" fill="#03070d" opacity=".6"/><path d="M0 712H768" stroke="#da584c" stroke-width="3" opacity=".35"/></svg>
