<svg xmlns="http://www.w3.org/2000/svg" width="512" height="128" viewBox="0 0 512 128"><g transform="translate(0)" fill="none" stroke="#d9aa63" stroke-width="3" stroke-linecap="round" stroke-linejoin="round" opacity="0.5"><path d="M28.6624 18l0.4863999999999997 24 -0.7400000000000002 20 0.2751999999999999 27 -5.3584 24"/><path d="M28.6696 18l0.48799999999999955 24 -0.7420000000000009 20 0.2767999999999997 27 -5.3568 24"/></g><g transform="translate(128)" fill="none" stroke="#d9aa63" stroke-width="4" stroke-linecap="round" stroke-linejoin="round" opacity="0.62"><path d="M67.83760000000001 18l0.4863999999999997 24 -0.7400000000000002 20 0.2751999999999999 27 -5.3584 24"/><path d="M67.8304 18l0.48799999999999955 24 -0.7420000000000009 20 0.2767999999999997 27 -5.3568 24"/><path d="M67.852 18l0.48959999999999937 24 -0.7360000000000007 20 0.27839999999999954 27 -5.361599999999999 24"/></g><g transform="translate(256)" fill="none" stroke="#da584c" stroke-width="5" stroke-linecap="round" stroke-linejoin="round" opacity="0.74"><path d="M67.6144 18l0.4863999999999997 24 -0.7400000000000002 20 0.2751999999999999 27 -5.3584 24"/><path d="M67.6216 18l0.48799999999999955 24 -0.7420000000000009 20 0.2767999999999997 27 -5.3568 24"/><path d="M67.6 18l0.48959999999999937 24 -0.7360000000000007 20 0.27839999999999954 27 -5.361599999999999 24"/><path d="M67.6072 18l0.4911999999999992 24 -0.7380000000000013 20 0.27999999999999936 27 -5.359999999999999 24"/></g><g transform="translate(384)" fill="none" stroke="#da584c" stroke-width="6" stroke-linecap="round" stroke-linejoin="round" opacity="0.86"><path d="M68.3128 18l0.4863999999999997 24 -0.7400000000000002 20 0.2751999999999999 27 -5.3584 24"/><path d="M68.3056 18l0.48799999999999955 24 -0.7420000000000009 20 0.2767999999999997 27 -5.3568 24"/><path d="M68.2984 18l0.48959999999999937 24 -0.7360000000000007 20 0.27839999999999954 27 -5.361599999999999 24"/><path d="M68.2912 18l0.4911999999999992 24 -0.7380000000000013 20 0.27999999999999936 27 -5.359999999999999 24"/><path d="M68.28399999999999 18l0.4928000000000008 24 -0.7479999999999993 20 0.2688000000000006 27 -5.352 24"/></g></svg>
