<svg xmlns="http://www.w3.org/2000/svg" width="768" height="1024" viewBox="0 0 768 1024"><rect width="768" height="1024" fill="#2f2021"/><rect width="768" height="740" fill="#091827"/><circle cx="189.8496" cy="78.12" r="1" fill="#d18345" opacity=".35"/><circle cx="189.9264" cy="78.15" r="2" fill="#d18345" opacity=".35"/><circle cx="190.0032" cy="78.17999999999999" r="1" fill="#d18345" opacity=".35"/><circle cx="190.07999999999998" cy="78.21" r="2" fill="#d18345" opacity=".35"/><circle cx="190.15679999999998" cy="78" r="1" fill="#d18345" opacity=".35"/><circle cx="190.2336" cy="78.03" r="2" fill="#d18345" opacity=".35"/><circle cx="190.3104" cy="78.06" r="1" fill="#d18345" opacity=".35"/><circle cx="190.3872" cy="78.08999999999999" r="2" fill="#d18345" opacity=".35"/><circle cx="189.23520000000002" cy="77.88" r="1" fill="#d18345" opacity=".35"/><circle cx="189.312" cy="77.91" r="2" fill="#d18345" opacity=".35"/><circle cx="197.2992" cy="81.03" r="1" fill="#d18345" opacity=".35"/><circle cx="197.2224" cy="81" r="2" fill="#d18345" opacity=".35"/><circle cx="197.4528" cy="81.08999999999999" r="1" fill="#d18345" opacity=".35"/><circle cx="197.376" cy="81.06" r="2" fill="#d18345" opacity=".35"/><circle cx="197.60639999999998" cy="80.91" r="1" fill="#d18345" opacity=".35"/><circle cx="197.5296" cy="80.88" r="2" fill="#d18345" opacity=".35"/><circle cx="197.76" cy="80.97" r="1" fill="#d18345" opacity=".35"/><circle cx="197.6832" cy="80.94" r="2" fill="#d18345" opacity=".35"/><circle cx="196.6848" cy="80.78999999999999" r="1" fill="#d18345" opacity=".35"/><circle cx="196.608" cy="80.76" r="2" fill="#d18345" opacity=".35"/><circle cx="194.91840000000002" cy="80.10000000000001" r="1" fill="#d18345" opacity=".35"/><circle cx="194.9952" cy="80.13" r="2" fill="#d18345" opacity=".35"/><circle cx="194.76479999999998" cy="80.03999999999999" r="1" fill="#d18345" opacity=".35"/><circle cx="194.84159999999997" cy="80.07000000000001" r="2" fill="#d18345" opacity=".35"/><circle cx="195.2256" cy="79.98" r="1" fill="#d18345" opacity=".35"/><circle cx="195.30240000000003" cy="80.00999999999999" r="2" fill="#d18345" opacity=".35"/><circle cx="195.072" cy="79.92" r="1" fill="#d18345" opacity=".35"/><circle cx="195.1488" cy="79.95" r="2" fill="#d18345" opacity=".35"/><circle cx="194.304" cy="79.86" r="1" fill="#d18345" opacity=".35"/><circle cx="194.3808" cy="79.89" r="2" fill="#d18345" opacity=".35"/><path d="M-30 650V305.925L-30,305.925 39.2255,305.925V650Z" fill="#13263a" stroke="#07111d" stroke-width="4"/><path d="M36 650V305.95000000000005L36,305.95000000000005 105.22,305.95000000000005V650Z" fill="#101f30" stroke="#07111d" stroke-width="4"/><path d="M102 650V305.975L102,305.975 171.2365,305.975V650Z" fill="#13263a" stroke="#07111d" stroke-width="4"/><path d="M168 650V306L168,306 237.231,306V650Z" fill="#101f30" stroke="#07111d" stroke-width="4"/><path d="M234 650V305.825L234,305.825 303.2475,305.825V650Z" fill="#13263a" stroke="#07111d" stroke-width="4"/><path d="M300 650V305.85L300,305.85 369.242,305.85V650Z" fill="#101f30" stroke="#07111d" stroke-width="4"/><path d="M366 650V305.875L366,305.875 435.2585,305.875V650Z" fill="#13263a" stroke="#07111d" stroke-width="4"/><path d="M432 650V305.9L432,305.9 501.253,305.9V650Z" fill="#101f30" stroke="#07111d" stroke-width="4"/><path d="M498 650V306.125L498,306.125 567.1815,306.125V650Z" fill="#13263a" stroke="#07111d" stroke-width="4"/><path d="M564 650V306.15L564,306.15 633.1759999999999,306.15V650Z" fill="#101f30" stroke="#07111d" stroke-width="4"/><path d="M630 650V305.15L630,305.15 720.604,305.15V650Z" fill="#13263a" stroke="#07111d" stroke-width="4"/><path d="M696 650V305.125L696,305.125 786.6095,305.125V650Z" fill="#101f30" stroke="#07111d" stroke-width="4"/><path d="M762 650V305.20000000000005L762,305.20000000000005 852.615,305.20000000000005V650Z" fill="#13263a" stroke="#07111d" stroke-width="4"/><rect x="24.32" y="596.788" width="4" height="8" rx="2" fill="#b44d35" opacity=".55"/><rect x="24.392" y="596.752" width="4" height="8" rx="2" fill="#d18345" opacity=".55"/><rect x="24.464" y="596.86" width="4" height="8" rx="2" fill="#d18345" opacity=".55"/><rect x="24.536" y="596.8240000000001" width="4" height="8" rx="2" fill="#b44d35" opacity=".55"/><rect x="24.032" y="596.932" width="4" height="8" rx="2" fill="#d18345" opacity=".55"/><rect x="24.104" y="596.896" width="4" height="8" rx="2" fill="#d18345" opacity=".55"/><rect x="24.176000000000002" y="597.004" width="4" height="8" rx="2" fill="#b44d35" opacity=".55"/><rect x="24.248" y="596.9680000000001" width="4" height="8" rx="2" fill="#d18345" opacity=".55"/><rect x="23.744" y="597.076" width="4" height="8" rx="2" fill="#d18345" opacity=".55"/><rect x="23.816" y="597.04" width="4" height="8" rx="2" fill="#b44d35" opacity=".55"/><rect x="26.84" y="597.904" width="4" height="8" rx="2" fill="#d18345" opacity=".55"/><rect x="26.768" y="597.94" width="4" height="8" rx="2" fill="#d18345" opacity=".55"/><rect x="26.695999999999998" y="597.976" width="4" height="8" rx="2" fill="#b44d35" opacity=".55"/><rect x="26.624" y="598.012" width="4" height="8" rx="2" fill="#d18345" opacity=".55"/><rect x="26.552" y="598.048" width="4" height="8" rx="2" fill="#d18345" opacity=".55"/><rect x="26.48" y="598.0840000000001" width="4" height="8" rx="2" fill="#b44d35" opacity=".55"/><rect x="26.408" y="598.12" width="4" height="8" rx="2" fill="#d18345" opacity=".55"/><rect x="26.336" y="598.156" width="4" height="8" rx="2" fill="#d18345" opacity=".55"/><path d="M20 650V410l85-80 70 80v240M230 650V330h180v320M470 650V390l100-120 115 120v260" fill="#2b2630" stroke="#07111d" stroke-width="8"/><path d="M300 650l40-170 35 170M560 650l40-220" stroke="#b44d35" stroke-width="9" opacity=".7"/><g id="apn-editorial-motifs">
    <g id="billboard" fill="#102033" stroke="#07111d" stroke-width="5">
      <path d="M42 300h132v86H42zM594 344h124v78H594z"/>
      <path d="M59 320h66M59 340h92M611 365h78M611 385h52" fill="none" stroke="#d18345" stroke-width="5" opacity=".7"/>
      <path d="M145 316h13v13h-13zM688 397h13v13h-13z" fill="#b44d35" stroke="none"/>
    </g>
    <g id="signal-rail" fill="none" stroke-linecap="round">
      <path d="M0 528H768" stroke="#07111d" stroke-width="12"/>
      <path d="M0 528H768" stroke="#d18345" stroke-width="4" opacity=".65"/>
      <path d="M92 512v32M270 512v32M498 512v32M680 512v32" stroke="#b44d35" stroke-width="4"/>
    </g>
    <path id="patchline" d="M0 606h178l28-24h176l30 24h356" fill="none" stroke="#b44d35" stroke-width="5" opacity=".72"/>
    <g id="archive-lights" fill="#d18345">
      <circle cx="84" cy="606" r="5"/><circle cx="218" cy="582" r="5"/><circle cx="396" cy="594" r="5"/><circle cx="554" cy="606" r="5"/><circle cx="704" cy="606" r="5"/>
    </g>
  </g><path d="M0 705H768V1024H0Z" fill="#0b1825"/><path d="M0 730H768" stroke="#d18345" stroke-width="4" opacity=".5"/><path d="M0 855H768M80 730V1024M250 730V1024M518 730V1024M688 730V1024" stroke="#1d3548" stroke-width="3"/><ellipse cx="590" cy="775" rx="110" ry="28" fill="#03070d" opacity=".6"/><path d="M0 712H768" stroke="#b44d35" stroke-width="3" opacity=".35"/></svg>
