<svg xmlns="http://www.w3.org/2000/svg" width="512" height="128" viewBox="0 0 512 128"><g transform="translate(0)" fill="none" stroke="#d18345" stroke-width="3" stroke-linecap="round" stroke-linejoin="round" opacity="0.5"><path d="M71.4952 18l-7.9536 24 9.81 20 7.412800000000001 27 4.0448 24"/><path d="M71.488 18l-7.9552 24 9.812 20 7.411199999999999 27 4.043200000000001 24"/></g><g transform="translate(128)" fill="none" stroke="#d18345" stroke-width="4" stroke-linecap="round" stroke-linejoin="round" opacity="0.62"><path d="M99.4816 18l-7.9536 24 9.81 20 7.412800000000001 27 4.0448 24"/><path d="M99.4888 18l-7.9552 24 9.812 20 7.411199999999999 27 4.043200000000001 24"/><path d="M99.496 18l-7.9504 24 9.814 20 7.416 27 4.0416 24"/></g><g transform="translate(256)" fill="none" stroke="#b44d35" stroke-width="5" stroke-linecap="round" stroke-linejoin="round" opacity="0.74"><path d="M99.7336 18l-7.9536 24 9.81 20 7.412800000000001 27 4.0448 24"/><path d="M99.7264 18l-7.9552 24 9.812 20 7.411199999999999 27 4.043200000000001 24"/><path d="M99.7192 18l-7.9504 24 9.814 20 7.416 27 4.0416 24"/><path d="M99.712 18l-7.952 24 9.816 20 7.4144000000000005 27 4.04 24"/></g><g transform="translate(384)" fill="none" stroke="#b44d35" stroke-width="6" stroke-linecap="round" stroke-linejoin="round" opacity="0.86"><path d="M99.9568 18l-7.9536 24 9.81 20 7.412800000000001 27 4.0448 24"/><path d="M99.964 18l-7.9552 24 9.812 20 7.411199999999999 27 4.043200000000001 24"/><path d="M99.94239999999999 18l-7.9504 24 9.814 20 7.416 27 4.0416 24"/><path d="M99.9496 18l-7.952 24 9.816 20 7.4144000000000005 27 4.04 24"/><path d="M99.9856 18l-7.96 24 9.818 20 7.4192 27 4.0384 24"/></g></svg>
