<svg xmlns="http://www.w3.org/2000/svg" width="768" height="1024" viewBox="0 0 768 1024"><rect width="768" height="1024" fill="#24304f"/><rect width="768" height="740" fill="#091827"/><circle cx="227.86560000000003" cy="85.05" r="1" fill="#43d6dc" opacity=".35"/><circle cx="227.78879999999998" cy="85.02" r="2" fill="#43d6dc" opacity=".35"/><circle cx="227.712" cy="84.99" r="1" fill="#43d6dc" opacity=".35"/><circle cx="227.6352" cy="84.96000000000001" r="2" fill="#43d6dc" opacity=".35"/><circle cx="227.5584" cy="85.17" r="1" fill="#43d6dc" opacity=".35"/><circle cx="227.48160000000001" cy="85.14" r="2" fill="#43d6dc" opacity=".35"/><circle cx="227.40479999999997" cy="85.11" r="1" fill="#43d6dc" opacity=".35"/><circle cx="227.32799999999997" cy="85.08000000000001" r="2" fill="#43d6dc" opacity=".35"/><circle cx="228.48" cy="85.28999999999999" r="1" fill="#43d6dc" opacity=".35"/><circle cx="228.4032" cy="85.26" r="2" fill="#43d6dc" opacity=".35"/><circle cx="230.2464" cy="85.98" r="1" fill="#43d6dc" opacity=".35"/><circle cx="230.32319999999999" cy="86.01" r="2" fill="#43d6dc" opacity=".35"/><circle cx="230.09279999999998" cy="85.92" r="1" fill="#43d6dc" opacity=".35"/><circle cx="230.1696" cy="85.94999999999999" r="2" fill="#43d6dc" opacity=".35"/><circle cx="229.9392" cy="86.1" r="1" fill="#43d6dc" opacity=".35"/><circle cx="230.016" cy="86.13000000000001" r="2" fill="#43d6dc" opacity=".35"/><circle cx="229.78560000000002" cy="86.04" r="1" fill="#43d6dc" opacity=".35"/><circle cx="229.8624" cy="86.07" r="2" fill="#43d6dc" opacity=".35"/><circle cx="230.86079999999998" cy="86.22" r="1" fill="#43d6dc" opacity=".35"/><circle cx="230.93760000000003" cy="86.25" r="2" fill="#43d6dc" opacity=".35"/><circle cx="222.79680000000002" cy="83.07" r="1" fill="#43d6dc" opacity=".35"/><circle cx="222.71999999999997" cy="83.03999999999999" r="2" fill="#43d6dc" opacity=".35"/><circle cx="222.9504" cy="83.13000000000001" r="1" fill="#43d6dc" opacity=".35"/><circle cx="222.8736" cy="83.10000000000001" r="2" fill="#43d6dc" opacity=".35"/><circle cx="222.4896" cy="83.19" r="1" fill="#43d6dc" opacity=".35"/><circle cx="222.4128" cy="83.16" r="2" fill="#43d6dc" opacity=".35"/><circle cx="222.64319999999998" cy="83.25000000000001" r="1" fill="#43d6dc" opacity=".35"/><circle cx="222.5664" cy="83.22" r="2" fill="#43d6dc" opacity=".35"/><circle cx="223.4112" cy="83.31" r="1" fill="#43d6dc" opacity=".35"/><circle cx="223.33440000000002" cy="83.28" r="2" fill="#43d6dc" opacity=".35"/><path d="M-30 650V349.3L-30,349.3 6.384999999999998,349.3V650Z" fill="#13263a" stroke="#07111d" stroke-width="4"/><path d="M36 650V349.275L36,349.275 72.3905,349.275V650Z" fill="#101f30" stroke="#07111d" stroke-width="4"/><path d="M102 650V349.25L102,349.25 138.374,349.25V650Z" fill="#13263a" stroke="#07111d" stroke-width="4"/><path d="M168 650V349.225L168,349.225 204.3795,349.225V650Z" fill="#101f30" stroke="#07111d" stroke-width="4"/><path d="M234 650V349.4L234,349.4 270.363,349.4V650Z" fill="#13263a" stroke="#07111d" stroke-width="4"/><path d="M300 650V349.375L300,349.375 336.3685,349.375V650Z" fill="#101f30" stroke="#07111d" stroke-width="4"/><path d="M366 650V349.35L366,349.35 402.352,349.35V650Z" fill="#13263a" stroke="#07111d" stroke-width="4"/><path d="M432 650V349.32500000000005L432,349.32500000000005 468.3575,349.32500000000005V650Z" fill="#101f30" stroke="#07111d" stroke-width="4"/><path d="M498 650V349.1L498,349.1 534.429,349.1V650Z" fill="#13263a" stroke="#07111d" stroke-width="4"/><path d="M564 650V349.07500000000005L564,349.07500000000005 600.4345,349.07500000000005V650Z" fill="#101f30" stroke="#07111d" stroke-width="4"/><path d="M630 650V350.07500000000005L630,350.07500000000005 711.4465,350.07500000000005V650Z" fill="#13263a" stroke="#07111d" stroke-width="4"/><path d="M696 650V350.1L696,350.1 777.441,350.1V650Z" fill="#101f30" stroke="#07111d" stroke-width="4"/><path d="M762 650V350.025L762,350.025 843.4355,350.025V650Z" fill="#13263a" stroke="#07111d" stroke-width="4"/><rect x="605.432" y="558.088" width="4" height="8" rx="2" fill="#8d55e8" opacity=".55"/><rect x="605.36" y="558.124" width="4" height="8" rx="2" fill="#43d6dc" opacity=".55"/><rect x="605.288" y="558.0160000000001" width="4" height="8" rx="2" fill="#43d6dc" opacity=".55"/><rect x="605.216" y="558.052" width="4" height="8" rx="2" fill="#8d55e8" opacity=".55"/><rect x="605.72" y="557.944" width="4" height="8" rx="2" fill="#43d6dc" opacity=".55"/><rect x="605.648" y="557.98" width="4" height="8" rx="2" fill="#43d6dc" opacity=".55"/><rect x="605.576" y="557.872" width="4" height="8" rx="2" fill="#8d55e8" opacity=".55"/><rect x="605.504" y="557.9079999999999" width="4" height="8" rx="2" fill="#43d6dc" opacity=".55"/><rect x="606.0079999999999" y="557.8" width="4" height="8" rx="2" fill="#43d6dc" opacity=".55"/><rect x="605.9359999999999" y="557.836" width="4" height="8" rx="2" fill="#8d55e8" opacity=".55"/><rect x="602.912" y="556.972" width="4" height="8" rx="2" fill="#43d6dc" opacity=".55"/><rect x="602.984" y="556.936" width="4" height="8" rx="2" fill="#43d6dc" opacity=".55"/><rect x="603.0559999999999" y="556.9000000000001" width="4" height="8" rx="2" fill="#8d55e8" opacity=".55"/><rect x="603.1279999999999" y="556.864" width="4" height="8" rx="2" fill="#43d6dc" opacity=".55"/><rect x="603.2" y="556.828" width="4" height="8" rx="2" fill="#43d6dc" opacity=".55"/><rect x="603.272" y="556.7919999999999" width="4" height="8" rx="2" fill="#8d55e8" opacity=".55"/><rect x="603.344" y="556.756" width="4" height="8" rx="2" fill="#43d6dc" opacity=".55"/><rect x="603.416" y="556.72" width="4" height="8" rx="2" fill="#43d6dc" opacity=".55"/><path d="M0 250C160 190 240 300 390 220S650 300 768 190" fill="none" stroke="#8d55e8" stroke-width="20" opacity=".25"/><path d="M650 90l-60 130 80-40-35 110" fill="none" stroke="#43d6dc" stroke-width="8"/><g id="apn-editorial-motifs">
    <g id="billboard" fill="#102033" stroke="#07111d" stroke-width="5">
      <path d="M42 300h132v86H42zM594 344h124v78H594z"/>
      <path d="M59 320h66M59 340h92M611 365h78M611 385h52" fill="none" stroke="#43d6dc" stroke-width="5" opacity=".7"/>
      <path d="M145 316h13v13h-13zM688 397h13v13h-13z" fill="#8d55e8" stroke="none"/>
    </g>
    <g id="signal-rail" fill="none" stroke-linecap="round">
      <path d="M0 528H768" stroke="#07111d" stroke-width="12"/>
      <path d="M0 528H768" stroke="#43d6dc" stroke-width="4" opacity=".65"/>
      <path d="M92 512v32M270 512v32M498 512v32M680 512v32" stroke="#8d55e8" stroke-width="4"/>
    </g>
    <path id="patchline" d="M0 606h178l28-24h176l30 24h356" fill="none" stroke="#8d55e8" stroke-width="5" opacity=".72"/>
    <g id="archive-lights" fill="#43d6dc">
      <circle cx="84" cy="606" r="5"/><circle cx="218" cy="582" r="5"/><circle cx="396" cy="594" r="5"/><circle cx="554" cy="606" r="5"/><circle cx="704" cy="606" r="5"/>
    </g>
  </g><path d="M0 705H768V1024H0Z" fill="#0b1825"/><path d="M0 730H768" stroke="#43d6dc" stroke-width="4" opacity=".5"/><path d="M0 855H768M80 730V1024M250 730V1024M518 730V1024M688 730V1024" stroke="#1d3548" stroke-width="3"/><ellipse cx="590" cy="775" rx="110" ry="28" fill="#03070d" opacity=".6"/><path d="M0 712H768" stroke="#8d55e8" stroke-width="3" opacity=".35"/></svg>
