<svg xmlns="http://www.w3.org/2000/svg" width="512" height="128" viewBox="0 0 512 128"><g transform="translate(0)" fill="none" stroke="#43d6dc" stroke-width="3" stroke-linecap="round" stroke-linejoin="round" opacity="0.5"><path d="M28.504 18l5.059200000000001 24 -6.192 20 5.6928 27 3.2527999999999997 24"/><path d="M28.5112 18l5.0608 24 -6.193999999999999 20 5.6944 27 3.2544000000000004 24"/></g><g transform="translate(128)" fill="none" stroke="#43d6dc" stroke-width="4" stroke-linecap="round" stroke-linejoin="round" opacity="0.62"><path d="M87.4936 18l5.059200000000001 24 -6.192 20 5.6928 27 3.2527999999999997 24"/><path d="M87.4864 18l5.0608 24 -6.193999999999999 20 5.6944 27 3.2544000000000004 24"/><path d="M87.47919999999999 18l5.055999999999999 24 -6.195999999999998 20 5.6896 27 3.2560000000000002 24"/></g><g transform="translate(256)" fill="none" stroke="#8d55e8" stroke-width="5" stroke-linecap="round" stroke-linejoin="round" opacity="0.74"><path d="M87.2416 18l5.059200000000001 24 -6.192 20 5.6928 27 3.2527999999999997 24"/><path d="M87.24879999999999 18l5.0608 24 -6.193999999999999 20 5.6944 27 3.2544000000000004 24"/><path d="M87.256 18l5.055999999999999 24 -6.195999999999998 20 5.6896 27 3.2560000000000002 24"/><path d="M87.26320000000001 18l5.057600000000001 24 -6.198 20 5.6912 27 3.2576 24"/></g><g transform="translate(384)" fill="none" stroke="#8d55e8" stroke-width="6" stroke-linecap="round" stroke-linejoin="round" opacity="0.86"><path d="M87.0184 18l5.059200000000001 24 -6.192 20 5.6928 27 3.2527999999999997 24"/><path d="M87.0112 18l5.0608 24 -6.193999999999999 20 5.6944 27 3.2544000000000004 24"/><path d="M87.0328 18l5.055999999999999 24 -6.195999999999998 20 5.6896 27 3.2560000000000002 24"/><path d="M87.0256 18l5.057600000000001 24 -6.198 20 5.6912 27 3.2576 24"/><path d="M86.9896 18l5.0656 24 -6.200000000000003 20 5.686400000000001 27 3.2592 24"/></g></svg>
