<svg xmlns="http://www.w3.org/2000/svg" width="768" height="1024" viewBox="0 0 768 1024"><rect width="768" height="1024" fill="#2a2630"/><rect width="768" height="740" fill="#091827"/><circle cx="278.8608" cy="104.97" r="1" fill="#6aa784" opacity=".35"/><circle cx="278.784" cy="104.94" r="2" fill="#6aa784" opacity=".35"/><circle cx="278.7072" cy="104.91" r="1" fill="#6aa784" opacity=".35"/><circle cx="278.6304" cy="104.88000000000001" r="2" fill="#6aa784" opacity=".35"/><circle cx="278.5536" cy="105.09" r="1" fill="#6aa784" opacity=".35"/><circle cx="278.47679999999997" cy="105.06" r="2" fill="#6aa784" opacity=".35"/><circle cx="278.4" cy="105.03" r="1" fill="#6aa784" opacity=".35"/><circle cx="278.3232" cy="105" r="2" fill="#6aa784" opacity=".35"/><circle cx="278.2464" cy="104.73" r="1" fill="#6aa784" opacity=".35"/><circle cx="278.1696" cy="104.69999999999999" r="2" fill="#6aa784" opacity=".35"/><circle cx="271.4112" cy="102.06" r="1" fill="#6aa784" opacity=".35"/><circle cx="271.488" cy="102.09" r="2" fill="#6aa784" opacity=".35"/><circle cx="271.2576" cy="102.00000000000001" r="1" fill="#6aa784" opacity=".35"/><circle cx="271.3344" cy="102.03" r="2" fill="#6aa784" opacity=".35"/><circle cx="271.104" cy="102.18" r="1" fill="#6aa784" opacity=".35"/><circle cx="271.18080000000003" cy="102.21000000000001" r="2" fill="#6aa784" opacity=".35"/><circle cx="270.9504" cy="102.11999999999999" r="1" fill="#6aa784" opacity=".35"/><circle cx="271.0272" cy="102.15" r="2" fill="#6aa784" opacity=".35"/><circle cx="270.7968" cy="101.82" r="1" fill="#6aa784" opacity=".35"/><circle cx="270.8736" cy="101.85000000000001" r="2" fill="#6aa784" opacity=".35"/><circle cx="273.792" cy="102.99" r="1" fill="#6aa784" opacity=".35"/><circle cx="273.7152" cy="102.96000000000001" r="2" fill="#6aa784" opacity=".35"/><circle cx="273.9456" cy="103.05000000000001" r="1" fill="#6aa784" opacity=".35"/><circle cx="273.86879999999996" cy="103.02" r="2" fill="#6aa784" opacity=".35"/><circle cx="273.4848" cy="103.11" r="1" fill="#6aa784" opacity=".35"/><circle cx="273.408" cy="103.08" r="2" fill="#6aa784" opacity=".35"/><circle cx="273.6384" cy="103.17" r="1" fill="#6aa784" opacity=".35"/><circle cx="273.5616" cy="103.14" r="2" fill="#6aa784" opacity=".35"/><circle cx="273.1776" cy="102.75000000000001" r="1" fill="#6aa784" opacity=".35"/><circle cx="273.10080000000005" cy="102.72" r="2" fill="#6aa784" opacity=".35"/><path d="M-30 650V441.5L-30,441.5 54.653000000000006,441.5V650Z" fill="#13263a" stroke="#07111d" stroke-width="4"/><path d="M36 650V441.475L36,441.475 120.6585,441.475V650Z" fill="#101f30" stroke="#07111d" stroke-width="4"/><path d="M102 650V441.45L102,441.45 186.642,441.45V650Z" fill="#13263a" stroke="#07111d" stroke-width="4"/><path d="M168 650V441.425L168,441.425 252.6475,441.425V650Z" fill="#101f30" stroke="#07111d" stroke-width="4"/><path d="M234 650V441.6L234,441.6 318.631,441.6V650Z" fill="#13263a" stroke="#07111d" stroke-width="4"/><path d="M300 650V441.575L300,441.575 384.6365,441.575V650Z" fill="#101f30" stroke="#07111d" stroke-width="4"/><path d="M366 650V441.55L366,441.55 450.62,441.55V650Z" fill="#13263a" stroke="#07111d" stroke-width="4"/><path d="M432 650V441.525L432,441.525 516.6255,441.525V650Z" fill="#101f30" stroke="#07111d" stroke-width="4"/><path d="M498 650V441.7L498,441.7 582.609,441.7V650Z" fill="#13263a" stroke="#07111d" stroke-width="4"/><path d="M564 650V441.675L564,441.675 648.6145,441.675V650Z" fill="#101f30" stroke="#07111d" stroke-width="4"/><path d="M630 650V439.075L630,439.075 691.8665,439.075V650Z" fill="#13263a" stroke="#07111d" stroke-width="4"/><path d="M696 650V439.1L696,439.1 757.861,439.1V650Z" fill="#101f30" stroke="#07111d" stroke-width="4"/><path d="M762 650V439.025L762,439.025 823.8555,439.025V650Z" fill="#13263a" stroke="#07111d" stroke-width="4"/><rect x="349.112" y="406.312" width="4" height="8" rx="2" fill="#ba5b4f" opacity=".55"/><rect x="349.04" y="406.348" width="4" height="8" rx="2" fill="#6aa784" opacity=".55"/><rect x="348.96799999999996" y="406.24" width="4" height="8" rx="2" fill="#6aa784" opacity=".55"/><rect x="348.896" y="406.27599999999995" width="4" height="8" rx="2" fill="#ba5b4f" opacity=".55"/><rect x="349.40000000000003" y="406.168" width="4" height="8" rx="2" fill="#6aa784" opacity=".55"/><rect x="349.328" y="406.204" width="4" height="8" rx="2" fill="#6aa784" opacity=".55"/><rect x="349.256" y="406.096" width="4" height="8" rx="2" fill="#ba5b4f" opacity=".55"/><rect x="349.18399999999997" y="406.132" width="4" height="8" rx="2" fill="#6aa784" opacity=".55"/><rect x="348.536" y="406.6" width="4" height="8" rx="2" fill="#6aa784" opacity=".55"/><rect x="348.464" y="406.63599999999997" width="4" height="8" rx="2" fill="#ba5b4f" opacity=".55"/><rect x="337.37600000000003" y="409.804" width="4" height="8" rx="2" fill="#6aa784" opacity=".55"/><rect x="337.44800000000004" y="409.76800000000003" width="4" height="8" rx="2" fill="#6aa784" opacity=".55"/><rect x="337.52" y="409.73199999999997" width="4" height="8" rx="2" fill="#ba5b4f" opacity=".55"/><rect x="337.592" y="409.696" width="4" height="8" rx="2" fill="#6aa784" opacity=".55"/><rect x="337.664" y="409.65999999999997" width="4" height="8" rx="2" fill="#6aa784" opacity=".55"/><rect x="337.736" y="409.624" width="4" height="8" rx="2" fill="#ba5b4f" opacity=".55"/><rect x="337.808" y="409.588" width="4" height="8" rx="2" fill="#6aa784" opacity=".55"/><rect x="337.88" y="409.552" width="4" height="8" rx="2" fill="#6aa784" opacity=".55"/><path d="M0 690C180 610 300 750 768 620V780H0Z" fill="#153642"/><path d="M40 650C250 580 430 730 730 610" fill="none" stroke="#6aa784" stroke-width="8" opacity=".7"/><g id="apn-editorial-motifs">
    <g id="billboard" fill="#102033" stroke="#07111d" stroke-width="5">
      <path d="M42 300h132v86H42zM594 344h124v78H594z"/>
      <path d="M59 320h66M59 340h92M611 365h78M611 385h52" fill="none" stroke="#6aa784" stroke-width="5" opacity=".7"/>
      <path d="M145 316h13v13h-13zM688 397h13v13h-13z" fill="#ba5b4f" stroke="none"/>
    </g>
    <g id="signal-rail" fill="none" stroke-linecap="round">
      <path d="M0 528H768" stroke="#07111d" stroke-width="12"/>
      <path d="M0 528H768" stroke="#6aa784" stroke-width="4" opacity=".65"/>
      <path d="M92 512v32M270 512v32M498 512v32M680 512v32" stroke="#ba5b4f" stroke-width="4"/>
    </g>
    <path id="patchline" d="M0 606h178l28-24h176l30 24h356" fill="none" stroke="#ba5b4f" stroke-width="5" opacity=".72"/>
    <g id="archive-lights" fill="#6aa784">
      <circle cx="84" cy="606" r="5"/><circle cx="218" cy="582" r="5"/><circle cx="396" cy="594" r="5"/><circle cx="554" cy="606" r="5"/><circle cx="704" cy="606" r="5"/>
    </g>
  </g><path d="M0 705H768V1024H0Z" fill="#0b1825"/><path d="M0 730H768" stroke="#6aa784" stroke-width="4" opacity=".5"/><path d="M0 855H768M80 730V1024M250 730V1024M518 730V1024M688 730V1024" stroke="#1d3548" stroke-width="3"/><ellipse cx="590" cy="775" rx="110" ry="28" fill="#03070d" opacity=".6"/><path d="M0 712H768" stroke="#ba5b4f" stroke-width="3" opacity=".35"/></svg>
