<svg xmlns="http://www.w3.org/2000/svg" width="512" height="128" viewBox="0 0 512 128"><g transform="translate(0)" fill="none" stroke="#6aa784" stroke-width="3" stroke-linecap="round" stroke-linejoin="round" opacity="0.5"><path d="M91.69120000000001 18l-0.8415999999999997 24 1.1839999999999993 20 -1.0528000000000004 27 2.1904000000000003 24"/><path d="M91.6984 18l-0.8399999999999999 24 1.1820000000000004 20 -1.0511999999999997 27 2.192 24"/></g><g transform="translate(128)" fill="none" stroke="#6aa784" stroke-width="4" stroke-linecap="round" stroke-linejoin="round" opacity="0.62"><path d="M61.8616 18l-0.8415999999999997 24 1.1839999999999993 20 -1.0528000000000004 27 2.1904000000000003 24"/><path d="M61.8544 18l-0.8399999999999999 24 1.1820000000000004 20 -1.0511999999999997 27 2.192 24"/><path d="M61.8472 18l-0.8448000000000002 24 1.1799999999999997 20 -1.056 27 2.1936 24"/></g><g transform="translate(256)" fill="none" stroke="#ba5b4f" stroke-width="5" stroke-linecap="round" stroke-linejoin="round" opacity="0.74"><path d="M60.688 18l-0.8415999999999997 24 1.1839999999999993 20 -1.0528000000000004 27 2.1904000000000003 24"/><path d="M60.6952 18l-0.8399999999999999 24 1.1820000000000004 20 -1.0511999999999997 27 2.192 24"/><path d="M60.7024 18l-0.8448000000000002 24 1.1799999999999997 20 -1.056 27 2.1936 24"/><path d="M60.7096 18l-0.8432000000000004 24 1.1780000000000008 20 -1.0544000000000002 27 2.1952 24"/></g><g transform="translate(384)" fill="none" stroke="#ba5b4f" stroke-width="6" stroke-linecap="round" stroke-linejoin="round" opacity="0.86"><path d="M61.3864 18l-0.8415999999999997 24 1.1839999999999993 20 -1.0528000000000004 27 2.1904000000000003 24"/><path d="M61.3792 18l-0.8399999999999999 24 1.1820000000000004 20 -1.0511999999999997 27 2.192 24"/><path d="M61.4008 18l-0.8448000000000002 24 1.1799999999999997 20 -1.056 27 2.1936 24"/><path d="M61.3936 18l-0.8432000000000004 24 1.1780000000000008 20 -1.0544000000000002 27 2.1952 24"/><path d="M61.3576 18l-0.8352000000000004 24 1.1760000000000002 20 -1.0591999999999997 27 2.1967999999999996 24"/></g></svg>
