<svg xmlns="http://www.w3.org/2000/svg" width="768" height="1024" viewBox="0 0 768 1024"><rect width="768" height="1024" fill="#282447"/><rect width="768" height="740" fill="#091827"/><circle cx="206.5152" cy="84.63000000000001" r="1" fill="#29a3a3" opacity=".35"/><circle cx="206.4384" cy="84.6" r="2" fill="#29a3a3" opacity=".35"/><circle cx="206.6688" cy="84.69" r="1" fill="#29a3a3" opacity=".35"/><circle cx="206.592" cy="84.66" r="2" fill="#29a3a3" opacity=".35"/><circle cx="206.8224" cy="84.51" r="1" fill="#29a3a3" opacity=".35"/><circle cx="206.7456" cy="84.48" r="2" fill="#29a3a3" opacity=".35"/><circle cx="206.976" cy="84.57" r="1" fill="#29a3a3" opacity=".35"/><circle cx="206.89919999999998" cy="84.53999999999999" r="2" fill="#29a3a3" opacity=".35"/><circle cx="207.12959999999998" cy="84.86999999999999" r="1" fill="#29a3a3" opacity=".35"/><circle cx="207.0528" cy="84.84" r="2" fill="#29a3a3" opacity=".35"/><circle cx="208.89600000000002" cy="85.56" r="1" fill="#29a3a3" opacity=".35"/><circle cx="208.9728" cy="85.59" r="2" fill="#29a3a3" opacity=".35"/><circle cx="209.0496" cy="85.61999999999999" r="1" fill="#29a3a3" opacity=".35"/><circle cx="209.1264" cy="85.64999999999999" r="2" fill="#29a3a3" opacity=".35"/><circle cx="209.20319999999998" cy="85.44" r="1" fill="#29a3a3" opacity=".35"/><circle cx="209.28000000000003" cy="85.47" r="2" fill="#29a3a3" opacity=".35"/><circle cx="209.35680000000002" cy="85.49999999999999" r="1" fill="#29a3a3" opacity=".35"/><circle cx="209.4336" cy="85.53" r="2" fill="#29a3a3" opacity=".35"/><circle cx="209.5104" cy="85.8" r="1" fill="#29a3a3" opacity=".35"/><circle cx="209.5872" cy="85.83000000000001" r="2" fill="#29a3a3" opacity=".35"/><circle cx="211.584" cy="86.61" r="1" fill="#29a3a3" opacity=".35"/><circle cx="211.50719999999998" cy="86.58000000000001" r="2" fill="#29a3a3" opacity=".35"/><circle cx="211.4304" cy="86.55" r="1" fill="#29a3a3" opacity=".35"/><circle cx="211.3536" cy="86.52" r="2" fill="#29a3a3" opacity=".35"/><circle cx="211.89119999999997" cy="86.49" r="1" fill="#29a3a3" opacity=".35"/><circle cx="211.81439999999998" cy="86.46000000000001" r="2" fill="#29a3a3" opacity=".35"/><circle cx="211.7376" cy="86.43" r="1" fill="#29a3a3" opacity=".35"/><circle cx="211.6608" cy="86.39999999999999" r="2" fill="#29a3a3" opacity=".35"/><circle cx="212.1984" cy="86.85" r="1" fill="#29a3a3" opacity=".35"/><circle cx="212.1216" cy="86.82" r="2" fill="#29a3a3" opacity=".35"/><path d="M-30 650V524.55L-30,524.55 22.72,524.55V650Z" fill="#13263a" stroke="#07111d" stroke-width="4"/><path d="M36 650V524.525L36,524.525 88.7255,524.525V650Z" fill="#101f30" stroke="#07111d" stroke-width="4"/><path d="M102 650V524.6L102,524.6 154.731,524.6V650Z" fill="#13263a" stroke="#07111d" stroke-width="4"/><path d="M168 650V524.575L168,524.575 220.7365,524.575V650Z" fill="#101f30" stroke="#07111d" stroke-width="4"/><path d="M234 650V524.45L234,524.45 286.742,524.45V650Z" fill="#13263a" stroke="#07111d" stroke-width="4"/><path d="M300 650V524.425L300,524.425 352.7475,524.425V650Z" fill="#101f30" stroke="#07111d" stroke-width="4"/><path d="M366 650V524.5L366,524.5 418.753,524.5V650Z" fill="#13263a" stroke="#07111d" stroke-width="4"/><path d="M432 650V524.475L432,524.475 484.7585,524.475V650Z" fill="#101f30" stroke="#07111d" stroke-width="4"/><path d="M498 650V524.35L498,524.35 550.764,524.35V650Z" fill="#13263a" stroke="#07111d" stroke-width="4"/><path d="M564 650V524.325L564,524.325 616.7695,524.325V650Z" fill="#101f30" stroke="#07111d" stroke-width="4"/><path d="M630 650V525.325L630,525.325 672.1655,525.325V650Z" fill="#13263a" stroke="#07111d" stroke-width="4"/><path d="M696 650V525.35L696,525.35 738.16,525.35V650Z" fill="#101f30" stroke="#07111d" stroke-width="4"/><path d="M762 650V525.375L762,525.375 804.1765,525.375V650Z" fill="#13263a" stroke="#07111d" stroke-width="4"/><rect x="110.216" y="300.976" width="4" height="8" rx="2" fill="#c99b3b" opacity=".55"/><rect x="110.144" y="301.012" width="4" height="8" rx="2" fill="#29a3a3" opacity=".55"/><rect x="110.36" y="301.048" width="4" height="8" rx="2" fill="#29a3a3" opacity=".55"/><rect x="110.28800000000001" y="301.084" width="4" height="8" rx="2" fill="#c99b3b" opacity=".55"/><rect x="109.928" y="301.12" width="4" height="8" rx="2" fill="#29a3a3" opacity=".55"/><rect x="109.856" y="301.156" width="4" height="8" rx="2" fill="#29a3a3" opacity=".55"/><rect x="110.07199999999999" y="301.192" width="4" height="8" rx="2" fill="#c99b3b" opacity=".55"/><rect x="110" y="301.228" width="4" height="8" rx="2" fill="#29a3a3" opacity=".55"/><rect x="110.79199999999999" y="300.688" width="4" height="8" rx="2" fill="#29a3a3" opacity=".55"/><rect x="110.72" y="300.724" width="4" height="8" rx="2" fill="#c99b3b" opacity=".55"/><rect x="117.2" y="299.86" width="4" height="8" rx="2" fill="#29a3a3" opacity=".55"/><rect x="117.27199999999999" y="299.824" width="4" height="8" rx="2" fill="#29a3a3" opacity=".55"/><rect x="117.056" y="299.932" width="4" height="8" rx="2" fill="#c99b3b" opacity=".55"/><rect x="117.128" y="299.896" width="4" height="8" rx="2" fill="#29a3a3" opacity=".55"/><rect x="116.91199999999999" y="300.004" width="4" height="8" rx="2" fill="#29a3a3" opacity=".55"/><rect x="116.984" y="299.968" width="4" height="8" rx="2" fill="#c99b3b" opacity=".55"/><rect x="116.768" y="300.076" width="4" height="8" rx="2" fill="#29a3a3" opacity=".55"/><rect x="116.84" y="300.04" width="4" height="8" rx="2" fill="#29a3a3" opacity=".55"/><path d="M0 690C180 610 300 750 768 620V780H0Z" fill="#153642"/><path d="M40 650C250 580 430 730 730 610" fill="none" stroke="#29a3a3" stroke-width="8" opacity=".7"/><path d="M0 705H768V1024H0Z" fill="#0b1825"/><path d="M0 730H768" stroke="#29a3a3" stroke-width="4" opacity=".5"/><path d="M0 855H768M80 730V1024M250 730V1024M518 730V1024M688 730V1024" stroke="#1d3548" stroke-width="3"/><ellipse cx="590" cy="775" rx="110" ry="28" fill="#03070d" opacity=".6"/><path d="M0 712H768" stroke="#c99b3b" stroke-width="3" opacity=".35"/></svg>
