<svg xmlns="http://www.w3.org/2000/svg" width="512" height="128" viewBox="0 0 512 128"><g transform="translate(0)" fill="none" stroke="#29a3a3" stroke-width="3" stroke-linecap="round" stroke-linejoin="round" opacity="0.5"><path d="M49.888 18l-5.945600000000001 24 7.3 20 -5.7344 27 3.6976000000000004 24"/><path d="M49.8952 18l-5.944 24 7.298 20 -5.7328 27 3.6992000000000003 24"/></g><g transform="translate(128)" fill="none" stroke="#29a3a3" stroke-width="4" stroke-linecap="round" stroke-linejoin="round" opacity="0.62"><path d="M36.071200000000005 18l-5.945600000000001 24 7.3 20 -5.7344 27 3.6976000000000004 24"/><path d="M36.064 18l-5.944 24 7.298 20 -5.7328 27 3.6992000000000003 24"/><path d="M36.0856 18l-5.9424 24 7.304 20 -5.731199999999999 27 3.6944 24"/></g><g transform="translate(256)" fill="none" stroke="#c99b3b" stroke-width="5" stroke-linecap="round" stroke-linejoin="round" opacity="0.74"><path d="M36.7696 18l-5.945600000000001 24 7.3 20 -5.7344 27 3.6976000000000004 24"/><path d="M36.7768 18l-5.944 24 7.298 20 -5.7328 27 3.6992000000000003 24"/><path d="M36.7552 18l-5.9424 24 7.304 20 -5.731199999999999 27 3.6944 24"/><path d="M36.7624 18l-5.940799999999999 24 7.302 20 -5.7296 27 3.6959999999999997 24"/></g><g transform="translate(384)" fill="none" stroke="#c99b3b" stroke-width="6" stroke-linecap="round" stroke-linejoin="round" opacity="0.86"><path d="M36.5464 18l-5.945600000000001 24 7.3 20 -5.7344 27 3.6976000000000004 24"/><path d="M36.5392 18l-5.944 24 7.298 20 -5.7328 27 3.6992000000000003 24"/><path d="M36.532 18l-5.9424 24 7.304 20 -5.731199999999999 27 3.6944 24"/><path d="M36.5248 18l-5.940799999999999 24 7.302 20 -5.7296 27 3.6959999999999997 24"/><path d="M36.5752 18l-5.952 24 7.308 20 -5.728 27 3.6912000000000003 24"/></g></svg>
