<svg xmlns="http://www.w3.org/2000/svg" width="768" height="1024" viewBox="0 0 768 1024"><rect width="768" height="1024" fill="#263249"/><rect width="768" height="740" fill="#091827"/><circle cx="220.6464" cy="90.14999999999999" r="1" fill="#6dc6e6" opacity=".35"/><circle cx="220.5696" cy="90.12" r="2" fill="#6dc6e6" opacity=".35"/><circle cx="220.79999999999998" cy="90.21000000000001" r="1" fill="#6dc6e6" opacity=".35"/><circle cx="220.7232" cy="90.17999999999999" r="2" fill="#6dc6e6" opacity=".35"/><circle cx="220.9536" cy="90.02999999999999" r="1" fill="#6dc6e6" opacity=".35"/><circle cx="220.8768" cy="90" r="2" fill="#6dc6e6" opacity=".35"/><circle cx="221.10719999999998" cy="90.09" r="1" fill="#6dc6e6" opacity=".35"/><circle cx="221.0304" cy="90.06" r="2" fill="#6dc6e6" opacity=".35"/><circle cx="220.03199999999998" cy="89.91000000000001" r="1" fill="#6dc6e6" opacity=".35"/><circle cx="219.9552" cy="89.88" r="2" fill="#6dc6e6" opacity=".35"/><circle cx="223.0272" cy="91.08" r="1" fill="#6dc6e6" opacity=".35"/><circle cx="223.10399999999998" cy="91.11000000000001" r="2" fill="#6dc6e6" opacity=".35"/><circle cx="223.18080000000003" cy="91.14" r="1" fill="#6dc6e6" opacity=".35"/><circle cx="223.25760000000002" cy="91.17" r="2" fill="#6dc6e6" opacity=".35"/><circle cx="223.33440000000002" cy="90.96000000000001" r="1" fill="#6dc6e6" opacity=".35"/><circle cx="223.4112" cy="90.99000000000001" r="2" fill="#6dc6e6" opacity=".35"/><circle cx="223.488" cy="91.02" r="1" fill="#6dc6e6" opacity=".35"/><circle cx="223.56480000000002" cy="91.05" r="2" fill="#6dc6e6" opacity=".35"/><circle cx="222.4128" cy="90.84" r="1" fill="#6dc6e6" opacity=".35"/><circle cx="222.4896" cy="90.87" r="2" fill="#6dc6e6" opacity=".35"/><circle cx="225.71519999999998" cy="92.13" r="1" fill="#6dc6e6" opacity=".35"/><circle cx="225.6384" cy="92.1" r="2" fill="#6dc6e6" opacity=".35"/><circle cx="225.5616" cy="92.07000000000001" r="1" fill="#6dc6e6" opacity=".35"/><circle cx="225.4848" cy="92.04" r="2" fill="#6dc6e6" opacity=".35"/><circle cx="226.0224" cy="92.00999999999999" r="1" fill="#6dc6e6" opacity=".35"/><circle cx="225.9456" cy="91.97999999999999" r="2" fill="#6dc6e6" opacity=".35"/><circle cx="225.86879999999996" cy="91.95" r="1" fill="#6dc6e6" opacity=".35"/><circle cx="225.79199999999997" cy="91.92" r="2" fill="#6dc6e6" opacity=".35"/><circle cx="225.10080000000002" cy="91.89" r="1" fill="#6dc6e6" opacity=".35"/><circle cx="225.024" cy="91.86000000000001" r="2" fill="#6dc6e6" opacity=".35"/><path d="M-30 650V480.75L-30,480.75 59.988,480.75V650Z" fill="#13263a" stroke="#07111d" stroke-width="4"/><path d="M36 650V480.725L36,480.725 125.9935,480.725V650Z" fill="#101f30" stroke="#07111d" stroke-width="4"/><path d="M102 650V480.8L102,480.8 191.999,480.8V650Z" fill="#13263a" stroke="#07111d" stroke-width="4"/><path d="M168 650V480.775L168,480.775 258.0045,480.775V650Z" fill="#101f30" stroke="#07111d" stroke-width="4"/><path d="M234 650V480.65L234,480.65 324.01,480.65V650Z" fill="#13263a" stroke="#07111d" stroke-width="4"/><path d="M300 650V480.625L300,480.625 390.0155,480.625V650Z" fill="#101f30" stroke="#07111d" stroke-width="4"/><path d="M366 650V480.7L366,480.7 456.021,480.7V650Z" fill="#13263a" stroke="#07111d" stroke-width="4"/><path d="M432 650V480.675L432,480.675 522.0264999999999,480.675V650Z" fill="#101f30" stroke="#07111d" stroke-width="4"/><path d="M498 650V480.95L498,480.95 587.944,480.95V650Z" fill="#13263a" stroke="#07111d" stroke-width="4"/><path d="M564 650V480.925L564,480.925 653.9495,480.925V650Z" fill="#101f30" stroke="#07111d" stroke-width="4"/><path d="M630 650V481.525L630,481.525 681.8015,481.525V650Z" fill="#13263a" stroke="#07111d" stroke-width="4"/><path d="M696 650V481.55L696,481.55 747.796,481.55V650Z" fill="#101f30" stroke="#07111d" stroke-width="4"/><path d="M762 650V481.575L762,481.575 813.8125,481.575V650Z" fill="#13263a" stroke="#07111d" stroke-width="4"/><rect x="236.35999999999999" y="345.04" width="4" height="8" rx="2" fill="#e9a24f" opacity=".55"/><rect x="236.288" y="345.076" width="4" height="8" rx="2" fill="#6dc6e6" opacity=".55"/><rect x="236.50400000000002" y="345.11199999999997" width="4" height="8" rx="2" fill="#6dc6e6" opacity=".55"/><rect x="236.432" y="345.148" width="4" height="8" rx="2" fill="#e9a24f" opacity=".55"/><rect x="236.07199999999997" y="345.184" width="4" height="8" rx="2" fill="#6dc6e6" opacity=".55"/><rect x="236" y="345.22" width="4" height="8" rx="2" fill="#6dc6e6" opacity=".55"/><rect x="236.216" y="345.256" width="4" height="8" rx="2" fill="#e9a24f" opacity=".55"/><rect x="236.144" y="345.29200000000003" width="4" height="8" rx="2" fill="#6dc6e6" opacity=".55"/><rect x="235.78400000000002" y="345.328" width="4" height="8" rx="2" fill="#6dc6e6" opacity=".55"/><rect x="235.712" y="345.36400000000003" width="4" height="8" rx="2" fill="#e9a24f" opacity=".55"/><rect x="243.344" y="343.924" width="4" height="8" rx="2" fill="#6dc6e6" opacity=".55"/><rect x="243.41600000000003" y="343.888" width="4" height="8" rx="2" fill="#6dc6e6" opacity=".55"/><rect x="243.2" y="343.996" width="4" height="8" rx="2" fill="#e9a24f" opacity=".55"/><rect x="243.272" y="343.96000000000004" width="4" height="8" rx="2" fill="#6dc6e6" opacity=".55"/><rect x="243.056" y="344.068" width="4" height="8" rx="2" fill="#6dc6e6" opacity=".55"/><rect x="243.12800000000001" y="344.032" width="4" height="8" rx="2" fill="#e9a24f" opacity=".55"/><rect x="242.91199999999998" y="344.14" width="4" height="8" rx="2" fill="#6dc6e6" opacity=".55"/><rect x="242.98399999999998" y="344.10400000000004" width="4" height="8" rx="2" fill="#6dc6e6" opacity=".55"/><path d="M30 650L120 360h170l70 290M410 650l90-390h160l80 390" fill="#162b41" stroke="#07111d" stroke-width="7"/><path d="M120 410h150M510 320h125" stroke="#6dc6e6" stroke-width="8"/><path d="M0 705H768V1024H0Z" fill="#0b1825"/><path d="M0 730H768" stroke="#6dc6e6" stroke-width="4" opacity=".5"/><path d="M0 855H768M80 730V1024M250 730V1024M518 730V1024M688 730V1024" stroke="#1d3548" stroke-width="3"/><ellipse cx="590" cy="775" rx="110" ry="28" fill="#03070d" opacity=".6"/><path d="M0 712H768" stroke="#e9a24f" stroke-width="3" opacity=".35"/></svg>
