<svg xmlns="http://www.w3.org/2000/svg" width="512" height="128" viewBox="0 0 512 128"><g transform="translate(0)" fill="none" stroke="#6dc6e6" stroke-width="3" stroke-linecap="round" stroke-linejoin="round" opacity="0.5"><path d="M98.6752 18l-3.1424000000000003 24 3.7960000000000003 20 -3.776 27 3.4032 24"/><path d="M98.6824 18l-3.1407999999999996 24 3.7939999999999996 20 -3.7744 27 3.4048 24"/></g><g transform="translate(128)" fill="none" stroke="#6dc6e6" stroke-width="4" stroke-linecap="round" stroke-linejoin="round" opacity="0.62"><path d="M48.6856 18l-3.1424000000000003 24 3.7960000000000003 20 -3.776 27 3.4032 24"/><path d="M48.678399999999996 18l-3.1407999999999996 24 3.7939999999999996 20 -3.7744 27 3.4048 24"/><path d="M48.7 18l-3.1391999999999998 24 3.8 20 -3.7728 27 3.4000000000000004 24"/></g><g transform="translate(256)" fill="none" stroke="#e9a24f" stroke-width="5" stroke-linecap="round" stroke-linejoin="round" opacity="0.74"><path d="M49.384 18l-3.1424000000000003 24 3.7960000000000003 20 -3.776 27 3.4032 24"/><path d="M49.3912 18l-3.1407999999999996 24 3.7939999999999996 20 -3.7744 27 3.4048 24"/><path d="M49.369600000000005 18l-3.1391999999999998 24 3.8 20 -3.7728 27 3.4000000000000004 24"/><path d="M49.3768 18l-3.1376 24 3.798 20 -3.7712000000000003 27 3.4016 24"/></g><g transform="translate(384)" fill="none" stroke="#e9a24f" stroke-width="6" stroke-linecap="round" stroke-linejoin="round" opacity="0.86"><path d="M49.160799999999995 18l-3.1424000000000003 24 3.7960000000000003 20 -3.776 27 3.4032 24"/><path d="M49.1536 18l-3.1407999999999996 24 3.7939999999999996 20 -3.7744 27 3.4048 24"/><path d="M49.1464 18l-3.1391999999999998 24 3.8 20 -3.7728 27 3.4000000000000004 24"/><path d="M49.1392 18l-3.1376 24 3.798 20 -3.7712000000000003 27 3.4016 24"/><path d="M49.1896 18l-3.1487999999999996 24 3.8039999999999994 20 -3.7695999999999996 27 3.3968 24"/></g></svg>
