<svg xmlns="http://www.w3.org/2000/svg" width="768" height="1024" viewBox="0 0 768 1024"><rect width="768" height="1024" fill="#172a42"/><rect width="768" height="740" fill="#091827"/><circle cx="37.4784" cy="18.6" r="1" fill="#e87936" opacity=".35"/><circle cx="37.5552" cy="18.63" r="2" fill="#e87936" opacity=".35"/><circle cx="37.632000000000005" cy="18.66" r="1" fill="#e87936" opacity=".35"/><circle cx="37.7088" cy="18.69" r="2" fill="#e87936" opacity=".35"/><circle cx="37.7856" cy="18.48" r="1" fill="#e87936" opacity=".35"/><circle cx="37.862399999999994" cy="18.509999999999998" r="2" fill="#e87936" opacity=".35"/><circle cx="37.9392" cy="18.54" r="1" fill="#e87936" opacity=".35"/><circle cx="38.016000000000005" cy="18.57" r="2" fill="#e87936" opacity=".35"/><circle cx="36.864000000000004" cy="18.36" r="1" fill="#e87936" opacity=".35"/><circle cx="36.940799999999996" cy="18.39" r="2" fill="#e87936" opacity=".35"/><circle cx="44.928000000000004" cy="21.51" r="1" fill="#e87936" opacity=".35"/><circle cx="44.8512" cy="21.48" r="2" fill="#e87936" opacity=".35"/><circle cx="45.0816" cy="21.57" r="1" fill="#e87936" opacity=".35"/><circle cx="45.0048" cy="21.54" r="2" fill="#e87936" opacity=".35"/><circle cx="45.2352" cy="21.39" r="1" fill="#e87936" opacity=".35"/><circle cx="45.1584" cy="21.36" r="2" fill="#e87936" opacity=".35"/><circle cx="45.3888" cy="21.45" r="1" fill="#e87936" opacity=".35"/><circle cx="45.312" cy="21.42" r="2" fill="#e87936" opacity=".35"/><circle cx="44.3136" cy="21.270000000000003" r="1" fill="#e87936" opacity=".35"/><circle cx="44.2368" cy="21.240000000000002" r="2" fill="#e87936" opacity=".35"/><circle cx="42.5472" cy="20.58" r="1" fill="#e87936" opacity=".35"/><circle cx="42.624" cy="20.61" r="2" fill="#e87936" opacity=".35"/><circle cx="42.3936" cy="20.52" r="1" fill="#e87936" opacity=".35"/><circle cx="42.4704" cy="20.55" r="2" fill="#e87936" opacity=".35"/><circle cx="42.8544" cy="20.459999999999997" r="1" fill="#e87936" opacity=".35"/><circle cx="42.9312" cy="20.49" r="2" fill="#e87936" opacity=".35"/><circle cx="42.7008" cy="20.400000000000002" r="1" fill="#e87936" opacity=".35"/><circle cx="42.7776" cy="20.43" r="2" fill="#e87936" opacity=".35"/><circle cx="41.9328" cy="20.34" r="1" fill="#e87936" opacity=".35"/><circle cx="42.0096" cy="20.37" r="2" fill="#e87936" opacity=".35"/><path d="M-30 650V534.725L-30,534.725 46.3535,534.725V650Z" fill="#13263a" stroke="#07111d" stroke-width="4"/><path d="M36 650V534.75L36,534.75 112.348,534.75V650Z" fill="#101f30" stroke="#07111d" stroke-width="4"/><path d="M102 650V534.775L102,534.775 178.3645,534.775V650Z" fill="#13263a" stroke="#07111d" stroke-width="4"/><path d="M168 650V534.8L168,534.8 244.359,534.8V650Z" fill="#101f30" stroke="#07111d" stroke-width="4"/><path d="M234 650V534.625L234,534.625 310.3755,534.625V650Z" fill="#13263a" stroke="#07111d" stroke-width="4"/><path d="M300 650V534.65L300,534.65 376.37,534.65V650Z" fill="#101f30" stroke="#07111d" stroke-width="4"/><path d="M366 650V534.675L366,534.675 442.3865,534.675V650Z" fill="#13263a" stroke="#07111d" stroke-width="4"/><path d="M432 650V534.7L432,534.7 508.381,534.7V650Z" fill="#101f30" stroke="#07111d" stroke-width="4"/><path d="M498 650V534.925L498,534.925 574.3095,534.925V650Z" fill="#13263a" stroke="#07111d" stroke-width="4"/><path d="M564 650V534.95L564,534.95 640.304,534.95V650Z" fill="#101f30" stroke="#07111d" stroke-width="4"/><path d="M630 650V533.95L630,533.95 670.268,533.95V650Z" fill="#13263a" stroke="#07111d" stroke-width="4"/><path d="M696 650V533.925L696,533.925 736.2735,533.925V650Z" fill="#101f30" stroke="#07111d" stroke-width="4"/><path d="M762 650V534L762,534 802.279,534V650Z" fill="#13263a" stroke="#07111d" stroke-width="4"/><rect x="85.376" y="267.316" width="4" height="8" rx="2" fill="#4da9e8" opacity=".55"/><rect x="85.448" y="267.28" width="4" height="8" rx="2" fill="#e87936" opacity=".55"/><rect x="85.52" y="267.388" width="4" height="8" rx="2" fill="#e87936" opacity=".55"/><rect x="85.592" y="267.352" width="4" height="8" rx="2" fill="#4da9e8" opacity=".55"/><rect x="85.088" y="267.46" width="4" height="8" rx="2" fill="#e87936" opacity=".55"/><rect x="85.16" y="267.424" width="4" height="8" rx="2" fill="#e87936" opacity=".55"/><rect x="85.232" y="267.532" width="4" height="8" rx="2" fill="#4da9e8" opacity=".55"/><rect x="85.304" y="267.496" width="4" height="8" rx="2" fill="#e87936" opacity=".55"/><rect x="84.8" y="267.604" width="4" height="8" rx="2" fill="#e87936" opacity=".55"/><rect x="84.872" y="267.568" width="4" height="8" rx="2" fill="#4da9e8" opacity=".55"/><rect x="87.896" y="268.432" width="4" height="8" rx="2" fill="#e87936" opacity=".55"/><rect x="87.824" y="268.468" width="4" height="8" rx="2" fill="#e87936" opacity=".55"/><rect x="87.752" y="268.504" width="4" height="8" rx="2" fill="#4da9e8" opacity=".55"/><rect x="87.68" y="268.54" width="4" height="8" rx="2" fill="#e87936" opacity=".55"/><rect x="87.608" y="268.576" width="4" height="8" rx="2" fill="#e87936" opacity=".55"/><rect x="87.536" y="268.612" width="4" height="8" rx="2" fill="#4da9e8" opacity=".55"/><rect x="87.464" y="268.648" width="4" height="8" rx="2" fill="#e87936" opacity=".55"/><rect x="87.392" y="268.684" width="4" height="8" rx="2" fill="#e87936" opacity=".55"/><path d="M30 650Q384 330 738 650" fill="#172d45" stroke="#07111d" stroke-width="8"/><path d="M80 640Q384 405 688 640" fill="none" stroke="#e87936" stroke-width="10"/><circle cx="384" cy="560" r="45" fill="none" stroke="#4da9e8" stroke-width="7"/><g id="apn-editorial-motifs">
    <g id="billboard" fill="#102033" stroke="#07111d" stroke-width="5">
      <path d="M42 300h132v86H42zM594 344h124v78H594z"/>
      <path d="M59 320h66M59 340h92M611 365h78M611 385h52" fill="none" stroke="#e87936" stroke-width="5" opacity=".7"/>
      <path d="M145 316h13v13h-13zM688 397h13v13h-13z" fill="#4da9e8" stroke="none"/>
    </g>
    <g id="signal-rail" fill="none" stroke-linecap="round">
      <path d="M0 528H768" stroke="#07111d" stroke-width="12"/>
      <path d="M0 528H768" stroke="#e87936" stroke-width="4" opacity=".65"/>
      <path d="M92 512v32M270 512v32M498 512v32M680 512v32" stroke="#4da9e8" stroke-width="4"/>
    </g>
    <path id="patchline" d="M0 606h178l28-24h176l30 24h356" fill="none" stroke="#4da9e8" stroke-width="5" opacity=".72"/>
    <g id="archive-lights" fill="#e87936">
      <circle cx="84" cy="606" r="5"/><circle cx="218" cy="582" r="5"/><circle cx="396" cy="594" r="5"/><circle cx="554" cy="606" r="5"/><circle cx="704" cy="606" r="5"/>
    </g>
  </g><path d="M0 705H768V1024H0Z" fill="#0b1825"/><path d="M0 730H768" stroke="#e87936" stroke-width="4" opacity=".5"/><path d="M0 855H768M80 730V1024M250 730V1024M518 730V1024M688 730V1024" stroke="#1d3548" stroke-width="3"/><ellipse cx="590" cy="775" rx="110" ry="28" fill="#03070d" opacity=".6"/><path d="M0 712H768" stroke="#4da9e8" stroke-width="3" opacity=".35"/></svg>
