<svg xmlns="http://www.w3.org/2000/svg" width="512" height="128" viewBox="0 0 512 128"><g transform="translate(0)" fill="none" stroke="#e87936" stroke-width="3" stroke-linecap="round" stroke-linejoin="round" opacity="0.5"><path d="M80.8264 18l-6.5968 24 8.114 20 -7.2304 27 7.2192 24"/><path d="M80.8192 18l-6.5984 24 8.116 20 -7.232 27 7.2176 24"/></g><g transform="translate(128)" fill="none" stroke="#e87936" stroke-width="4" stroke-linecap="round" stroke-linejoin="round" opacity="0.62"><path d="M33.5872 18l-6.5968 24 8.114 20 -7.2304 27 7.2192 24"/><path d="M33.5944 18l-6.5984 24 8.116 20 -7.232 27 7.2176 24"/><path d="M33.6016 18l-6.5936 24 8.118 20 -7.2272 27 7.216 24"/></g><g transform="translate(256)" fill="none" stroke="#4da9e8" stroke-width="5" stroke-linecap="round" stroke-linejoin="round" opacity="0.74"><path d="M33.8392 18l-6.5968 24 8.114 20 -7.2304 27 7.2192 24"/><path d="M33.832 18l-6.5984 24 8.116 20 -7.232 27 7.2176 24"/><path d="M33.824799999999996 18l-6.5936 24 8.118 20 -7.2272 27 7.216 24"/><path d="M33.8176 18l-6.5952 24 8.120000000000001 20 -7.2288 27 7.2144 24"/></g><g transform="translate(384)" fill="none" stroke="#4da9e8" stroke-width="6" stroke-linecap="round" stroke-linejoin="round" opacity="0.86"><path d="M34.0624 18l-6.5968 24 8.114 20 -7.2304 27 7.2192 24"/><path d="M34.0696 18l-6.5984 24 8.116 20 -7.232 27 7.2176 24"/><path d="M34.048 18l-6.5936 24 8.118 20 -7.2272 27 7.216 24"/><path d="M34.0552 18l-6.5952 24 8.120000000000001 20 -7.2288 27 7.2144 24"/><path d="M34.0912 18l-6.6032 24 8.122 20 -7.224 27 7.2128 24"/></g></svg>
