<svg xmlns="http://www.w3.org/2000/svg" width="896" height="128" viewBox="0 0 896 128"><g transform="translate(0 8) scale(0.82) translate(14 14)"><ellipse cx="64" cy="116" rx="52" ry="8" fill="#03070d" opacity=".75"/><g fill="#4da9e8" stroke="#07111d" stroke-width="6" stroke-linecap="round" stroke-linejoin="round"><path d="M20 75l14-27h50l25 23v25H17Z"/><path d="M42 50l11-18h30l17 39"/><circle cx="39" cy="98" r="14"/><circle cx="91" cy="98" r="14"/></g><circle cx="64" cy="67" r="8" fill="#e87936" stroke="#07111d" stroke-width="4"/></g><g transform="translate(128 8) scale(0.82) translate(14 14)"><ellipse cx="64" cy="116" rx="52" ry="8" fill="#03070d" opacity=".75"/><g fill="#4da9e8" stroke="#07111d" stroke-width="6" stroke-linecap="round" stroke-linejoin="round"><path d="M20 75l14-27h50l25 23v25H17Z"/><path d="M42 50l11-18h30l17 39"/><circle cx="39" cy="98" r="14"/><circle cx="91" cy="98" r="14"/></g><circle cx="64" cy="67" r="8" fill="#e87936" stroke="#07111d" stroke-width="4"/></g><g transform="translate(256 8) scale(0.82) translate(14 14)"><ellipse cx="64" cy="116" rx="52" ry="8" fill="#03070d" opacity=".75"/><g fill="#4da9e8" stroke="#07111d" stroke-width="6" stroke-linecap="round" stroke-linejoin="round"><path d="M20 75l14-27h50l25 23v25H17Z"/><path d="M42 50l11-18h30l17 39"/><circle cx="39" cy="98" r="14"/><circle cx="91" cy="98" r="14"/></g><circle cx="64" cy="67" r="8" fill="#e87936" stroke="#07111d" stroke-width="4"/></g><g transform="translate(384 8) scale(0.82) translate(14 14)"><ellipse cx="64" cy="116" rx="52" ry="8" fill="#03070d" opacity=".75"/><g fill="#4da9e8" stroke="#07111d" stroke-width="6" stroke-linecap="round" stroke-linejoin="round"><path d="M20 75l14-27h50l25 23v25H17Z"/><path d="M42 50l11-18h30l17 39"/><circle cx="39" cy="98" r="14"/><circle cx="91" cy="98" r="14"/></g><circle cx="64" cy="67" r="8" fill="#e87936" stroke="#07111d" stroke-width="4"/></g><g transform="translate(512 8) scale(0.82) translate(14 14)"><ellipse cx="64" cy="116" rx="52" ry="8" fill="#03070d" opacity=".75"/><g fill="#4da9e8" stroke="#07111d" stroke-width="6" stroke-linecap="round" stroke-linejoin="round"><path d="M20 75l14-27h50l25 23v25H17Z"/><path d="M42 50l11-18h30l17 39"/><circle cx="39" cy="98" r="14"/><circle cx="91" cy="98" r="14"/></g><circle cx="64" cy="67" r="8" fill="#e87936" stroke="#07111d" stroke-width="4"/></g><g transform="translate(640 8) scale(1.04) translate(0 14)"><ellipse cx="64" cy="116" rx="52" ry="8" fill="#03070d" opacity=".75"/><g fill="#4da9e8" stroke="#07111d" stroke-width="6" stroke-linecap="round" stroke-linejoin="round"><path d="M20 75l14-27h50l25 23v25H17Z"/><path d="M42 50l11-18h30l17 39"/><circle cx="39" cy="98" r="14"/><circle cx="91" cy="98" r="14"/></g><circle cx="64" cy="67" r="8" fill="#e87936" stroke="#07111d" stroke-width="4"/></g><g transform="translate(768 8) scale(1.04) translate(0 14)"><ellipse cx="64" cy="116" rx="52" ry="8" fill="#03070d" opacity=".75"/><g fill="#e87936" stroke="#07111d" stroke-width="6" stroke-linecap="round" stroke-linejoin="round"><path d="M20 75l14-27h50l25 23v25H17Z"/><path d="M42 50l11-18h30l17 39"/><circle cx="39" cy="98" r="14"/><circle cx="91" cy="98" r="14"/></g><circle cx="64" cy="67" r="8" fill="#e87936" stroke="#07111d" stroke-width="4"/><path d="M45 46l14 15-10 17 18 15M80 43L66 62l17 13" fill="none" stroke="#07111d" stroke-width="4"/></g></svg>
