<svg xmlns="http://www.w3.org/2000/svg" width="768" height="1024" viewBox="0 0 768 1024"><rect width="768" height="1024" fill="#241c33"/><rect width="768" height="740" fill="#091827"/><circle cx="225.10080000000002" cy="91.89" r="1" fill="#c0608a" opacity=".35"/><circle cx="225.024" cy="91.86000000000001" r="2" fill="#c0608a" opacity=".35"/><circle cx="224.9472" cy="91.83" r="1" fill="#c0608a" opacity=".35"/><circle cx="224.87040000000002" cy="91.8" r="2" fill="#c0608a" opacity=".35"/><circle cx="225.408" cy="91.77" r="1" fill="#c0608a" opacity=".35"/><circle cx="225.3312" cy="91.74000000000001" r="2" fill="#c0608a" opacity=".35"/><circle cx="225.2544" cy="91.71000000000001" r="1" fill="#c0608a" opacity=".35"/><circle cx="225.1776" cy="91.67999999999999" r="2" fill="#c0608a" opacity=".35"/><circle cx="225.71519999999998" cy="92.13" r="1" fill="#c0608a" opacity=".35"/><circle cx="225.6384" cy="92.1" r="2" fill="#c0608a" opacity=".35"/><circle cx="217.6512" cy="88.97999999999999" r="1" fill="#c0608a" opacity=".35"/><circle cx="217.72799999999998" cy="89.01" r="2" fill="#c0608a" opacity=".35"/><circle cx="217.4976" cy="88.92" r="1" fill="#c0608a" opacity=".35"/><circle cx="217.5744" cy="88.94999999999999" r="2" fill="#c0608a" opacity=".35"/><circle cx="217.95839999999998" cy="88.86" r="1" fill="#c0608a" opacity=".35"/><circle cx="218.03519999999997" cy="88.89" r="2" fill="#c0608a" opacity=".35"/><circle cx="217.8048" cy="88.8" r="1" fill="#c0608a" opacity=".35"/><circle cx="217.8816" cy="88.83" r="2" fill="#c0608a" opacity=".35"/><circle cx="218.2656" cy="89.22" r="1" fill="#c0608a" opacity=".35"/><circle cx="218.3424" cy="89.25" r="2" fill="#c0608a" opacity=".35"/><circle cx="220.03199999999998" cy="89.91000000000001" r="1" fill="#c0608a" opacity=".35"/><circle cx="219.9552" cy="89.88" r="2" fill="#c0608a" opacity=".35"/><circle cx="220.18560000000002" cy="89.97" r="1" fill="#c0608a" opacity=".35"/><circle cx="220.10880000000003" cy="89.94" r="2" fill="#c0608a" opacity=".35"/><circle cx="220.3392" cy="89.79" r="1" fill="#c0608a" opacity=".35"/><circle cx="220.2624" cy="89.76" r="2" fill="#c0608a" opacity=".35"/><circle cx="220.49280000000002" cy="89.85" r="1" fill="#c0608a" opacity=".35"/><circle cx="220.416" cy="89.82" r="2" fill="#c0608a" opacity=".35"/><circle cx="220.6464" cy="90.14999999999999" r="1" fill="#c0608a" opacity=".35"/><circle cx="220.5696" cy="90.12" r="2" fill="#c0608a" opacity=".35"/><path d="M-30 650V354.2L-30,354.2 19.738999999999997,354.2V650Z" fill="#13263a" stroke="#07111d" stroke-width="4"/><path d="M36 650V354.17499999999995L36,354.17499999999995 85.7445,354.17499999999995V650Z" fill="#101f30" stroke="#07111d" stroke-width="4"/><path d="M102 650V354.15L102,354.15 151.728,354.15V650Z" fill="#13263a" stroke="#07111d" stroke-width="4"/><path d="M168 650V354.125L168,354.125 217.7335,354.125V650Z" fill="#101f30" stroke="#07111d" stroke-width="4"/><path d="M234 650V354.1L234,354.1 283.76099999999997,354.1V650Z" fill="#13263a" stroke="#07111d" stroke-width="4"/><path d="M300 650V354.07500000000005L300,354.07500000000005 349.7665,354.07500000000005V650Z" fill="#101f30" stroke="#07111d" stroke-width="4"/><path d="M366 650V354.05L366,354.05 415.75,354.05V650Z" fill="#13263a" stroke="#07111d" stroke-width="4"/><path d="M432 650V354.025L432,354.025 481.7555,354.025V650Z" fill="#101f30" stroke="#07111d" stroke-width="4"/><path d="M498 650V354L498,354 547.783,354V650Z" fill="#13263a" stroke="#07111d" stroke-width="4"/><path d="M564 650V353.975L564,353.975 613.7885,353.975V650Z" fill="#101f30" stroke="#07111d" stroke-width="4"/><path d="M630 650V351.775L630,351.775 711.0725,351.775V650Z" fill="#13263a" stroke="#07111d" stroke-width="4"/><path d="M696 650V351.8L696,351.8 777.067,351.8V650Z" fill="#101f30" stroke="#07111d" stroke-width="4"/><path d="M762 650V351.725L762,351.725 843.0615,351.725V650Z" fill="#13263a" stroke="#07111d" stroke-width="4"/><rect x="619.544" y="551.032" width="4" height="8" rx="2" fill="#e0a34c" opacity=".55"/><rect x="619.472" y="551.068" width="4" height="8" rx="2" fill="#c0608a" opacity=".55"/><rect x="619.4" y="550.96" width="4" height="8" rx="2" fill="#c0608a" opacity=".55"/><rect x="619.328" y="550.996" width="4" height="8" rx="2" fill="#e0a34c" opacity=".55"/><rect x="619.2560000000001" y="551.1759999999999" width="4" height="8" rx="2" fill="#c0608a" opacity=".55"/><rect x="619.1840000000001" y="551.212" width="4" height="8" rx="2" fill="#c0608a" opacity=".55"/><rect x="619.112" y="551.104" width="4" height="8" rx="2" fill="#e0a34c" opacity=".55"/><rect x="619.04" y="551.14" width="4" height="8" rx="2" fill="#c0608a" opacity=".55"/><rect x="620.12" y="550.744" width="4" height="8" rx="2" fill="#c0608a" opacity=".55"/><rect x="620.048" y="550.78" width="4" height="8" rx="2" fill="#e0a34c" opacity=".55"/><rect x="607.808" y="554.524" width="4" height="8" rx="2" fill="#c0608a" opacity=".55"/><rect x="607.88" y="554.488" width="4" height="8" rx="2" fill="#c0608a" opacity=".55"/><rect x="607.952" y="554.452" width="4" height="8" rx="2" fill="#e0a34c" opacity=".55"/><rect x="608.024" y="554.4159999999999" width="4" height="8" rx="2" fill="#c0608a" opacity=".55"/><rect x="607.52" y="554.668" width="4" height="8" rx="2" fill="#c0608a" opacity=".55"/><rect x="607.592" y="554.6320000000001" width="4" height="8" rx="2" fill="#e0a34c" opacity=".55"/><rect x="607.664" y="554.596" width="4" height="8" rx="2" fill="#c0608a" opacity=".55"/><rect x="607.736" y="554.56" width="4" height="8" rx="2" fill="#c0608a" opacity=".55"/><path d="M70 680V410h120v270M578 680V410h120v270" fill="none" stroke="#c0608a" stroke-width="8"/><path d="M120 455h90v65h-90M558 455h90v65h-90" fill="none" stroke="#e0a34c" stroke-width="7"/><path d="M0 705H768V1024H0Z" fill="#0b1825"/><path d="M0 730H768" stroke="#c0608a" stroke-width="4" opacity=".5"/><path d="M0 855H768M80 730V1024M250 730V1024M518 730V1024M688 730V1024" stroke="#1d3548" stroke-width="3"/><ellipse cx="590" cy="775" rx="110" ry="28" fill="#03070d" opacity=".6"/><path d="M0 712H768" stroke="#e0a34c" stroke-width="3" opacity=".35"/></svg>
