<svg xmlns="http://www.w3.org/2000/svg" width="512" height="128" viewBox="0 0 512 128"><g transform="translate(0)" fill="none" stroke="#c0608a" stroke-width="3" stroke-linecap="round" stroke-linejoin="round" opacity="0.5"><path d="M45.9856 18l5.167999999999999 24 -6.327999999999999 20 5.379200000000001 27 3.3103999999999996 24"/><path d="M45.9928 18l5.169600000000001 24 -6.329999999999998 20 5.380800000000001 27 3.3120000000000003 24"/></g><g transform="translate(128)" fill="none" stroke="#c0608a" stroke-width="4" stroke-linecap="round" stroke-linejoin="round" opacity="0.62"><path d="M87.00399999999999 18l5.167999999999999 24 -6.327999999999999 20 5.379200000000001 27 3.3103999999999996 24"/><path d="M86.99680000000001 18l5.169600000000001 24 -6.329999999999998 20 5.380800000000001 27 3.3120000000000003 24"/><path d="M86.9896 18l5.1648 24 -6.332000000000001 20 5.3759999999999994 27 3.3136 24"/></g><g transform="translate(256)" fill="none" stroke="#e0a34c" stroke-width="5" stroke-linecap="round" stroke-linejoin="round" opacity="0.74"><path d="M85.8304 18l5.167999999999999 24 -6.327999999999999 20 5.379200000000001 27 3.3103999999999996 24"/><path d="M85.83760000000001 18l5.169600000000001 24 -6.329999999999998 20 5.380800000000001 27 3.3120000000000003 24"/><path d="M85.84479999999999 18l5.1648 24 -6.332000000000001 20 5.3759999999999994 27 3.3136 24"/><path d="M85.852 18l5.166399999999999 24 -6.334 20 5.377599999999999 27 3.3152 24"/></g><g transform="translate(384)" fill="none" stroke="#e0a34c" stroke-width="6" stroke-linecap="round" stroke-linejoin="round" opacity="0.86"><path d="M86.52879999999999 18l5.167999999999999 24 -6.327999999999999 20 5.379200000000001 27 3.3103999999999996 24"/><path d="M86.5216 18l5.169600000000001 24 -6.329999999999998 20 5.380800000000001 27 3.3120000000000003 24"/><path d="M86.54320000000001 18l5.1648 24 -6.332000000000001 20 5.3759999999999994 27 3.3136 24"/><path d="M86.536 18l5.166399999999999 24 -6.334 20 5.377599999999999 27 3.3152 24"/><path d="M86.55760000000001 18l5.1616 24 -6.32 20 5.3856 27 3.3040000000000003 24"/></g></svg>
