<svg xmlns="http://www.w3.org/2000/svg" width="768" height="1024" viewBox="0 0 768 1024"><rect width="768" height="1024" fill="#172635"/><rect width="768" height="740" fill="#091827"/><circle cx="638.4384" cy="253.35000000000002" r="1" fill="#76a34b" opacity=".35"/><circle cx="638.3616000000001" cy="253.32000000000002" r="2" fill="#76a34b" opacity=".35"/><circle cx="638.592" cy="253.41" r="1" fill="#76a34b" opacity=".35"/><circle cx="638.5152" cy="253.38" r="2" fill="#76a34b" opacity=".35"/><circle cx="638.7456" cy="253.23" r="1" fill="#76a34b" opacity=".35"/><circle cx="638.6688" cy="253.2" r="2" fill="#76a34b" opacity=".35"/><circle cx="638.8992" cy="253.29000000000002" r="1" fill="#76a34b" opacity=".35"/><circle cx="638.8224" cy="253.26" r="2" fill="#76a34b" opacity=".35"/><circle cx="637.8240000000001" cy="253.11" r="1" fill="#76a34b" opacity=".35"/><circle cx="637.7472" cy="253.08" r="2" fill="#76a34b" opacity=".35"/><circle cx="630.9888" cy="250.44" r="1" fill="#76a34b" opacity=".35"/><circle cx="631.0656" cy="250.47" r="2" fill="#76a34b" opacity=".35"/><circle cx="631.1424" cy="250.5" r="1" fill="#76a34b" opacity=".35"/><circle cx="631.2192" cy="250.52999999999997" r="2" fill="#76a34b" opacity=".35"/><circle cx="631.2959999999999" cy="250.32000000000002" r="1" fill="#76a34b" opacity=".35"/><circle cx="631.3728000000001" cy="250.35" r="2" fill="#76a34b" opacity=".35"/><circle cx="631.4496" cy="250.38" r="1" fill="#76a34b" opacity=".35"/><circle cx="631.5264" cy="250.41" r="2" fill="#76a34b" opacity=".35"/><circle cx="630.3743999999999" cy="250.2" r="1" fill="#76a34b" opacity=".35"/><circle cx="630.4512" cy="250.23" r="2" fill="#76a34b" opacity=".35"/><circle cx="643.5072" cy="255.32999999999998" r="1" fill="#76a34b" opacity=".35"/><circle cx="643.4304" cy="255.29999999999998" r="2" fill="#76a34b" opacity=".35"/><circle cx="643.3536" cy="255.27" r="1" fill="#76a34b" opacity=".35"/><circle cx="643.2768" cy="255.24" r="2" fill="#76a34b" opacity=".35"/><circle cx="643.8144" cy="255.21" r="1" fill="#76a34b" opacity=".35"/><circle cx="643.7375999999999" cy="255.18" r="2" fill="#76a34b" opacity=".35"/><circle cx="643.6608" cy="255.15" r="1" fill="#76a34b" opacity=".35"/><circle cx="643.584" cy="255.12" r="2" fill="#76a34b" opacity=".35"/><circle cx="642.8928" cy="255.08999999999997" r="1" fill="#76a34b" opacity=".35"/><circle cx="642.816" cy="255.05999999999997" r="2" fill="#76a34b" opacity=".35"/><path d="M-30 650V335.54999999999995L-30,335.54999999999995 60.51599999999999,335.54999999999995V650Z" fill="#13263a" stroke="#07111d" stroke-width="4"/><path d="M36 650V335.525L36,335.525 126.5215,335.525V650Z" fill="#101f30" stroke="#07111d" stroke-width="4"/><path d="M102 650V335.6L102,335.6 192.527,335.6V650Z" fill="#13263a" stroke="#07111d" stroke-width="4"/><path d="M168 650V335.575L168,335.575 258.5325,335.575V650Z" fill="#101f30" stroke="#07111d" stroke-width="4"/><path d="M234 650V335.45000000000005L234,335.45000000000005 324.538,335.45000000000005V650Z" fill="#13263a" stroke="#07111d" stroke-width="4"/><path d="M300 650V335.425L300,335.425 390.5435,335.425V650Z" fill="#101f30" stroke="#07111d" stroke-width="4"/><path d="M366 650V335.5L366,335.5 456.549,335.5V650Z" fill="#13263a" stroke="#07111d" stroke-width="4"/><path d="M432 650V335.475L432,335.475 522.5545,335.475V650Z" fill="#101f30" stroke="#07111d" stroke-width="4"/><path d="M498 650V335.75L498,335.75 588.472,335.75V650Z" fill="#13263a" stroke="#07111d" stroke-width="4"/><path d="M564 650V335.725L564,335.725 654.4775,335.725V650Z" fill="#101f30" stroke="#07111d" stroke-width="4"/><path d="M630 650V333.125L630,333.125 714.4495,333.125V650Z" fill="#13263a" stroke="#07111d" stroke-width="4"/><path d="M696 650V333.15L696,333.15 780.444,333.15V650Z" fill="#101f30" stroke="#07111d" stroke-width="4"/><path d="M762 650V333.175L762,333.175 846.4605,333.175V650Z" fill="#13263a" stroke="#07111d" stroke-width="4"/><rect x="663.752" y="554.1279999999999" width="4" height="8" rx="2" fill="#b9d7ef" opacity=".55"/><rect x="663.6800000000001" y="554.164" width="4" height="8" rx="2" fill="#76a34b" opacity=".55"/><rect x="663.896" y="554.2" width="4" height="8" rx="2" fill="#76a34b" opacity=".55"/><rect x="663.824" y="554.236" width="4" height="8" rx="2" fill="#b9d7ef" opacity=".55"/><rect x="663.464" y="554.2719999999999" width="4" height="8" rx="2" fill="#76a34b" opacity=".55"/><rect x="663.3919999999999" y="554.308" width="4" height="8" rx="2" fill="#76a34b" opacity=".55"/><rect x="663.6080000000001" y="554.344" width="4" height="8" rx="2" fill="#b9d7ef" opacity=".55"/><rect x="663.5360000000001" y="554.38" width="4" height="8" rx="2" fill="#76a34b" opacity=".55"/><rect x="663.1759999999999" y="554.4159999999999" width="4" height="8" rx="2" fill="#76a34b" opacity=".55"/><rect x="663.104" y="554.452" width="4" height="8" rx="2" fill="#b9d7ef" opacity=".55"/><rect x="661.52" y="557.62" width="4" height="8" rx="2" fill="#76a34b" opacity=".55"/><rect x="661.592" y="557.5840000000001" width="4" height="8" rx="2" fill="#76a34b" opacity=".55"/><rect x="661.376" y="557.692" width="4" height="8" rx="2" fill="#b9d7ef" opacity=".55"/><rect x="661.448" y="557.656" width="4" height="8" rx="2" fill="#76a34b" opacity=".55"/><rect x="661.232" y="557.764" width="4" height="8" rx="2" fill="#76a34b" opacity=".55"/><rect x="661.3040000000001" y="557.7280000000001" width="4" height="8" rx="2" fill="#b9d7ef" opacity=".55"/><rect x="661.088" y="557.836" width="4" height="8" rx="2" fill="#76a34b" opacity=".55"/><rect x="661.16" y="557.8" width="4" height="8" rx="2" fill="#76a34b" opacity=".55"/><path d="M40 520Q384 260 728 520V680H40Z" fill="#14283a" stroke="#07111d" stroke-width="8"/><path d="M80 510Q384 310 688 510" fill="none" stroke="#76a34b" stroke-width="14" stroke-dasharray="6 15"/><path d="M80 660h608" stroke="#b9d7ef" stroke-width="4"/><g id="apn-editorial-motifs">
    <g id="billboard" fill="#102033" stroke="#07111d" stroke-width="5">
      <path d="M42 300h132v86H42zM594 344h124v78H594z"/>
      <path d="M59 320h66M59 340h92M611 365h78M611 385h52" fill="none" stroke="#76a34b" stroke-width="5" opacity=".7"/>
      <path d="M145 316h13v13h-13zM688 397h13v13h-13z" fill="#b9d7ef" stroke="none"/>
    </g>
    <g id="signal-rail" fill="none" stroke-linecap="round">
      <path d="M0 528H768" stroke="#07111d" stroke-width="12"/>
      <path d="M0 528H768" stroke="#76a34b" stroke-width="4" opacity=".65"/>
      <path d="M92 512v32M270 512v32M498 512v32M680 512v32" stroke="#b9d7ef" stroke-width="4"/>
    </g>
    <path id="patchline" d="M0 606h178l28-24h176l30 24h356" fill="none" stroke="#b9d7ef" stroke-width="5" opacity=".72"/>
    <g id="archive-lights" fill="#76a34b">
      <circle cx="84" cy="606" r="5"/><circle cx="218" cy="582" r="5"/><circle cx="396" cy="594" r="5"/><circle cx="554" cy="606" r="5"/><circle cx="704" cy="606" r="5"/>
    </g>
  </g><path d="M0 705H768V1024H0Z" fill="#0b1825"/><path d="M0 730H768" stroke="#76a34b" stroke-width="4" opacity=".5"/><path d="M0 855H768M80 730V1024M250 730V1024M518 730V1024M688 730V1024" stroke="#1d3548" stroke-width="3"/><ellipse cx="590" cy="775" rx="110" ry="28" fill="#03070d" opacity=".6"/><path d="M0 712H768" stroke="#b9d7ef" stroke-width="3" opacity=".35"/></svg>
