<svg xmlns="http://www.w3.org/2000/svg" width="512" height="128" viewBox="0 0 512 128"><g transform="translate(0)" fill="none" stroke="#76a34b" stroke-width="3" stroke-linecap="round" stroke-linejoin="round" opacity="0.5"><path d="M99.3664 18l6.150399999999999 24 -7.82 20 5.5168 27 -5.300800000000001 24"/><path d="M99.3736 18l6.151999999999999 24 -7.821999999999999 20 5.5184 27 -5.299200000000001 24"/></g><g transform="translate(128)" fill="none" stroke="#76a34b" stroke-width="4" stroke-linecap="round" stroke-linejoin="round" opacity="0.62"><path d="M91.4248 18l6.150399999999999 24 -7.82 20 5.5168 27 -5.300800000000001 24"/><path d="M91.4176 18l6.151999999999999 24 -7.821999999999999 20 5.5184 27 -5.299200000000001 24"/><path d="M91.4392 18l6.153600000000001 24 -7.8160000000000025 20 5.52 27 -5.304 24"/></g><g transform="translate(256)" fill="none" stroke="#b9d7ef" stroke-width="5" stroke-linecap="round" stroke-linejoin="round" opacity="0.74"><path d="M91.2016 18l6.150399999999999 24 -7.82 20 5.5168 27 -5.300800000000001 24"/><path d="M91.2088 18l6.151999999999999 24 -7.821999999999999 20 5.5184 27 -5.299200000000001 24"/><path d="M91.1872 18l6.153600000000001 24 -7.8160000000000025 20 5.52 27 -5.304 24"/><path d="M91.1944 18l6.155200000000001 24 -7.818000000000001 20 5.521599999999999 27 -5.3024000000000004 24"/></g><g transform="translate(384)" fill="none" stroke="#b9d7ef" stroke-width="6" stroke-linecap="round" stroke-linejoin="round" opacity="0.86"><path d="M91.9 18l6.150399999999999 24 -7.82 20 5.5168 27 -5.300800000000001 24"/><path d="M91.8928 18l6.151999999999999 24 -7.821999999999999 20 5.5184 27 -5.299200000000001 24"/><path d="M91.8856 18l6.153600000000001 24 -7.8160000000000025 20 5.52 27 -5.304 24"/><path d="M91.8784 18l6.155200000000001 24 -7.818000000000001 20 5.521599999999999 27 -5.3024000000000004 24"/><path d="M91.9288 18l6.144 24 -7.811999999999998 20 5.523199999999999 27 -5.3072 24"/></g></svg>
