<svg xmlns="http://www.w3.org/2000/svg" width="768" height="1024" viewBox="0 0 768 1024"><rect width="768" height="1024" fill="#211d29"/><rect width="768" height="740" fill="#091827"/><circle cx="228.78719999999998" cy="93.33" r="1" fill="#8b91a0" opacity=".35"/><circle cx="228.7104" cy="93.3" r="2" fill="#8b91a0" opacity=".35"/><circle cx="228.6336" cy="93.27" r="1" fill="#8b91a0" opacity=".35"/><circle cx="228.55679999999998" cy="93.24000000000001" r="2" fill="#8b91a0" opacity=".35"/><circle cx="229.0944" cy="93.21" r="1" fill="#8b91a0" opacity=".35"/><circle cx="229.01760000000002" cy="93.17999999999999" r="2" fill="#8b91a0" opacity=".35"/><circle cx="228.94079999999997" cy="93.15" r="1" fill="#8b91a0" opacity=".35"/><circle cx="228.86399999999998" cy="93.12" r="2" fill="#8b91a0" opacity=".35"/><circle cx="229.40160000000003" cy="93.57000000000001" r="1" fill="#8b91a0" opacity=".35"/><circle cx="229.32479999999998" cy="93.54" r="2" fill="#8b91a0" opacity=".35"/><circle cx="221.3376" cy="90.42" r="1" fill="#8b91a0" opacity=".35"/><circle cx="221.4144" cy="90.45" r="2" fill="#8b91a0" opacity=".35"/><circle cx="221.18399999999997" cy="90.36000000000001" r="1" fill="#8b91a0" opacity=".35"/><circle cx="221.26080000000002" cy="90.39" r="2" fill="#8b91a0" opacity=".35"/><circle cx="221.64480000000003" cy="90.3" r="1" fill="#8b91a0" opacity=".35"/><circle cx="221.72160000000002" cy="90.33" r="2" fill="#8b91a0" opacity=".35"/><circle cx="221.4912" cy="90.24000000000001" r="1" fill="#8b91a0" opacity=".35"/><circle cx="221.56799999999998" cy="90.27" r="2" fill="#8b91a0" opacity=".35"/><circle cx="221.952" cy="90.66000000000001" r="1" fill="#8b91a0" opacity=".35"/><circle cx="222.02880000000002" cy="90.69" r="2" fill="#8b91a0" opacity=".35"/><circle cx="223.7184" cy="91.35" r="1" fill="#8b91a0" opacity=".35"/><circle cx="223.6416" cy="91.32000000000001" r="2" fill="#8b91a0" opacity=".35"/><circle cx="223.87199999999999" cy="91.41000000000001" r="1" fill="#8b91a0" opacity=".35"/><circle cx="223.7952" cy="91.38" r="2" fill="#8b91a0" opacity=".35"/><circle cx="224.0256" cy="91.22999999999999" r="1" fill="#8b91a0" opacity=".35"/><circle cx="223.9488" cy="91.2" r="2" fill="#8b91a0" opacity=".35"/><circle cx="224.17919999999998" cy="91.29" r="1" fill="#8b91a0" opacity=".35"/><circle cx="224.1024" cy="91.26" r="2" fill="#8b91a0" opacity=".35"/><circle cx="224.33280000000002" cy="91.59" r="1" fill="#8b91a0" opacity=".35"/><circle cx="224.25599999999997" cy="91.56" r="2" fill="#8b91a0" opacity=".35"/><path d="M-30 650V510.2L-30,510.2 27.483000000000004,510.2V650Z" fill="#13263a" stroke="#07111d" stroke-width="4"/><path d="M36 650V510.175L36,510.175 93.4885,510.175V650Z" fill="#101f30" stroke="#07111d" stroke-width="4"/><path d="M102 650V510.15L102,510.15 159.472,510.15V650Z" fill="#13263a" stroke="#07111d" stroke-width="4"/><path d="M168 650V510.125L168,510.125 225.4775,510.125V650Z" fill="#101f30" stroke="#07111d" stroke-width="4"/><path d="M234 650V510.1L234,510.1 291.505,510.1V650Z" fill="#13263a" stroke="#07111d" stroke-width="4"/><path d="M300 650V510.075L300,510.075 357.5105,510.075V650Z" fill="#101f30" stroke="#07111d" stroke-width="4"/><path d="M366 650V510.05L366,510.05 423.494,510.05V650Z" fill="#13263a" stroke="#07111d" stroke-width="4"/><path d="M432 650V510.025L432,510.025 489.4995,510.025V650Z" fill="#101f30" stroke="#07111d" stroke-width="4"/><path d="M498 650V510L498,510 555.527,510V650Z" fill="#13263a" stroke="#07111d" stroke-width="4"/><path d="M564 650V509.975L564,509.975 621.5325,509.975V650Z" fill="#101f30" stroke="#07111d" stroke-width="4"/><path d="M630 650V507.775L630,507.775 676.7525,507.775V650Z" fill="#13263a" stroke="#07111d" stroke-width="4"/><path d="M696 650V507.8L696,507.8 742.747,507.8V650Z" fill="#101f30" stroke="#07111d" stroke-width="4"/><path d="M762 650V507.725L762,507.725 808.7415,507.725V650Z" fill="#13263a" stroke="#07111d" stroke-width="4"/><rect x="170.264" y="326.392" width="4" height="8" rx="2" fill="#a94e5d" opacity=".55"/><rect x="170.192" y="326.428" width="4" height="8" rx="2" fill="#8b91a0" opacity=".55"/><rect x="170.12" y="326.32" width="4" height="8" rx="2" fill="#8b91a0" opacity=".55"/><rect x="170.048" y="326.356" width="4" height="8" rx="2" fill="#a94e5d" opacity=".55"/><rect x="169.976" y="326.536" width="4" height="8" rx="2" fill="#8b91a0" opacity=".55"/><rect x="169.904" y="326.572" width="4" height="8" rx="2" fill="#8b91a0" opacity=".55"/><rect x="169.832" y="326.464" width="4" height="8" rx="2" fill="#a94e5d" opacity=".55"/><rect x="169.76" y="326.5" width="4" height="8" rx="2" fill="#8b91a0" opacity=".55"/><rect x="170.84" y="326.104" width="4" height="8" rx="2" fill="#8b91a0" opacity=".55"/><rect x="170.768" y="326.14" width="4" height="8" rx="2" fill="#a94e5d" opacity=".55"/><rect x="158.528" y="329.884" width="4" height="8" rx="2" fill="#8b91a0" opacity=".55"/><rect x="158.6" y="329.848" width="4" height="8" rx="2" fill="#8b91a0" opacity=".55"/><rect x="158.672" y="329.812" width="4" height="8" rx="2" fill="#a94e5d" opacity=".55"/><rect x="158.744" y="329.776" width="4" height="8" rx="2" fill="#8b91a0" opacity=".55"/><rect x="158.24" y="330.028" width="4" height="8" rx="2" fill="#8b91a0" opacity=".55"/><rect x="158.31199999999998" y="329.992" width="4" height="8" rx="2" fill="#a94e5d" opacity=".55"/><rect x="158.38400000000001" y="329.956" width="4" height="8" rx="2" fill="#8b91a0" opacity=".55"/><rect x="158.456" y="329.92" width="4" height="8" rx="2" fill="#8b91a0" opacity=".55"/><path d="M0 620C120 540 220 660 340 580S560 620 768 520V760H0Z" fill="#202533"/><path d="M20 470C190 410 300 520 470 430s230 20 290-20" fill="none" stroke="#758093" stroke-width="20" opacity=".25"/><g id="apn-editorial-motifs">
    <g id="billboard" fill="#102033" stroke="#07111d" stroke-width="5">
      <path d="M42 300h132v86H42zM594 344h124v78H594z"/>
      <path d="M59 320h66M59 340h92M611 365h78M611 385h52" fill="none" stroke="#8b91a0" stroke-width="5" opacity=".7"/>
      <path d="M145 316h13v13h-13zM688 397h13v13h-13z" fill="#a94e5d" stroke="none"/>
    </g>
    <g id="signal-rail" fill="none" stroke-linecap="round">
      <path d="M0 528H768" stroke="#07111d" stroke-width="12"/>
      <path d="M0 528H768" stroke="#8b91a0" stroke-width="4" opacity=".65"/>
      <path d="M92 512v32M270 512v32M498 512v32M680 512v32" stroke="#a94e5d" stroke-width="4"/>
    </g>
    <path id="patchline" d="M0 606h178l28-24h176l30 24h356" fill="none" stroke="#a94e5d" stroke-width="5" opacity=".72"/>
    <g id="archive-lights" fill="#8b91a0">
      <circle cx="84" cy="606" r="5"/><circle cx="218" cy="582" r="5"/><circle cx="396" cy="594" r="5"/><circle cx="554" cy="606" r="5"/><circle cx="704" cy="606" r="5"/>
    </g>
  </g><path d="M0 705H768V1024H0Z" fill="#0b1825"/><path d="M0 730H768" stroke="#8b91a0" stroke-width="4" opacity=".5"/><path d="M0 855H768M80 730V1024M250 730V1024M518 730V1024M688 730V1024" stroke="#1d3548" stroke-width="3"/><ellipse cx="590" cy="775" rx="110" ry="28" fill="#03070d" opacity=".6"/><path d="M0 712H768" stroke="#a94e5d" stroke-width="3" opacity=".35"/></svg>
