<svg xmlns="http://www.w3.org/2000/svg" width="512" height="128" viewBox="0 0 512 128"><g transform="translate(0)" fill="none" stroke="#8b91a0" stroke-width="3" stroke-linecap="round" stroke-linejoin="round" opacity="0.5"><path d="M56.1232 18l-4.816 24 6.152 20 -4.6048 27 3.2336 24"/><path d="M56.130399999999995 18l-4.8144 24 6.15 20 -4.6032 27 3.2352 24"/></g><g transform="translate(128)" fill="none" stroke="#8b91a0" stroke-width="4" stroke-linecap="round" stroke-linejoin="round" opacity="0.62"><path d="M42.076 18l-4.816 24 6.152 20 -4.6048 27 3.2336 24"/><path d="M42.068799999999996 18l-4.8144 24 6.15 20 -4.6032 27 3.2352 24"/><path d="M42.0616 18l-4.8192 24 6.148 20 -4.6080000000000005 27 3.2367999999999997 24"/></g><g transform="translate(256)" fill="none" stroke="#a94e5d" stroke-width="5" stroke-linecap="round" stroke-linejoin="round" opacity="0.74"><path d="M40.9024 18l-4.816 24 6.152 20 -4.6048 27 3.2336 24"/><path d="M40.9096 18l-4.8144 24 6.15 20 -4.6032 27 3.2352 24"/><path d="M40.9168 18l-4.8192 24 6.148 20 -4.6080000000000005 27 3.2367999999999997 24"/><path d="M40.924 18l-4.8176000000000005 24 6.146 20 -4.6064 27 3.2384000000000004 24"/></g><g transform="translate(384)" fill="none" stroke="#a94e5d" stroke-width="6" stroke-linecap="round" stroke-linejoin="round" opacity="0.86"><path d="M41.6008 18l-4.816 24 6.152 20 -4.6048 27 3.2336 24"/><path d="M41.5936 18l-4.8144 24 6.15 20 -4.6032 27 3.2352 24"/><path d="M41.6152 18l-4.8192 24 6.148 20 -4.6080000000000005 27 3.2367999999999997 24"/><path d="M41.608000000000004 18l-4.8176000000000005 24 6.146 20 -4.6064 27 3.2384000000000004 24"/><path d="M41.629599999999996 18l-4.8224 24 6.16 20 -4.5984 27 3.2272 24"/></g></svg>
