<svg xmlns="http://www.w3.org/2000/svg" width="768" height="1024" viewBox="0 0 768 1024"><rect width="768" height="1024" fill="#182a3d"/><rect width="768" height="740" fill="#091827"/><circle cx="526.1568" cy="209.49" r="1" fill="#79e6f2" opacity=".35"/><circle cx="526.08" cy="209.46" r="2" fill="#79e6f2" opacity=".35"/><circle cx="526.0032" cy="209.43" r="1" fill="#79e6f2" opacity=".35"/><circle cx="525.9264" cy="209.39999999999998" r="2" fill="#79e6f2" opacity=".35"/><circle cx="526.4639999999999" cy="209.36999999999998" r="1" fill="#79e6f2" opacity=".35"/><circle cx="526.3872" cy="209.34" r="2" fill="#79e6f2" opacity=".35"/><circle cx="526.3104000000001" cy="209.31" r="1" fill="#79e6f2" opacity=".35"/><circle cx="526.2336" cy="209.28" r="2" fill="#79e6f2" opacity=".35"/><circle cx="526.7711999999999" cy="209.73000000000002" r="1" fill="#79e6f2" opacity=".35"/><circle cx="526.6944" cy="209.7" r="2" fill="#79e6f2" opacity=".35"/><circle cx="528.5376" cy="210.42000000000002" r="1" fill="#79e6f2" opacity=".35"/><circle cx="528.6144" cy="210.45000000000002" r="2" fill="#79e6f2" opacity=".35"/><circle cx="528.384" cy="210.36" r="1" fill="#79e6f2" opacity=".35"/><circle cx="528.4608000000001" cy="210.39000000000001" r="2" fill="#79e6f2" opacity=".35"/><circle cx="528.8448" cy="210.29999999999998" r="1" fill="#79e6f2" opacity=".35"/><circle cx="528.9216" cy="210.32999999999998" r="2" fill="#79e6f2" opacity=".35"/><circle cx="528.6912" cy="210.23999999999998" r="1" fill="#79e6f2" opacity=".35"/><circle cx="528.768" cy="210.26999999999998" r="2" fill="#79e6f2" opacity=".35"/><circle cx="529.1519999999999" cy="210.66000000000003" r="1" fill="#79e6f2" opacity=".35"/><circle cx="529.2288000000001" cy="210.69" r="2" fill="#79e6f2" opacity=".35"/><circle cx="521.088" cy="207.51" r="1" fill="#79e6f2" opacity=".35"/><circle cx="521.0112" cy="207.48" r="2" fill="#79e6f2" opacity=".35"/><circle cx="521.2416" cy="207.57" r="1" fill="#79e6f2" opacity=".35"/><circle cx="521.1648" cy="207.54" r="2" fill="#79e6f2" opacity=".35"/><circle cx="521.3951999999999" cy="207.39000000000001" r="1" fill="#79e6f2" opacity=".35"/><circle cx="521.3184" cy="207.36" r="2" fill="#79e6f2" opacity=".35"/><circle cx="521.5488" cy="207.45" r="1" fill="#79e6f2" opacity=".35"/><circle cx="521.472" cy="207.42000000000002" r="2" fill="#79e6f2" opacity=".35"/><circle cx="521.7024" cy="207.75" r="1" fill="#79e6f2" opacity=".35"/><circle cx="521.6256000000001" cy="207.72" r="2" fill="#79e6f2" opacity=".35"/><path d="M-30 650V520.6L-30,520.6 36.459,520.6V650Z" fill="#13263a" stroke="#07111d" stroke-width="4"/><path d="M36 650V520.575L36,520.575 102.4645,520.575V650Z" fill="#101f30" stroke="#07111d" stroke-width="4"/><path d="M102 650V520.55L102,520.55 168.448,520.55V650Z" fill="#13263a" stroke="#07111d" stroke-width="4"/><path d="M168 650V520.525L168,520.525 234.4535,520.525V650Z" fill="#101f30" stroke="#07111d" stroke-width="4"/><path d="M234 650V520.5L234,520.5 300.481,520.5V650Z" fill="#13263a" stroke="#07111d" stroke-width="4"/><path d="M300 650V520.475L300,520.475 366.4865,520.475V650Z" fill="#101f30" stroke="#07111d" stroke-width="4"/><path d="M366 650V520.45L366,520.45 432.47,520.45V650Z" fill="#13263a" stroke="#07111d" stroke-width="4"/><path d="M432 650V520.425L432,520.425 498.4755,520.425V650Z" fill="#101f30" stroke="#07111d" stroke-width="4"/><path d="M498 650V520.4L498,520.4 564.503,520.4V650Z" fill="#13263a" stroke="#07111d" stroke-width="4"/><path d="M564 650V520.375L564,520.375 630.5085,520.375V650Z" fill="#101f30" stroke="#07111d" stroke-width="4"/><path d="M630 650V521.375L630,521.375 673.7605,521.375V650Z" fill="#13263a" stroke="#07111d" stroke-width="4"/><path d="M696 650V521.4L696,521.4 739.755,521.4V650Z" fill="#101f30" stroke="#07111d" stroke-width="4"/><path d="M762 650V521.325L762,521.325 805.7495,521.325V650Z" fill="#13263a" stroke="#07111d" stroke-width="4"/><rect x="131.096" y="311.416" width="4" height="8" rx="2" fill="#ff4655" opacity=".55"/><rect x="131.024" y="311.452" width="4" height="8" rx="2" fill="#79e6f2" opacity=".55"/><rect x="130.952" y="311.344" width="4" height="8" rx="2" fill="#79e6f2" opacity=".55"/><rect x="130.88" y="311.38" width="4" height="8" rx="2" fill="#ff4655" opacity=".55"/><rect x="130.808" y="311.56" width="4" height="8" rx="2" fill="#79e6f2" opacity=".55"/><rect x="130.736" y="311.596" width="4" height="8" rx="2" fill="#79e6f2" opacity=".55"/><rect x="130.664" y="311.488" width="4" height="8" rx="2" fill="#ff4655" opacity=".55"/><rect x="130.59199999999998" y="311.524" width="4" height="8" rx="2" fill="#79e6f2" opacity=".55"/><rect x="131.672" y="311.128" width="4" height="8" rx="2" fill="#79e6f2" opacity=".55"/><rect x="131.6" y="311.164" width="4" height="8" rx="2" fill="#ff4655" opacity=".55"/><rect x="128.576" y="310.3" width="4" height="8" rx="2" fill="#79e6f2" opacity=".55"/><rect x="128.64800000000002" y="310.264" width="4" height="8" rx="2" fill="#79e6f2" opacity=".55"/><rect x="128.72" y="310.228" width="4" height="8" rx="2" fill="#ff4655" opacity=".55"/><rect x="128.792" y="310.192" width="4" height="8" rx="2" fill="#79e6f2" opacity=".55"/><rect x="128.288" y="310.444" width="4" height="8" rx="2" fill="#79e6f2" opacity=".55"/><rect x="128.36" y="310.408" width="4" height="8" rx="2" fill="#ff4655" opacity=".55"/><rect x="128.43200000000002" y="310.372" width="4" height="8" rx="2" fill="#79e6f2" opacity=".55"/><rect x="128.50400000000002" y="310.336" width="4" height="8" rx="2" fill="#79e6f2" opacity=".55"/><path d="M40 620H728M190 550h390M310 480h150" stroke="#79e6f2" stroke-width="4" opacity=".55"/><path d="M620 310l55 30-55 30z" fill="none" stroke="#ff4655" stroke-width="6"/><g id="apn-editorial-motifs">
    <g id="billboard" fill="#102033" stroke="#07111d" stroke-width="5">
      <path d="M42 300h132v86H42zM594 344h124v78H594z"/>
      <path d="M59 320h66M59 340h92M611 365h78M611 385h52" fill="none" stroke="#79e6f2" stroke-width="5" opacity=".7"/>
      <path d="M145 316h13v13h-13zM688 397h13v13h-13z" fill="#ff4655" stroke="none"/>
    </g>
    <g id="signal-rail" fill="none" stroke-linecap="round">
      <path d="M0 528H768" stroke="#07111d" stroke-width="12"/>
      <path d="M0 528H768" stroke="#79e6f2" stroke-width="4" opacity=".65"/>
      <path d="M92 512v32M270 512v32M498 512v32M680 512v32" stroke="#ff4655" stroke-width="4"/>
    </g>
    <path id="patchline" d="M0 606h178l28-24h176l30 24h356" fill="none" stroke="#ff4655" stroke-width="5" opacity=".72"/>
    <g id="archive-lights" fill="#79e6f2">
      <circle cx="84" cy="606" r="5"/><circle cx="218" cy="582" r="5"/><circle cx="396" cy="594" r="5"/><circle cx="554" cy="606" r="5"/><circle cx="704" cy="606" r="5"/>
    </g>
  </g><path d="M0 705H768V1024H0Z" fill="#0b1825"/><path d="M0 730H768" stroke="#79e6f2" stroke-width="4" opacity=".5"/><path d="M0 855H768M80 730V1024M250 730V1024M518 730V1024M688 730V1024" stroke="#1d3548" stroke-width="3"/><ellipse cx="590" cy="775" rx="110" ry="28" fill="#03070d" opacity=".6"/><path d="M0 712H768" stroke="#ff4655" stroke-width="3" opacity=".35"/></svg>
