<svg xmlns="http://www.w3.org/2000/svg" width="512" height="128" viewBox="0 0 512 128"><g transform="translate(0)" fill="none" stroke="#79e6f2" stroke-width="3" stroke-linecap="round" stroke-linejoin="round" opacity="0.5"><path d="M67.8736 18l-5.4816 24 6.984 20 -5.2704 27 -2.9616000000000007 24"/><path d="M67.8808 18l-5.48 24 6.981999999999999 20 -5.268800000000001 27 -2.960000000000001 24"/></g><g transform="translate(128)" fill="none" stroke="#79e6f2" stroke-width="4" stroke-linecap="round" stroke-linejoin="round" opacity="0.62"><path d="M38.1592 18l-5.4816 24 6.984 20 -5.2704 27 -2.9616000000000007 24"/><path d="M38.152 18l-5.48 24 6.981999999999999 20 -5.268800000000001 27 -2.960000000000001 24"/><path d="M38.144800000000004 18l-5.4848 24 6.98 20 -5.2736 27 -2.9583999999999993 24"/></g><g transform="translate(256)" fill="none" stroke="#ff4655" stroke-width="5" stroke-linecap="round" stroke-linejoin="round" opacity="0.74"><path d="M37.9072 18l-5.4816 24 6.984 20 -5.2704 27 -2.9616000000000007 24"/><path d="M37.9144 18l-5.48 24 6.981999999999999 20 -5.268800000000001 27 -2.960000000000001 24"/><path d="M37.9216 18l-5.4848 24 6.98 20 -5.2736 27 -2.9583999999999993 24"/><path d="M37.928799999999995 18l-5.4832 24 6.978 20 -5.272 27 -2.9567999999999994 24"/></g><g transform="translate(384)" fill="none" stroke="#ff4655" stroke-width="6" stroke-linecap="round" stroke-linejoin="round" opacity="0.86"><path d="M37.684 18l-5.4816 24 6.984 20 -5.2704 27 -2.9616000000000007 24"/><path d="M37.6768 18l-5.48 24 6.981999999999999 20 -5.268800000000001 27 -2.960000000000001 24"/><path d="M37.6984 18l-5.4848 24 6.98 20 -5.2736 27 -2.9583999999999993 24"/><path d="M37.6912 18l-5.4832 24 6.978 20 -5.272 27 -2.9567999999999994 24"/><path d="M37.7128 18l-5.4879999999999995 24 6.992 20 -5.263999999999999 27 -2.968 24"/></g></svg>
