<svg xmlns="http://www.w3.org/2000/svg" width="896" height="128" viewBox="0 0 896 128"><g transform="translate(0 7) scale(0.86) translate(8 0)"><ellipse cx="64" cy="118" rx="42" ry="8" fill="#03070d" opacity=".75"/><g fill="#ff4655" stroke="#07111d" stroke-width="6" stroke-linecap="round" stroke-linejoin="round"><circle cx="64" cy="29" r="17"/><path d="M47 48Q64 38 81 48L78 91H50Z"/><path d="M51 86L39 116M77 86l13 30M51 58L28 78M77 58l23 20" fill="none"/></g><path d="M83 59l23 22" fill="none" stroke="#79e6f2" stroke-width="7"/><path d="M50 48h28" stroke="#79e6f2" stroke-width="5"/></g><g transform="translate(128 7) scale(0.86) translate(8 0)"><ellipse cx="64" cy="118" rx="42" ry="8" fill="#03070d" opacity=".75"/><g fill="#ff4655" stroke="#07111d" stroke-width="7" stroke-linecap="round" stroke-linejoin="round"><circle cx="64" cy="29" r="17"/><path d="M41 48Q64 38 87 48L86 91H42Z"/><path d="M51 86L39 116M77 86l13 30M51 58L28 78M77 58l23 20" fill="none"/></g><circle cx="97" cy="48" r="9" fill="#79e6f2"/><path d="M84 60l13-12" fill="none" stroke="#79e6f2" stroke-width="6"/><path d="M50 48h28" stroke="#79e6f2" stroke-width="5"/></g><g transform="translate(256 7) scale(0.86) translate(8 0)"><ellipse cx="64" cy="118" rx="42" ry="8" fill="#03070d" opacity=".75"/><g fill="#ff4655" stroke="#07111d" stroke-width="6" stroke-linecap="round" stroke-linejoin="round"><circle cx="64" cy="29" r="17"/><path d="M47 48Q64 38 81 48L78 91H50Z"/><path d="M51 86L39 116M77 86l13 30M51 58L28 78M77 58l23 20" fill="none"/></g><path d="M72 58l37-18M88 49l10 12" fill="none" stroke="#79e6f2" stroke-width="7"/><path d="M50 48h28" stroke="#79e6f2" stroke-width="5"/></g><g transform="translate(384 7) scale(0.86) translate(8 0)"><ellipse cx="64" cy="118" rx="42" ry="8" fill="#03070d" opacity=".75"/><g fill="#ff4655" stroke="#07111d" stroke-width="6" stroke-linecap="round" stroke-linejoin="round"><circle cx="64" cy="29" r="17"/><path d="M47 48Q64 38 81 48L78 91H50Z"/><path d="M51 86L39 116M77 86l13 30M51 58L28 78M77 58l23 20" fill="none"/></g><path d="M88 52l21 10-5 32-23 8z" fill="#79e6f2"/><path d="M50 48h28" stroke="#79e6f2" stroke-width="5"/></g><g transform="translate(512 7) scale(0.86) translate(8 0)"><ellipse cx="64" cy="118" rx="42" ry="8" fill="#03070d" opacity=".75"/><g fill="#ff4655" stroke="#07111d" stroke-width="6" stroke-linecap="round" stroke-linejoin="round"><circle cx="64" cy="29" r="17"/><path d="M47 48Q64 38 81 48L78 91H50Z"/><path d="M51 86L39 116M77 86l13 30M51 58L28 78M77 58l23 20" fill="none"/></g><path d="M83 59l23 22" fill="none" stroke="#79e6f2" stroke-width="7"/><path d="M50 48h28" stroke="#79e6f2" stroke-width="5"/></g><g transform="translate(640 8) scale(1.04) translate(0 7)"><ellipse cx="64" cy="116" rx="52" ry="8" fill="#03070d" opacity=".75"/><g fill="#ff4655" stroke="#07111d" stroke-width="6" stroke-linecap="round" stroke-linejoin="round"><rect x="29" y="38" width="70" height="58" rx="14"/><circle cx="64" cy="67" r="19"/><path d="M40 92l-12 25M88 92l12 25M30 55L12 76M98 55l18 21" fill="none"/></g><circle cx="64" cy="67" r="8" fill="#79e6f2" stroke="#07111d" stroke-width="4"/></g><g transform="translate(768 8) scale(1.04) translate(0 7)"><ellipse cx="64" cy="116" rx="52" ry="8" fill="#03070d" opacity=".75"/><g fill="#79e6f2" stroke="#07111d" stroke-width="6" stroke-linecap="round" stroke-linejoin="round"><rect x="29" y="38" width="70" height="58" rx="14"/><circle cx="64" cy="67" r="19"/><path d="M40 92l-12 25M88 92l12 25M30 55L12 76M98 55l18 21" fill="none"/></g><circle cx="64" cy="67" r="8" fill="#79e6f2" stroke="#07111d" stroke-width="4"/><path d="M45 46l14 15-10 17 18 15M80 43L66 62l17 13" fill="none" stroke="#07111d" stroke-width="4"/></g></svg>
