<svg xmlns="http://www.w3.org/2000/svg" width="768" height="1024" viewBox="0 0 768 1024"><rect width="768" height="1024" fill="#29291f"/><rect width="768" height="740" fill="#091827"/><circle cx="382.69440000000003" cy="145.53" r="1" fill="#788660" opacity=".35"/><circle cx="382.6176" cy="145.5" r="2" fill="#788660" opacity=".35"/><circle cx="382.5408" cy="145.47" r="1" fill="#788660" opacity=".35"/><circle cx="382.464" cy="145.44" r="2" fill="#788660" opacity=".35"/><circle cx="382.3872" cy="145.65" r="1" fill="#788660" opacity=".35"/><circle cx="382.3104" cy="145.62" r="2" fill="#788660" opacity=".35"/><circle cx="382.23359999999997" cy="145.59" r="1" fill="#788660" opacity=".35"/><circle cx="382.1568" cy="145.56" r="2" fill="#788660" opacity=".35"/><circle cx="383.3088" cy="145.77" r="1" fill="#788660" opacity=".35"/><circle cx="383.23199999999997" cy="145.74" r="2" fill="#788660" opacity=".35"/><circle cx="375.2448" cy="142.62" r="1" fill="#788660" opacity=".35"/><circle cx="375.3216" cy="142.65" r="2" fill="#788660" opacity=".35"/><circle cx="375.0912" cy="142.56" r="1" fill="#788660" opacity=".35"/><circle cx="375.168" cy="142.59" r="2" fill="#788660" opacity=".35"/><circle cx="374.93760000000003" cy="142.74" r="1" fill="#788660" opacity=".35"/><circle cx="375.0144" cy="142.77" r="2" fill="#788660" opacity=".35"/><circle cx="374.784" cy="142.68" r="1" fill="#788660" opacity=".35"/><circle cx="374.8608" cy="142.71" r="2" fill="#788660" opacity=".35"/><circle cx="375.8592" cy="142.86" r="1" fill="#788660" opacity=".35"/><circle cx="375.936" cy="142.89" r="2" fill="#788660" opacity=".35"/><circle cx="377.6256" cy="143.54999999999998" r="1" fill="#788660" opacity=".35"/><circle cx="377.54879999999997" cy="143.52" r="2" fill="#788660" opacity=".35"/><circle cx="377.7792" cy="143.61" r="1" fill="#788660" opacity=".35"/><circle cx="377.7024" cy="143.58" r="2" fill="#788660" opacity=".35"/><circle cx="377.3184" cy="143.67" r="1" fill="#788660" opacity=".35"/><circle cx="377.2416" cy="143.64000000000001" r="2" fill="#788660" opacity=".35"/><circle cx="377.472" cy="143.73000000000002" r="1" fill="#788660" opacity=".35"/><circle cx="377.3952" cy="143.7" r="2" fill="#788660" opacity=".35"/><circle cx="378.24" cy="143.79" r="1" fill="#788660" opacity=".35"/><circle cx="378.1632" cy="143.76" r="2" fill="#788660" opacity=".35"/><path d="M-30 650V484.1L5.924500000000002,439.1 41.849000000000004,484.1V650Z" fill="#13263a" stroke="#07111d" stroke-width="4"/><path d="M36 650V484.075L71.92725,439.075 107.8545,484.075V650Z" fill="#101f30" stroke="#07111d" stroke-width="4"/><path d="M102 650V484.05L137.91899999999998,439.05 173.838,484.05V650Z" fill="#13263a" stroke="#07111d" stroke-width="4"/><path d="M168 650V484.025L203.92175,439.025 239.8435,484.025V650Z" fill="#101f30" stroke="#07111d" stroke-width="4"/><path d="M234 650V484.2L269.9135,439.2 305.827,484.2V650Z" fill="#13263a" stroke="#07111d" stroke-width="4"/><path d="M300 650V484.175L335.91625,439.175 371.8325,484.175V650Z" fill="#101f30" stroke="#07111d" stroke-width="4"/><path d="M366 650V484.15L401.908,439.15 437.81600000000003,484.15V650Z" fill="#13263a" stroke="#07111d" stroke-width="4"/><path d="M432 650V484.125L467.91075,439.125 503.8215,484.125V650Z" fill="#101f30" stroke="#07111d" stroke-width="4"/><path d="M498 650V483.9L533.9465,438.9 569.893,483.9V650Z" fill="#13263a" stroke="#07111d" stroke-width="4"/><path d="M564 650V483.875L599.94925,438.875 635.8985,483.875V650Z" fill="#101f30" stroke="#07111d" stroke-width="4"/><path d="M630 650V481.675L656.24725,436.675 682.4945,481.675V650Z" fill="#13263a" stroke="#07111d" stroke-width="4"/><path d="M696 650V481.7L722.2445,436.7 748.489,481.7V650Z" fill="#101f30" stroke="#07111d" stroke-width="4"/><path d="M762 650V481.625L788.24175,436.625 814.4835,481.625V650Z" fill="#13263a" stroke="#07111d" stroke-width="4"/><rect x="226.424" y="363.976" width="4" height="8" rx="2" fill="#c5a35a" opacity=".55"/><rect x="226.352" y="364.012" width="4" height="8" rx="2" fill="#788660" opacity=".55"/><rect x="226.27999999999997" y="363.904" width="4" height="8" rx="2" fill="#788660" opacity=".55"/><rect x="226.208" y="363.94" width="4" height="8" rx="2" fill="#c5a35a" opacity=".55"/><rect x="226.71200000000002" y="363.832" width="4" height="8" rx="2" fill="#788660" opacity=".55"/><rect x="226.64" y="363.868" width="4" height="8" rx="2" fill="#788660" opacity=".55"/><rect x="226.56799999999998" y="363.76" width="4" height="8" rx="2" fill="#c5a35a" opacity=".55"/><rect x="226.496" y="363.796" width="4" height="8" rx="2" fill="#788660" opacity=".55"/><rect x="226.99999999999997" y="363.688" width="4" height="8" rx="2" fill="#788660" opacity=".55"/><rect x="226.928" y="363.724" width="4" height="8" rx="2" fill="#c5a35a" opacity=".55"/><rect x="214.688" y="367.46799999999996" width="4" height="8" rx="2" fill="#788660" opacity=".55"/><rect x="214.76000000000002" y="367.432" width="4" height="8" rx="2" fill="#788660" opacity=".55"/><rect x="214.832" y="367.396" width="4" height="8" rx="2" fill="#c5a35a" opacity=".55"/><rect x="214.904" y="367.36" width="4" height="8" rx="2" fill="#788660" opacity=".55"/><rect x="214.976" y="367.324" width="4" height="8" rx="2" fill="#788660" opacity=".55"/><rect x="215.04799999999997" y="367.288" width="4" height="8" rx="2" fill="#c5a35a" opacity=".55"/><rect x="215.12" y="367.252" width="4" height="8" rx="2" fill="#788660" opacity=".55"/><rect x="215.192" y="367.216" width="4" height="8" rx="2" fill="#788660" opacity=".55"/><path d="M50 650V350h90v-80h90v380h100V220h110v430h90V300h100v350h88" fill="#263044" stroke="#07111d" stroke-width="8"/><path d="M300 650l85-250 80 250" fill="#1b2535" stroke="#07111d" stroke-width="7"/><path d="M0 705H768V1024H0Z" fill="#0b1825"/><path d="M0 730H768" stroke="#788660" stroke-width="4" opacity=".5"/><path d="M0 855H768M80 730V1024M250 730V1024M518 730V1024M688 730V1024" stroke="#1d3548" stroke-width="3"/><ellipse cx="590" cy="775" rx="110" ry="28" fill="#03070d" opacity=".6"/><path d="M0 712H768" stroke="#c5a35a" stroke-width="3" opacity=".35"/></svg>
