<svg xmlns="http://www.w3.org/2000/svg" width="512" height="128" viewBox="0 0 512 128"><g transform="translate(0)" fill="none" stroke="#788660" stroke-width="3" stroke-linecap="round" stroke-linejoin="round" opacity="0.5"><path d="M74.9296 18l-3.5679999999999996 24 4.5920000000000005 20 -2.9344 27 0.02719999999999967 24"/><path d="M74.9368 18l-3.5664 24 4.59 20 -2.9328000000000003 27 0.02880000000000038 24"/></g><g transform="translate(128)" fill="none" stroke="#788660" stroke-width="4" stroke-linecap="round" stroke-linejoin="round" opacity="0.62"><path d="M49.5928 18l-3.5679999999999996 24 4.5920000000000005 20 -2.9344 27 0.02719999999999967 24"/><path d="M49.5856 18l-3.5664 24 4.59 20 -2.9328000000000003 27 0.02880000000000038 24"/><path d="M49.5784 18l-3.5712 24 4.588 20 -2.9375999999999998 27 0.030400000000000205 24"/></g><g transform="translate(256)" fill="none" stroke="#c5a35a" stroke-width="5" stroke-linecap="round" stroke-linejoin="round" opacity="0.74"><path d="M48.419200000000004 18l-3.5679999999999996 24 4.5920000000000005 20 -2.9344 27 0.02719999999999967 24"/><path d="M48.4264 18l-3.5664 24 4.59 20 -2.9328000000000003 27 0.02880000000000038 24"/><path d="M48.4336 18l-3.5712 24 4.588 20 -2.9375999999999998 27 0.030400000000000205 24"/><path d="M48.440799999999996 18l-3.5696000000000003 24 4.586 20 -2.936 27 0.03200000000000003 24"/></g><g transform="translate(384)" fill="none" stroke="#c5a35a" stroke-width="6" stroke-linecap="round" stroke-linejoin="round" opacity="0.86"><path d="M49.117599999999996 18l-3.5679999999999996 24 4.5920000000000005 20 -2.9344 27 0.02719999999999967 24"/><path d="M49.1104 18l-3.5664 24 4.59 20 -2.9328000000000003 27 0.02880000000000038 24"/><path d="M49.132 18l-3.5712 24 4.588 20 -2.9375999999999998 27 0.030400000000000205 24"/><path d="M49.1248 18l-3.5696000000000003 24 4.586 20 -2.936 27 0.03200000000000003 24"/><path d="M49.0888 18l-3.5616000000000003 24 4.5840000000000005 20 -2.9408000000000003 27 0.03359999999999985 24"/></g></svg>
