<svg xmlns="http://www.w3.org/2000/svg" width="512" height="128" viewBox="0 0 512 128"><g transform="translate(0 0)"><ellipse cx="64" cy="112" rx="42" ry="7" fill="#03070d" opacity=".7"/><g fill="#c5a35a" stroke="#07111d" stroke-width="6" stroke-linecap="round" stroke-linejoin="round"><rect x="28" y="46" width="72" height="58" rx="8"/><path d="M28 64h72M64 46v58" fill="none"/></g></g><g transform="translate(128 0)"><ellipse cx="64" cy="112" rx="42" ry="7" fill="#03070d" opacity=".7"/><g fill="#788660" stroke="#07111d" stroke-width="6" stroke-linecap="round" stroke-linejoin="round"><path d="M28 103L64 22l36 81Z"/><circle cx="64" cy="69" r="12" fill="#788660"/></g></g><g transform="translate(256 0)"><ellipse cx="64" cy="112" rx="42" ry="7" fill="#03070d" opacity=".7"/><g fill="#c5a35a" stroke="#07111d" stroke-width="6" stroke-linecap="round" stroke-linejoin="round"><circle cx="64" cy="66" r="39"/><path d="M64 27v78M25 66h78" fill="none"/></g></g><g transform="translate(384 0)"><ellipse cx="64" cy="112" rx="42" ry="7" fill="#03070d" opacity=".7"/><g fill="#788660" stroke="#07111d" stroke-width="6" stroke-linecap="round" stroke-linejoin="round"><path d="M20 98l17-62h54l17 62z"/><path d="M36 62h56" fill="none"/></g></g></svg>
